<?xml version="1.0" encoding="utf-8" standalone="no"?>
<!DOCTYPE svg PUBLIC "-//W3C//DTD SVG 1.1//EN"
  "http://www.w3.org/Graphics/SVG/1.1/DTD/svg11.dtd">
<svg xmlns:xlink="http://www.w3.org/1999/xlink" width="399.108203pt" height="240.67pt" viewBox="0 0 399.108203 240.67" xmlns="http://www.w3.org/2000/svg" version="1.1">
 <metadata>
  <rdf:RDF xmlns:dc="http://purl.org/dc/elements/1.1/" xmlns:cc="http://creativecommons.org/ns#" xmlns:rdf="http://www.w3.org/1999/02/22-rdf-syntax-ns#">
   <cc:Work>
    <dc:type rdf:resource="http://purl.org/dc/dcmitype/StillImage"/>
    <dc:date>2026-03-16T22:38:46.706363</dc:date>
    <dc:format>image/svg+xml</dc:format>
    <dc:creator>
     <cc:Agent>
      <dc:title>Matplotlib v3.10.8, https://matplotlib.org/</dc:title>
     </cc:Agent>
    </dc:creator>
   </cc:Work>
  </rdf:RDF>
 </metadata>
 <defs>
  <style type="text/css">*{stroke-linejoin: round; stroke-linecap: butt}</style>
 </defs>
 <g id="figure_1">
  <g id="patch_1">
   <path d="M 0 240.67 
L 399.108203 240.67 
L 399.108203 0 
L 0 0 
z
" style="fill: #ffffff"/>
  </g>
  <g id="axes_1">
   <g id="patch_2">
    <path d="M 57.108203 200.108 
L 196.608203 200.108 
L 196.608203 22.7 
L 57.108203 22.7 
z
" style="fill: #ffffff"/>
   </g>
   <g id="patch_3">
    <path d="M 57.108203 30.764 
L 168.708203 30.764 
L 168.708203 45.425818 
L 57.108203 45.425818 
z
" clip-path="url(#pd9740c6521)" style="fill: #2ca02c; stroke: #1a7a1a; stroke-width: 0.8; stroke-linejoin: miter"/>
   </g>
   <g id="patch_4">
    <path d="M 57.108203 49.091273 
L 78.033203 49.091273 
L 78.033203 63.753091 
L 57.108203 63.753091 
z
" clip-path="url(#pd9740c6521)" style="fill: #e8e8e8; stroke: #cccccc; stroke-width: 0.8; stroke-linejoin: miter"/>
   </g>
   <g id="patch_5">
    <path d="M 57.108203 67.418545 
L 78.033203 67.418545 
L 78.033203 82.080364 
L 57.108203 82.080364 
z
" clip-path="url(#pd9740c6521)" style="fill: #e8e8e8; stroke: #cccccc; stroke-width: 0.8; stroke-linejoin: miter"/>
   </g>
   <g id="patch_6">
    <path d="M 57.108203 85.745818 
L 78.033203 85.745818 
L 78.033203 100.407636 
L 57.108203 100.407636 
z
" clip-path="url(#pd9740c6521)" style="fill: #e8e8e8; stroke: #cccccc; stroke-width: 0.8; stroke-linejoin: miter"/>
   </g>
   <g id="patch_7">
    <path d="M 57.108203 104.073091 
L 78.033203 104.073091 
L 78.033203 118.734909 
L 57.108203 118.734909 
z
" clip-path="url(#pd9740c6521)" style="fill: #e8e8e8; stroke: #cccccc; stroke-width: 0.8; stroke-linejoin: miter"/>
   </g>
   <g id="patch_8">
    <path d="M 57.108203 122.400364 
L 78.033203 122.400364 
L 78.033203 137.062182 
L 57.108203 137.062182 
z
" clip-path="url(#pd9740c6521)" style="fill: #e8e8e8; stroke: #cccccc; stroke-width: 0.8; stroke-linejoin: miter"/>
   </g>
   <g id="patch_9">
    <path d="M 57.108203 140.727636 
L 78.033203 140.727636 
L 78.033203 155.389455 
L 57.108203 155.389455 
z
" clip-path="url(#pd9740c6521)" style="fill: #e8e8e8; stroke: #cccccc; stroke-width: 0.8; stroke-linejoin: miter"/>
   </g>
   <g id="patch_10">
    <path d="M 57.108203 159.054909 
L 78.033203 159.054909 
L 78.033203 173.716727 
L 57.108203 173.716727 
z
" clip-path="url(#pd9740c6521)" style="fill: #e8e8e8; stroke: #cccccc; stroke-width: 0.8; stroke-linejoin: miter"/>
   </g>
   <g id="patch_11">
    <path d="M 57.108203 177.382182 
L 78.033203 177.382182 
L 78.033203 192.044 
L 57.108203 192.044 
z
" clip-path="url(#pd9740c6521)" style="fill: #e8e8e8; stroke: #cccccc; stroke-width: 0.8; stroke-linejoin: miter"/>
   </g>
   <g id="matplotlib.axis_1"/>
   <g id="matplotlib.axis_2">
    <g id="ytick_1">
     <g id="line2d_1">
      <defs>
       <path id="m3f05c65eea" d="M 0 0 
L -3.5 0 
" style="stroke: #000000; stroke-width: 0.8"/>
      </defs>
      <g>
       <use xlink:href="#m3f05c65eea" x="57.108203" y="38.094909" style="stroke: #000000; stroke-width: 0.8"/>
      </g>
     </g>
     <g id="text_1">
      <!-- Consequences -->
      <g transform="translate(7.2 37.271667) scale(0.075 -0.075)">
       <defs>
        <path id="TimesNewRomanPSMT-43" d="M 3853 4334 
L 3950 2894 
L 3853 2894 
Q 3659 3541 3300 3825 
Q 2941 4109 2438 4109 
Q 2016 4109 1675 3895 
Q 1334 3681 1139 3212 
Q 944 2744 944 2047 
Q 944 1472 1128 1050 
Q 1313 628 1683 403 
Q 2053 178 2528 178 
Q 2941 178 3256 354 
Q 3572 531 3950 1056 
L 4047 994 
Q 3728 428 3303 165 
Q 2878 -97 2294 -97 
Q 1241 -97 663 684 
Q 231 1266 231 2053 
Q 231 2688 515 3219 
Q 800 3750 1298 4042 
Q 1797 4334 2388 4334 
Q 2847 4334 3294 4109 
Q 3425 4041 3481 4041 
Q 3566 4041 3628 4100 
Q 3709 4184 3744 4334 
L 3853 4334 
z
" transform="scale(0.015625)"/>
        <path id="TimesNewRomanPSMT-6f" d="M 1600 2947 
Q 2250 2947 2644 2453 
Q 2978 2031 2978 1484 
Q 2978 1100 2793 706 
Q 2609 313 2286 112 
Q 1963 -88 1566 -88 
Q 919 -88 538 428 
Q 216 863 216 1403 
Q 216 1797 411 2186 
Q 606 2575 925 2761 
Q 1244 2947 1600 2947 
z
M 1503 2744 
Q 1338 2744 1170 2645 
Q 1003 2547 900 2300 
Q 797 2053 797 1666 
Q 797 1041 1045 587 
Q 1294 134 1700 134 
Q 2003 134 2200 384 
Q 2397 634 2397 1244 
Q 2397 2006 2069 2444 
Q 1847 2744 1503 2744 
z
" transform="scale(0.015625)"/>
        <path id="TimesNewRomanPSMT-6e" d="M 1034 2341 
Q 1538 2947 1994 2947 
Q 2228 2947 2397 2830 
Q 2566 2713 2666 2444 
Q 2734 2256 2734 1869 
L 2734 647 
Q 2734 375 2778 278 
Q 2813 200 2889 156 
Q 2966 113 3172 113 
L 3172 0 
L 1756 0 
L 1756 113 
L 1816 113 
Q 2016 113 2095 173 
Q 2175 234 2206 353 
Q 2219 400 2219 647 
L 2219 1819 
Q 2219 2209 2117 2386 
Q 2016 2563 1775 2563 
Q 1403 2563 1034 2156 
L 1034 647 
Q 1034 356 1069 288 
Q 1113 197 1189 155 
Q 1266 113 1500 113 
L 1500 0 
L 84 0 
L 84 113 
L 147 113 
Q 366 113 442 223 
Q 519 334 519 647 
L 519 1709 
Q 519 2225 495 2337 
Q 472 2450 423 2490 
Q 375 2531 294 2531 
Q 206 2531 84 2484 
L 38 2597 
L 900 2947 
L 1034 2947 
L 1034 2341 
z
" transform="scale(0.015625)"/>
        <path id="TimesNewRomanPSMT-73" d="M 2050 2947 
L 2050 1972 
L 1947 1972 
Q 1828 2431 1642 2597 
Q 1456 2763 1169 2763 
Q 950 2763 815 2647 
Q 681 2531 681 2391 
Q 681 2216 781 2091 
Q 878 1963 1175 1819 
L 1631 1597 
Q 2266 1288 2266 781 
Q 2266 391 1970 151 
Q 1675 -88 1309 -88 
Q 1047 -88 709 6 
Q 606 38 541 38 
Q 469 38 428 -44 
L 325 -44 
L 325 978 
L 428 978 
Q 516 541 762 319 
Q 1009 97 1316 97 
Q 1531 97 1667 223 
Q 1803 350 1803 528 
Q 1803 744 1651 891 
Q 1500 1038 1047 1263 
Q 594 1488 453 1669 
Q 313 1847 313 2119 
Q 313 2472 555 2709 
Q 797 2947 1181 2947 
Q 1350 2947 1591 2875 
Q 1750 2828 1803 2828 
Q 1853 2828 1881 2850 
Q 1909 2872 1947 2947 
L 2050 2947 
z
" transform="scale(0.015625)"/>
        <path id="TimesNewRomanPSMT-65" d="M 681 1784 
Q 678 1147 991 784 
Q 1303 422 1725 422 
Q 2006 422 2214 576 
Q 2422 731 2563 1106 
L 2659 1044 
Q 2594 616 2278 264 
Q 1963 -88 1488 -88 
Q 972 -88 605 314 
Q 238 716 238 1394 
Q 238 2128 614 2539 
Q 991 2950 1559 2950 
Q 2041 2950 2350 2633 
Q 2659 2316 2659 1784 
L 681 1784 
z
M 681 1966 
L 2006 1966 
Q 1991 2241 1941 2353 
Q 1863 2528 1708 2628 
Q 1553 2728 1384 2728 
Q 1125 2728 920 2526 
Q 716 2325 681 1966 
z
" transform="scale(0.015625)"/>
        <path id="TimesNewRomanPSMT-71" d="M 2734 2947 
L 2734 -734 
Q 2734 -1009 2771 -1087 
Q 2809 -1166 2889 -1209 
Q 2969 -1253 3200 -1253 
L 3200 -1369 
L 1756 -1369 
L 1756 -1253 
L 1816 -1253 
Q 1991 -1253 2081 -1203 
Q 2144 -1169 2181 -1080 
Q 2219 -991 2219 -734 
L 2219 497 
Q 1934 159 1721 35 
Q 1509 -88 1281 -88 
Q 866 -88 539 290 
Q 213 669 213 1303 
Q 213 2031 644 2489 
Q 1075 2947 1684 2947 
Q 1863 2947 2013 2897 
Q 2163 2847 2281 2747 
Q 2463 2834 2628 2947 
L 2734 2947 
z
M 2219 694 
L 2219 2038 
Q 2219 2272 2158 2406 
Q 2097 2541 1940 2634 
Q 1784 2728 1588 2728 
Q 1238 2728 988 2431 
Q 738 2134 738 1531 
Q 738 953 992 653 
Q 1247 353 1606 353 
Q 1791 353 1934 433 
Q 2078 513 2219 694 
z
" transform="scale(0.015625)"/>
        <path id="TimesNewRomanPSMT-75" d="M 2709 2863 
L 2709 1128 
Q 2709 631 2732 520 
Q 2756 409 2807 365 
Q 2859 322 2928 322 
Q 3025 322 3147 375 
L 3191 266 
L 2334 -88 
L 2194 -88 
L 2194 519 
Q 1825 119 1631 15 
Q 1438 -88 1222 -88 
Q 981 -88 804 51 
Q 628 191 559 409 
Q 491 628 491 1028 
L 491 2306 
Q 491 2509 447 2587 
Q 403 2666 317 2708 
Q 231 2750 6 2747 
L 6 2863 
L 1009 2863 
L 1009 947 
Q 1009 547 1148 422 
Q 1288 297 1484 297 
Q 1619 297 1789 381 
Q 1959 466 2194 703 
L 2194 2325 
Q 2194 2569 2105 2655 
Q 2016 2741 1734 2747 
L 1734 2863 
L 2709 2863 
z
" transform="scale(0.015625)"/>
        <path id="TimesNewRomanPSMT-63" d="M 2631 1088 
Q 2516 522 2178 217 
Q 1841 -88 1431 -88 
Q 944 -88 581 321 
Q 219 731 219 1428 
Q 219 2103 620 2525 
Q 1022 2947 1584 2947 
Q 2006 2947 2278 2723 
Q 2550 2500 2550 2259 
Q 2550 2141 2473 2067 
Q 2397 1994 2259 1994 
Q 2075 1994 1981 2113 
Q 1928 2178 1911 2362 
Q 1894 2547 1784 2644 
Q 1675 2738 1481 2738 
Q 1169 2738 978 2506 
Q 725 2200 725 1697 
Q 725 1184 976 792 
Q 1228 400 1656 400 
Q 1963 400 2206 609 
Q 2378 753 2541 1131 
L 2631 1088 
z
" transform="scale(0.015625)"/>
       </defs>
       <use xlink:href="#TimesNewRomanPSMT-43"/>
       <use xlink:href="#TimesNewRomanPSMT-6f" transform="translate(66.699219 0)"/>
       <use xlink:href="#TimesNewRomanPSMT-6e" transform="translate(116.699219 0)"/>
       <use xlink:href="#TimesNewRomanPSMT-73" transform="translate(166.699219 0)"/>
       <use xlink:href="#TimesNewRomanPSMT-65" transform="translate(205.615234 0)"/>
       <use xlink:href="#TimesNewRomanPSMT-71" transform="translate(250 0)"/>
       <use xlink:href="#TimesNewRomanPSMT-75" transform="translate(300 0)"/>
       <use xlink:href="#TimesNewRomanPSMT-65" transform="translate(350 0)"/>
       <use xlink:href="#TimesNewRomanPSMT-6e" transform="translate(394.384766 0)"/>
       <use xlink:href="#TimesNewRomanPSMT-63" transform="translate(444.384766 0)"/>
       <use xlink:href="#TimesNewRomanPSMT-65" transform="translate(488.769531 0)"/>
       <use xlink:href="#TimesNewRomanPSMT-73" transform="translate(533.154297 0)"/>
      </g>
      <!-- ($a_1$) -->
      <g transform="translate(36.908203 45.175964) scale(0.075 -0.075)">
       <defs>
        <path id="TimesNewRomanPSMT-28" d="M 1988 -1253 
L 1988 -1369 
Q 1516 -1131 1200 -813 
Q 750 -359 506 256 
Q 263 872 263 1534 
Q 263 2503 741 3301 
Q 1219 4100 1988 4444 
L 1988 4313 
Q 1603 4100 1356 3731 
Q 1109 3363 987 2797 
Q 866 2231 866 1616 
Q 866 947 969 400 
Q 1050 -31 1165 -292 
Q 1281 -553 1476 -793 
Q 1672 -1034 1988 -1253 
z
" transform="scale(0.015625)"/>
        <path id="DejaVuSans-Oblique-61" d="M 3438 1997 
L 3047 0 
L 2472 0 
L 2578 531 
Q 2325 219 2001 64 
Q 1678 -91 1281 -91 
Q 834 -91 548 182 
Q 263 456 263 884 
Q 263 1497 752 1853 
Q 1241 2209 2100 2209 
L 2900 2209 
L 2931 2363 
Q 2938 2388 2941 2417 
Q 2944 2447 2944 2509 
Q 2944 2788 2717 2942 
Q 2491 3097 2081 3097 
Q 1800 3097 1504 3025 
Q 1209 2953 897 2809 
L 997 3341 
Q 1322 3463 1633 3523 
Q 1944 3584 2234 3584 
Q 2853 3584 3176 3315 
Q 3500 3047 3500 2534 
Q 3500 2431 3484 2292 
Q 3469 2153 3438 1997 
z
M 2816 1759 
L 2241 1759 
Q 1534 1759 1195 1570 
Q 856 1381 856 984 
Q 856 709 1029 553 
Q 1203 397 1509 397 
Q 1978 397 2328 733 
Q 2678 1069 2791 1631 
L 2816 1759 
z
" transform="scale(0.015625)"/>
        <path id="DejaVuSans-31" d="M 794 531 
L 1825 531 
L 1825 4091 
L 703 3866 
L 703 4441 
L 1819 4666 
L 2450 4666 
L 2450 531 
L 3481 531 
L 3481 0 
L 794 0 
L 794 531 
z
" transform="scale(0.015625)"/>
        <path id="TimesNewRomanPSMT-29" d="M 144 4313 
L 144 4444 
Q 619 4209 934 3891 
Q 1381 3434 1625 2820 
Q 1869 2206 1869 1541 
Q 1869 572 1392 -226 
Q 916 -1025 144 -1369 
L 144 -1253 
Q 528 -1038 776 -670 
Q 1025 -303 1145 264 
Q 1266 831 1266 1447 
Q 1266 2113 1163 2663 
Q 1084 3094 967 3353 
Q 850 3613 656 3853 
Q 463 4094 144 4313 
z
" transform="scale(0.015625)"/>
       </defs>
       <use xlink:href="#TimesNewRomanPSMT-28" transform="translate(0 0.5625)"/>
       <use xlink:href="#DejaVuSans-Oblique-61" transform="translate(33.300781 0.5625)"/>
       <use xlink:href="#DejaVuSans-31" transform="translate(94.580078 -15.84375) scale(0.7)"/>
       <use xlink:href="#TimesNewRomanPSMT-29" transform="translate(141.850586 0.5625)"/>
      </g>
     </g>
    </g>
    <g id="ytick_2">
     <g id="line2d_2">
      <g>
       <use xlink:href="#m3f05c65eea" x="57.108203" y="56.422182" style="stroke: #000000; stroke-width: 0.8"/>
      </g>
     </g>
     <g id="text_2">
      <!-- Rights -->
      <g transform="translate(30.519141 55.591908) scale(0.075 -0.075)">
       <defs>
        <path id="TimesNewRomanPSMT-52" d="M 4325 0 
L 3194 0 
L 1759 1981 
Q 1600 1975 1500 1975 
Q 1459 1975 1412 1976 
Q 1366 1978 1316 1981 
L 1316 750 
Q 1316 350 1403 253 
Q 1522 116 1759 116 
L 1925 116 
L 1925 0 
L 109 0 
L 109 116 
L 269 116 
Q 538 116 653 291 
Q 719 388 719 750 
L 719 3488 
Q 719 3888 631 3984 
Q 509 4122 269 4122 
L 109 4122 
L 109 4238 
L 1653 4238 
Q 2328 4238 2648 4139 
Q 2969 4041 3192 3777 
Q 3416 3513 3416 3147 
Q 3416 2756 3161 2468 
Q 2906 2181 2372 2063 
L 3247 847 
Q 3547 428 3762 290 
Q 3978 153 4325 116 
L 4325 0 
z
M 1316 2178 
Q 1375 2178 1419 2176 
Q 1463 2175 1491 2175 
Q 2097 2175 2405 2437 
Q 2713 2700 2713 3106 
Q 2713 3503 2464 3751 
Q 2216 4000 1806 4000 
Q 1625 4000 1316 3941 
L 1316 2178 
z
" transform="scale(0.015625)"/>
        <path id="TimesNewRomanPSMT-69" d="M 928 4444 
Q 1059 4444 1151 4351 
Q 1244 4259 1244 4128 
Q 1244 3997 1151 3903 
Q 1059 3809 928 3809 
Q 797 3809 703 3903 
Q 609 3997 609 4128 
Q 609 4259 701 4351 
Q 794 4444 928 4444 
z
M 1188 2947 
L 1188 647 
Q 1188 378 1227 289 
Q 1266 200 1342 156 
Q 1419 113 1622 113 
L 1622 0 
L 231 0 
L 231 113 
Q 441 113 512 153 
Q 584 194 626 287 
Q 669 381 669 647 
L 669 1750 
Q 669 2216 641 2353 
Q 619 2453 572 2492 
Q 525 2531 444 2531 
Q 356 2531 231 2484 
L 188 2597 
L 1050 2947 
L 1188 2947 
z
" transform="scale(0.015625)"/>
        <path id="TimesNewRomanPSMT-67" d="M 966 1044 
Q 703 1172 562 1401 
Q 422 1631 422 1909 
Q 422 2334 742 2640 
Q 1063 2947 1563 2947 
Q 1972 2947 2272 2747 
L 2878 2747 
Q 3013 2747 3034 2739 
Q 3056 2731 3066 2713 
Q 3084 2684 3084 2613 
Q 3084 2531 3069 2500 
Q 3059 2484 3036 2475 
Q 3013 2466 2878 2466 
L 2506 2466 
Q 2681 2241 2681 1891 
Q 2681 1491 2375 1206 
Q 2069 922 1553 922 
Q 1341 922 1119 984 
Q 981 866 932 777 
Q 884 688 884 625 
Q 884 572 936 522 
Q 988 472 1138 450 
Q 1225 438 1575 428 
Q 2219 413 2409 384 
Q 2700 344 2873 169 
Q 3047 -6 3047 -263 
Q 3047 -616 2716 -925 
Q 2228 -1381 1444 -1381 
Q 841 -1381 425 -1109 
Q 191 -953 191 -784 
Q 191 -709 225 -634 
Q 278 -519 444 -313 
Q 466 -284 763 25 
Q 600 122 533 198 
Q 466 275 466 372 
Q 466 481 555 628 
Q 644 775 966 1044 
z
M 1509 2797 
Q 1278 2797 1122 2612 
Q 966 2428 966 2047 
Q 966 1553 1178 1281 
Q 1341 1075 1591 1075 
Q 1828 1075 1981 1253 
Q 2134 1431 2134 1813 
Q 2134 2309 1919 2591 
Q 1759 2797 1509 2797 
z
M 934 0 
Q 788 -159 713 -296 
Q 638 -434 638 -550 
Q 638 -700 819 -813 
Q 1131 -1006 1722 -1006 
Q 2284 -1006 2551 -807 
Q 2819 -609 2819 -384 
Q 2819 -222 2659 -153 
Q 2497 -84 2016 -72 
Q 1313 -53 934 0 
z
" transform="scale(0.015625)"/>
        <path id="TimesNewRomanPSMT-68" d="M 1041 4444 
L 1041 2350 
Q 1388 2731 1591 2839 
Q 1794 2947 1997 2947 
Q 2241 2947 2416 2812 
Q 2591 2678 2675 2391 
Q 2734 2191 2734 1659 
L 2734 647 
Q 2734 375 2778 275 
Q 2809 200 2884 156 
Q 2959 113 3159 113 
L 3159 0 
L 1753 0 
L 1753 113 
L 1819 113 
Q 2019 113 2097 173 
Q 2175 234 2206 353 
Q 2216 403 2216 647 
L 2216 1659 
Q 2216 2128 2167 2275 
Q 2119 2422 2012 2495 
Q 1906 2569 1756 2569 
Q 1603 2569 1437 2487 
Q 1272 2406 1041 2159 
L 1041 647 
Q 1041 353 1073 281 
Q 1106 209 1195 161 
Q 1284 113 1503 113 
L 1503 0 
L 84 0 
L 84 113 
Q 275 113 384 172 
Q 447 203 484 290 
Q 522 378 522 647 
L 522 3238 
Q 522 3728 498 3840 
Q 475 3953 426 3993 
Q 378 4034 297 4034 
Q 231 4034 84 3984 
L 41 4094 
L 897 4444 
L 1041 4444 
z
" transform="scale(0.015625)"/>
        <path id="TimesNewRomanPSMT-74" d="M 1031 3803 
L 1031 2863 
L 1700 2863 
L 1700 2644 
L 1031 2644 
L 1031 788 
Q 1031 509 1111 412 
Q 1191 316 1316 316 
Q 1419 316 1516 380 
Q 1613 444 1666 569 
L 1788 569 
Q 1678 263 1478 108 
Q 1278 -47 1066 -47 
Q 922 -47 784 33 
Q 647 113 581 261 
Q 516 409 516 719 
L 516 2644 
L 63 2644 
L 63 2747 
Q 234 2816 414 2980 
Q 594 3144 734 3369 
Q 806 3488 934 3803 
L 1031 3803 
z
" transform="scale(0.015625)"/>
       </defs>
       <use xlink:href="#TimesNewRomanPSMT-52"/>
       <use xlink:href="#TimesNewRomanPSMT-69" transform="translate(66.699219 0)"/>
       <use xlink:href="#TimesNewRomanPSMT-67" transform="translate(94.482422 0)"/>
       <use xlink:href="#TimesNewRomanPSMT-68" transform="translate(144.482422 0)"/>
       <use xlink:href="#TimesNewRomanPSMT-74" transform="translate(194.482422 0)"/>
       <use xlink:href="#TimesNewRomanPSMT-73" transform="translate(222.265625 0)"/>
      </g>
      <!-- ($a_2$) -->
      <g transform="translate(36.908203 63.510268) scale(0.075 -0.075)">
       <defs>
        <path id="DejaVuSans-32" d="M 1228 531 
L 3431 531 
L 3431 0 
L 469 0 
L 469 531 
Q 828 903 1448 1529 
Q 2069 2156 2228 2338 
Q 2531 2678 2651 2914 
Q 2772 3150 2772 3378 
Q 2772 3750 2511 3984 
Q 2250 4219 1831 4219 
Q 1534 4219 1204 4116 
Q 875 4013 500 3803 
L 500 4441 
Q 881 4594 1212 4672 
Q 1544 4750 1819 4750 
Q 2544 4750 2975 4387 
Q 3406 4025 3406 3419 
Q 3406 3131 3298 2873 
Q 3191 2616 2906 2266 
Q 2828 2175 2409 1742 
Q 1991 1309 1228 531 
z
" transform="scale(0.015625)"/>
       </defs>
       <use xlink:href="#TimesNewRomanPSMT-28" transform="translate(0 0.5625)"/>
       <use xlink:href="#DejaVuSans-Oblique-61" transform="translate(33.300781 0.5625)"/>
       <use xlink:href="#DejaVuSans-32" transform="translate(94.580078 -15.84375) scale(0.7)"/>
       <use xlink:href="#TimesNewRomanPSMT-29" transform="translate(141.850586 0.5625)"/>
      </g>
     </g>
    </g>
    <g id="ytick_3">
     <g id="line2d_3">
      <g>
       <use xlink:href="#m3f05c65eea" x="57.108203" y="74.749455" style="stroke: #000000; stroke-width: 0.8"/>
      </g>
     </g>
     <g id="text_3">
      <!-- Fairness -->
      <g transform="translate(25.109766 73.926212) scale(0.075 -0.075)">
       <defs>
        <path id="TimesNewRomanPSMT-46" d="M 1309 4006 
L 1309 2341 
L 2081 2341 
Q 2347 2341 2470 2458 
Q 2594 2575 2634 2922 
L 2750 2922 
L 2750 1488 
L 2634 1488 
Q 2631 1734 2570 1850 
Q 2509 1966 2401 2023 
Q 2294 2081 2081 2081 
L 1309 2081 
L 1309 750 
Q 1309 428 1350 325 
Q 1381 247 1481 191 
Q 1619 116 1769 116 
L 1922 116 
L 1922 0 
L 103 0 
L 103 116 
L 253 116 
Q 516 116 634 269 
Q 709 369 709 750 
L 709 3488 
Q 709 3809 669 3913 
Q 638 3991 541 4047 
Q 406 4122 253 4122 
L 103 4122 
L 103 4238 
L 3256 4238 
L 3297 3306 
L 3188 3306 
Q 3106 3603 2998 3742 
Q 2891 3881 2733 3943 
Q 2575 4006 2244 4006 
L 1309 4006 
z
" transform="scale(0.015625)"/>
        <path id="TimesNewRomanPSMT-61" d="M 1822 413 
Q 1381 72 1269 19 
Q 1100 -59 909 -59 
Q 613 -59 420 144 
Q 228 347 228 678 
Q 228 888 322 1041 
Q 450 1253 767 1440 
Q 1084 1628 1822 1897 
L 1822 2009 
Q 1822 2438 1686 2597 
Q 1550 2756 1291 2756 
Q 1094 2756 978 2650 
Q 859 2544 859 2406 
L 866 2225 
Q 866 2081 792 2003 
Q 719 1925 600 1925 
Q 484 1925 411 2006 
Q 338 2088 338 2228 
Q 338 2497 613 2722 
Q 888 2947 1384 2947 
Q 1766 2947 2009 2819 
Q 2194 2722 2281 2516 
Q 2338 2381 2338 1966 
L 2338 994 
Q 2338 584 2353 492 
Q 2369 400 2405 369 
Q 2441 338 2488 338 
Q 2538 338 2575 359 
Q 2641 400 2828 588 
L 2828 413 
Q 2478 -56 2159 -56 
Q 2006 -56 1915 50 
Q 1825 156 1822 413 
z
M 1822 616 
L 1822 1706 
Q 1350 1519 1213 1441 
Q 966 1303 859 1153 
Q 753 1003 753 825 
Q 753 600 887 451 
Q 1022 303 1197 303 
Q 1434 303 1822 616 
z
" transform="scale(0.015625)"/>
        <path id="TimesNewRomanPSMT-72" d="M 1038 2947 
L 1038 2303 
Q 1397 2947 1775 2947 
Q 1947 2947 2059 2842 
Q 2172 2738 2172 2600 
Q 2172 2478 2090 2393 
Q 2009 2309 1897 2309 
Q 1788 2309 1652 2417 
Q 1516 2525 1450 2525 
Q 1394 2525 1328 2463 
Q 1188 2334 1038 2041 
L 1038 669 
Q 1038 431 1097 309 
Q 1138 225 1241 169 
Q 1344 113 1538 113 
L 1538 0 
L 72 0 
L 72 113 
Q 291 113 397 181 
Q 475 231 506 341 
Q 522 394 522 644 
L 522 1753 
Q 522 2253 501 2348 
Q 481 2444 426 2487 
Q 372 2531 291 2531 
Q 194 2531 72 2484 
L 41 2597 
L 906 2947 
L 1038 2947 
z
" transform="scale(0.015625)"/>
       </defs>
       <use xlink:href="#TimesNewRomanPSMT-46"/>
       <use xlink:href="#TimesNewRomanPSMT-61" transform="translate(55.615234 0)"/>
       <use xlink:href="#TimesNewRomanPSMT-69" transform="translate(100 0)"/>
       <use xlink:href="#TimesNewRomanPSMT-72" transform="translate(127.783203 0)"/>
       <use xlink:href="#TimesNewRomanPSMT-6e" transform="translate(161.083984 0)"/>
       <use xlink:href="#TimesNewRomanPSMT-65" transform="translate(211.083984 0)"/>
       <use xlink:href="#TimesNewRomanPSMT-73" transform="translate(255.46875 0)"/>
       <use xlink:href="#TimesNewRomanPSMT-73" transform="translate(294.384766 0)"/>
      </g>
      <!-- ($a_3$) -->
      <g transform="translate(36.908203 81.830509) scale(0.075 -0.075)">
       <defs>
        <path id="DejaVuSans-33" d="M 2597 2516 
Q 3050 2419 3304 2112 
Q 3559 1806 3559 1356 
Q 3559 666 3084 287 
Q 2609 -91 1734 -91 
Q 1441 -91 1130 -33 
Q 819 25 488 141 
L 488 750 
Q 750 597 1062 519 
Q 1375 441 1716 441 
Q 2309 441 2620 675 
Q 2931 909 2931 1356 
Q 2931 1769 2642 2001 
Q 2353 2234 1838 2234 
L 1294 2234 
L 1294 2753 
L 1863 2753 
Q 2328 2753 2575 2939 
Q 2822 3125 2822 3475 
Q 2822 3834 2567 4026 
Q 2313 4219 1838 4219 
Q 1578 4219 1281 4162 
Q 984 4106 628 3988 
L 628 4550 
Q 988 4650 1302 4700 
Q 1616 4750 1894 4750 
Q 2613 4750 3031 4423 
Q 3450 4097 3450 3541 
Q 3450 3153 3228 2886 
Q 3006 2619 2597 2516 
z
" transform="scale(0.015625)"/>
       </defs>
       <use xlink:href="#TimesNewRomanPSMT-28" transform="translate(0 0.5625)"/>
       <use xlink:href="#DejaVuSans-Oblique-61" transform="translate(33.300781 0.5625)"/>
       <use xlink:href="#DejaVuSans-33" transform="translate(94.580078 -15.84375) scale(0.7)"/>
       <use xlink:href="#TimesNewRomanPSMT-29" transform="translate(141.850586 0.5625)"/>
      </g>
     </g>
    </g>
    <g id="ytick_4">
     <g id="line2d_4">
      <g>
       <use xlink:href="#m3f05c65eea" x="57.108203" y="93.076727" style="stroke: #000000; stroke-width: 0.8"/>
      </g>
     </g>
     <g id="text_4">
      <!-- Autonomy -->
      <g transform="translate(18.024609 92.239423) scale(0.075 -0.075)">
       <defs>
        <path id="TimesNewRomanPSMT-41" d="M 2928 1419 
L 1288 1419 
L 1000 750 
Q 894 503 894 381 
Q 894 284 986 211 
Q 1078 138 1384 116 
L 1384 0 
L 50 0 
L 50 116 
Q 316 163 394 238 
Q 553 388 747 847 
L 2238 4334 
L 2347 4334 
L 3822 809 
Q 4000 384 4145 257 
Q 4291 131 4550 116 
L 4550 0 
L 2878 0 
L 2878 116 
Q 3131 128 3220 200 
Q 3309 272 3309 375 
Q 3309 513 3184 809 
L 2928 1419 
z
M 2841 1650 
L 2122 3363 
L 1384 1650 
L 2841 1650 
z
" transform="scale(0.015625)"/>
        <path id="TimesNewRomanPSMT-6d" d="M 1050 2338 
Q 1363 2650 1419 2697 
Q 1559 2816 1721 2881 
Q 1884 2947 2044 2947 
Q 2313 2947 2506 2790 
Q 2700 2634 2766 2338 
Q 3088 2713 3309 2830 
Q 3531 2947 3766 2947 
Q 3994 2947 4170 2830 
Q 4347 2713 4450 2447 
Q 4519 2266 4519 1878 
L 4519 647 
Q 4519 378 4559 278 
Q 4591 209 4675 161 
Q 4759 113 4950 113 
L 4950 0 
L 3538 0 
L 3538 113 
L 3597 113 
Q 3781 113 3884 184 
Q 3956 234 3988 344 
Q 4000 397 4000 647 
L 4000 1878 
Q 4000 2228 3916 2372 
Q 3794 2572 3525 2572 
Q 3359 2572 3192 2489 
Q 3025 2406 2788 2181 
L 2781 2147 
L 2788 2013 
L 2788 647 
Q 2788 353 2820 281 
Q 2853 209 2943 161 
Q 3034 113 3253 113 
L 3253 0 
L 1806 0 
L 1806 113 
Q 2044 113 2133 169 
Q 2222 225 2256 338 
Q 2272 391 2272 647 
L 2272 1878 
Q 2272 2228 2169 2381 
Q 2031 2581 1784 2581 
Q 1616 2581 1450 2491 
Q 1191 2353 1050 2181 
L 1050 647 
Q 1050 366 1089 281 
Q 1128 197 1204 155 
Q 1281 113 1516 113 
L 1516 0 
L 100 0 
L 100 113 
Q 297 113 375 155 
Q 453 197 493 289 
Q 534 381 534 647 
L 534 1741 
Q 534 2213 506 2350 
Q 484 2453 437 2492 
Q 391 2531 309 2531 
Q 222 2531 100 2484 
L 53 2597 
L 916 2947 
L 1050 2947 
L 1050 2338 
z
" transform="scale(0.015625)"/>
        <path id="TimesNewRomanPSMT-79" d="M 38 2863 
L 1372 2863 
L 1372 2747 
L 1306 2747 
Q 1166 2747 1095 2686 
Q 1025 2625 1025 2534 
Q 1025 2413 1128 2197 
L 1825 753 
L 2466 2334 
Q 2519 2463 2519 2588 
Q 2519 2644 2497 2672 
Q 2472 2706 2419 2726 
Q 2366 2747 2231 2747 
L 2231 2863 
L 3163 2863 
L 3163 2747 
Q 3047 2734 2984 2696 
Q 2922 2659 2847 2556 
Q 2819 2513 2741 2316 
L 1575 -541 
Q 1406 -956 1132 -1168 
Q 859 -1381 606 -1381 
Q 422 -1381 303 -1275 
Q 184 -1169 184 -1031 
Q 184 -900 270 -820 
Q 356 -741 506 -741 
Q 609 -741 788 -809 
Q 913 -856 944 -856 
Q 1038 -856 1148 -759 
Q 1259 -663 1372 -384 
L 1575 113 
L 547 2272 
Q 500 2369 397 2513 
Q 319 2622 269 2659 
Q 197 2709 38 2747 
L 38 2863 
z
" transform="scale(0.015625)"/>
       </defs>
       <use xlink:href="#TimesNewRomanPSMT-41"/>
       <use xlink:href="#TimesNewRomanPSMT-75" transform="translate(72.216797 0)"/>
       <use xlink:href="#TimesNewRomanPSMT-74" transform="translate(122.216797 0)"/>
       <use xlink:href="#TimesNewRomanPSMT-6f" transform="translate(150 0)"/>
       <use xlink:href="#TimesNewRomanPSMT-6e" transform="translate(200 0)"/>
       <use xlink:href="#TimesNewRomanPSMT-6f" transform="translate(250 0)"/>
       <use xlink:href="#TimesNewRomanPSMT-6d" transform="translate(300 0)"/>
       <use xlink:href="#TimesNewRomanPSMT-79" transform="translate(377.783203 0)"/>
      </g>
      <!-- ($a_4$) -->
      <g transform="translate(36.908203 100.157782) scale(0.075 -0.075)">
       <defs>
        <path id="DejaVuSans-34" d="M 2419 4116 
L 825 1625 
L 2419 1625 
L 2419 4116 
z
M 2253 4666 
L 3047 4666 
L 3047 1625 
L 3713 1625 
L 3713 1100 
L 3047 1100 
L 3047 0 
L 2419 0 
L 2419 1100 
L 313 1100 
L 313 1709 
L 2253 4666 
z
" transform="scale(0.015625)"/>
       </defs>
       <use xlink:href="#TimesNewRomanPSMT-28" transform="translate(0 0.5625)"/>
       <use xlink:href="#DejaVuSans-Oblique-61" transform="translate(33.300781 0.5625)"/>
       <use xlink:href="#DejaVuSans-34" transform="translate(94.580078 -15.84375) scale(0.7)"/>
       <use xlink:href="#TimesNewRomanPSMT-29" transform="translate(141.850586 0.5625)"/>
      </g>
     </g>
    </g>
    <g id="ytick_5">
     <g id="line2d_5">
      <g>
       <use xlink:href="#m3f05c65eea" x="57.108203" y="111.404" style="stroke: #000000; stroke-width: 0.8"/>
      </g>
     </g>
     <g id="text_5">
      <!-- Trust -->
      <g transform="translate(34.539844 110.580758) scale(0.075 -0.075)">
       <defs>
        <path id="TimesNewRomanPSMT-54" d="M 3703 4238 
L 3750 3244 
L 3631 3244 
Q 3597 3506 3538 3619 
Q 3441 3800 3280 3886 
Q 3119 3972 2856 3972 
L 2259 3972 
L 2259 734 
Q 2259 344 2344 247 
Q 2463 116 2709 116 
L 2856 116 
L 2856 0 
L 1059 0 
L 1059 116 
L 1209 116 
Q 1478 116 1591 278 
Q 1659 378 1659 734 
L 1659 3972 
L 1150 3972 
Q 853 3972 728 3928 
Q 566 3869 450 3700 
Q 334 3531 313 3244 
L 194 3244 
L 244 4238 
L 3703 4238 
z
" transform="scale(0.015625)"/>
       </defs>
       <use xlink:href="#TimesNewRomanPSMT-54"/>
       <use xlink:href="#TimesNewRomanPSMT-72" transform="translate(57.583984 0)"/>
       <use xlink:href="#TimesNewRomanPSMT-75" transform="translate(90.884766 0)"/>
       <use xlink:href="#TimesNewRomanPSMT-73" transform="translate(140.884766 0)"/>
       <use xlink:href="#TimesNewRomanPSMT-74" transform="translate(179.800781 0)"/>
      </g>
      <!-- ($a_5$) -->
      <g transform="translate(36.908203 118.485055) scale(0.075 -0.075)">
       <defs>
        <path id="DejaVuSans-35" d="M 691 4666 
L 3169 4666 
L 3169 4134 
L 1269 4134 
L 1269 2991 
Q 1406 3038 1543 3061 
Q 1681 3084 1819 3084 
Q 2600 3084 3056 2656 
Q 3513 2228 3513 1497 
Q 3513 744 3044 326 
Q 2575 -91 1722 -91 
Q 1428 -91 1123 -41 
Q 819 9 494 109 
L 494 744 
Q 775 591 1075 516 
Q 1375 441 1709 441 
Q 2250 441 2565 725 
Q 2881 1009 2881 1497 
Q 2881 1984 2565 2268 
Q 2250 2553 1709 2553 
Q 1456 2553 1204 2497 
Q 953 2441 691 2322 
L 691 4666 
z
" transform="scale(0.015625)"/>
       </defs>
       <use xlink:href="#TimesNewRomanPSMT-28" transform="translate(0 0.5625)"/>
       <use xlink:href="#DejaVuSans-Oblique-61" transform="translate(33.300781 0.5625)"/>
       <use xlink:href="#DejaVuSans-35" transform="translate(94.580078 -15.84375) scale(0.7)"/>
       <use xlink:href="#TimesNewRomanPSMT-29" transform="translate(141.850586 0.5625)"/>
      </g>
     </g>
    </g>
    <g id="ytick_6">
     <g id="line2d_6">
      <g>
       <use xlink:href="#m3f05c65eea" x="57.108203" y="129.731273" style="stroke: #000000; stroke-width: 0.8"/>
      </g>
     </g>
     <g id="text_6">
      <!-- Social -->
      <g transform="translate(31.361719 128.908031) scale(0.075 -0.075)">
       <defs>
        <path id="TimesNewRomanPSMT-53" d="M 2934 4334 
L 2934 2869 
L 2819 2869 
Q 2763 3291 2617 3541 
Q 2472 3791 2203 3937 
Q 1934 4084 1647 4084 
Q 1322 4084 1109 3886 
Q 897 3688 897 3434 
Q 897 3241 1031 3081 
Q 1225 2847 1953 2456 
Q 2547 2138 2764 1967 
Q 2981 1797 3098 1565 
Q 3216 1334 3216 1081 
Q 3216 600 2842 251 
Q 2469 -97 1881 -97 
Q 1697 -97 1534 -69 
Q 1438 -53 1133 45 
Q 828 144 747 144 
Q 669 144 623 97 
Q 578 50 556 -97 
L 441 -97 
L 441 1356 
L 556 1356 
Q 638 900 775 673 
Q 913 447 1195 297 
Q 1478 147 1816 147 
Q 2206 147 2432 353 
Q 2659 559 2659 841 
Q 2659 997 2573 1156 
Q 2488 1316 2306 1453 
Q 2184 1547 1640 1851 
Q 1097 2156 867 2337 
Q 638 2519 519 2737 
Q 400 2956 400 3219 
Q 400 3675 750 4004 
Q 1100 4334 1641 4334 
Q 1978 4334 2356 4169 
Q 2531 4091 2603 4091 
Q 2684 4091 2736 4139 
Q 2788 4188 2819 4334 
L 2934 4334 
z
" transform="scale(0.015625)"/>
        <path id="TimesNewRomanPSMT-6c" d="M 1184 4444 
L 1184 647 
Q 1184 378 1223 290 
Q 1263 203 1344 158 
Q 1425 113 1647 113 
L 1647 0 
L 244 0 
L 244 113 
Q 441 113 512 153 
Q 584 194 625 287 
Q 666 381 666 647 
L 666 3247 
Q 666 3731 644 3842 
Q 622 3953 573 3993 
Q 525 4034 450 4034 
Q 369 4034 244 3984 
L 191 4094 
L 1044 4444 
L 1184 4444 
z
" transform="scale(0.015625)"/>
       </defs>
       <use xlink:href="#TimesNewRomanPSMT-53"/>
       <use xlink:href="#TimesNewRomanPSMT-6f" transform="translate(55.615234 0)"/>
       <use xlink:href="#TimesNewRomanPSMT-63" transform="translate(105.615234 0)"/>
       <use xlink:href="#TimesNewRomanPSMT-69" transform="translate(150 0)"/>
       <use xlink:href="#TimesNewRomanPSMT-61" transform="translate(177.783203 0)"/>
       <use xlink:href="#TimesNewRomanPSMT-6c" transform="translate(222.167969 0)"/>
      </g>
      <!-- ($a_6$) -->
      <g transform="translate(36.908203 136.812327) scale(0.075 -0.075)">
       <defs>
        <path id="DejaVuSans-36" d="M 2113 2584 
Q 1688 2584 1439 2293 
Q 1191 2003 1191 1497 
Q 1191 994 1439 701 
Q 1688 409 2113 409 
Q 2538 409 2786 701 
Q 3034 994 3034 1497 
Q 3034 2003 2786 2293 
Q 2538 2584 2113 2584 
z
M 3366 4563 
L 3366 3988 
Q 3128 4100 2886 4159 
Q 2644 4219 2406 4219 
Q 1781 4219 1451 3797 
Q 1122 3375 1075 2522 
Q 1259 2794 1537 2939 
Q 1816 3084 2150 3084 
Q 2853 3084 3261 2657 
Q 3669 2231 3669 1497 
Q 3669 778 3244 343 
Q 2819 -91 2113 -91 
Q 1303 -91 875 529 
Q 447 1150 447 2328 
Q 447 3434 972 4092 
Q 1497 4750 2381 4750 
Q 2619 4750 2861 4703 
Q 3103 4656 3366 4563 
z
" transform="scale(0.015625)"/>
       </defs>
       <use xlink:href="#TimesNewRomanPSMT-28" transform="translate(0 0.5625)"/>
       <use xlink:href="#DejaVuSans-Oblique-61" transform="translate(33.300781 0.5625)"/>
       <use xlink:href="#DejaVuSans-36" transform="translate(94.580078 -15.84375) scale(0.7)"/>
       <use xlink:href="#TimesNewRomanPSMT-29" transform="translate(141.850586 0.5625)"/>
      </g>
     </g>
    </g>
    <g id="ytick_7">
     <g id="line2d_7">
      <g>
       <use xlink:href="#m3f05c65eea" x="57.108203" y="148.058545" style="stroke: #000000; stroke-width: 0.8"/>
      </g>
     </g>
     <g id="text_7">
      <!-- Identity -->
      <g transform="translate(26.780859 147.228272) scale(0.075 -0.075)">
       <defs>
        <path id="TimesNewRomanPSMT-49" d="M 1975 116 
L 1975 0 
L 159 0 
L 159 116 
L 309 116 
Q 572 116 691 269 
Q 766 369 766 750 
L 766 3488 
Q 766 3809 725 3913 
Q 694 3991 597 4047 
Q 459 4122 309 4122 
L 159 4122 
L 159 4238 
L 1975 4238 
L 1975 4122 
L 1822 4122 
Q 1563 4122 1444 3969 
Q 1366 3869 1366 3488 
L 1366 750 
Q 1366 428 1406 325 
Q 1438 247 1538 191 
Q 1672 116 1822 116 
L 1975 116 
z
" transform="scale(0.015625)"/>
        <path id="TimesNewRomanPSMT-64" d="M 2222 322 
Q 2013 103 1813 7 
Q 1613 -88 1381 -88 
Q 913 -88 563 304 
Q 213 697 213 1313 
Q 213 1928 600 2439 
Q 988 2950 1597 2950 
Q 1975 2950 2222 2709 
L 2222 3238 
Q 2222 3728 2198 3840 
Q 2175 3953 2125 3993 
Q 2075 4034 2000 4034 
Q 1919 4034 1784 3984 
L 1744 4094 
L 2597 4444 
L 2738 4444 
L 2738 1134 
Q 2738 631 2761 520 
Q 2784 409 2836 365 
Q 2888 322 2956 322 
Q 3041 322 3181 375 
L 3216 266 
L 2366 -88 
L 2222 -88 
L 2222 322 
z
M 2222 541 
L 2222 2016 
Q 2203 2228 2109 2403 
Q 2016 2578 1861 2667 
Q 1706 2756 1559 2756 
Q 1284 2756 1069 2509 
Q 784 2184 784 1559 
Q 784 928 1059 592 
Q 1334 256 1672 256 
Q 1956 256 2222 541 
z
" transform="scale(0.015625)"/>
       </defs>
       <use xlink:href="#TimesNewRomanPSMT-49"/>
       <use xlink:href="#TimesNewRomanPSMT-64" transform="translate(33.300781 0)"/>
       <use xlink:href="#TimesNewRomanPSMT-65" transform="translate(83.300781 0)"/>
       <use xlink:href="#TimesNewRomanPSMT-6e" transform="translate(127.685547 0)"/>
       <use xlink:href="#TimesNewRomanPSMT-74" transform="translate(177.685547 0)"/>
       <use xlink:href="#TimesNewRomanPSMT-69" transform="translate(205.46875 0)"/>
       <use xlink:href="#TimesNewRomanPSMT-74" transform="translate(233.251953 0)"/>
       <use xlink:href="#TimesNewRomanPSMT-79" transform="translate(261.035156 0)"/>
      </g>
      <!-- ($a_7$) -->
      <g transform="translate(36.908203 155.146631) scale(0.075 -0.075)">
       <defs>
        <path id="DejaVuSans-37" d="M 525 4666 
L 3525 4666 
L 3525 4397 
L 1831 0 
L 1172 0 
L 2766 4134 
L 525 4134 
L 525 4666 
z
" transform="scale(0.015625)"/>
       </defs>
       <use xlink:href="#TimesNewRomanPSMT-28" transform="translate(0 0.5625)"/>
       <use xlink:href="#DejaVuSans-Oblique-61" transform="translate(33.300781 0.5625)"/>
       <use xlink:href="#DejaVuSans-37" transform="translate(94.580078 -15.84375) scale(0.7)"/>
       <use xlink:href="#TimesNewRomanPSMT-29" transform="translate(141.850586 0.5625)"/>
      </g>
     </g>
    </g>
    <g id="ytick_8">
     <g id="line2d_8">
      <g>
       <use xlink:href="#m3f05c65eea" x="57.108203" y="166.385818" style="stroke: #000000; stroke-width: 0.8"/>
      </g>
     </g>
     <g id="text_8">
      <!-- Legitimacy -->
      <g transform="translate(15.955078 165.555545) scale(0.075 -0.075)">
       <defs>
        <path id="TimesNewRomanPSMT-4c" d="M 3669 1172 
L 3772 1150 
L 3409 0 
L 128 0 
L 128 116 
L 288 116 
Q 556 116 672 291 
Q 738 391 738 753 
L 738 3488 
Q 738 3884 650 3984 
Q 528 4122 288 4122 
L 128 4122 
L 128 4238 
L 2047 4238 
L 2047 4122 
Q 1709 4125 1573 4059 
Q 1438 3994 1388 3894 
Q 1338 3794 1338 3416 
L 1338 753 
Q 1338 494 1388 397 
Q 1425 331 1503 300 
Q 1581 269 1991 269 
L 2300 269 
Q 2788 269 2984 341 
Q 3181 413 3343 595 
Q 3506 778 3669 1172 
z
" transform="scale(0.015625)"/>
       </defs>
       <use xlink:href="#TimesNewRomanPSMT-4c"/>
       <use xlink:href="#TimesNewRomanPSMT-65" transform="translate(61.083984 0)"/>
       <use xlink:href="#TimesNewRomanPSMT-67" transform="translate(105.46875 0)"/>
       <use xlink:href="#TimesNewRomanPSMT-69" transform="translate(155.46875 0)"/>
       <use xlink:href="#TimesNewRomanPSMT-74" transform="translate(183.251953 0)"/>
       <use xlink:href="#TimesNewRomanPSMT-69" transform="translate(211.035156 0)"/>
       <use xlink:href="#TimesNewRomanPSMT-6d" transform="translate(238.818359 0)"/>
       <use xlink:href="#TimesNewRomanPSMT-61" transform="translate(316.601562 0)"/>
       <use xlink:href="#TimesNewRomanPSMT-63" transform="translate(360.986328 0)"/>
       <use xlink:href="#TimesNewRomanPSMT-79" transform="translate(405.371094 0)"/>
      </g>
      <!-- ($a_8$) -->
      <g transform="translate(36.908203 173.473904) scale(0.075 -0.075)">
       <defs>
        <path id="DejaVuSans-38" d="M 2034 2216 
Q 1584 2216 1326 1975 
Q 1069 1734 1069 1313 
Q 1069 891 1326 650 
Q 1584 409 2034 409 
Q 2484 409 2743 651 
Q 3003 894 3003 1313 
Q 3003 1734 2745 1975 
Q 2488 2216 2034 2216 
z
M 1403 2484 
Q 997 2584 770 2862 
Q 544 3141 544 3541 
Q 544 4100 942 4425 
Q 1341 4750 2034 4750 
Q 2731 4750 3128 4425 
Q 3525 4100 3525 3541 
Q 3525 3141 3298 2862 
Q 3072 2584 2669 2484 
Q 3125 2378 3379 2068 
Q 3634 1759 3634 1313 
Q 3634 634 3220 271 
Q 2806 -91 2034 -91 
Q 1263 -91 848 271 
Q 434 634 434 1313 
Q 434 1759 690 2068 
Q 947 2378 1403 2484 
z
M 1172 3481 
Q 1172 3119 1398 2916 
Q 1625 2713 2034 2713 
Q 2441 2713 2670 2916 
Q 2900 3119 2900 3481 
Q 2900 3844 2670 4047 
Q 2441 4250 2034 4250 
Q 1625 4250 1398 4047 
Q 1172 3844 1172 3481 
z
" transform="scale(0.015625)"/>
       </defs>
       <use xlink:href="#TimesNewRomanPSMT-28" transform="translate(0 0.5625)"/>
       <use xlink:href="#DejaVuSans-Oblique-61" transform="translate(33.300781 0.5625)"/>
       <use xlink:href="#DejaVuSans-38" transform="translate(94.580078 -15.84375) scale(0.7)"/>
       <use xlink:href="#TimesNewRomanPSMT-29" transform="translate(141.850586 0.5625)"/>
      </g>
     </g>
    </g>
    <g id="ytick_9">
     <g id="line2d_9">
      <g>
       <use xlink:href="#m3f05c65eea" x="57.108203" y="184.713091" style="stroke: #000000; stroke-width: 0.8"/>
      </g>
     </g>
     <g id="text_9">
      <!-- Epistemic -->
      <g transform="translate(20.115234 183.889849) scale(0.075 -0.075)">
       <defs>
        <path id="TimesNewRomanPSMT-45" d="M 1338 4006 
L 1338 2331 
L 2269 2331 
Q 2631 2331 2753 2441 
Q 2916 2584 2934 2947 
L 3050 2947 
L 3050 1472 
L 2934 1472 
Q 2891 1781 2847 1869 
Q 2791 1978 2662 2040 
Q 2534 2103 2269 2103 
L 1338 2103 
L 1338 706 
Q 1338 425 1363 364 
Q 1388 303 1450 267 
Q 1513 231 1688 231 
L 2406 231 
Q 2766 231 2928 281 
Q 3091 331 3241 478 
Q 3434 672 3638 1063 
L 3763 1063 
L 3397 0 
L 131 0 
L 131 116 
L 281 116 
Q 431 116 566 188 
Q 666 238 702 338 
Q 738 438 738 747 
L 738 3500 
Q 738 3903 656 3997 
Q 544 4122 281 4122 
L 131 4122 
L 131 4238 
L 3397 4238 
L 3444 3309 
L 3322 3309 
Q 3256 3644 3176 3769 
Q 3097 3894 2941 3959 
Q 2816 4006 2500 4006 
L 1338 4006 
z
" transform="scale(0.015625)"/>
        <path id="TimesNewRomanPSMT-70" d="M -6 2578 
L 875 2934 
L 994 2934 
L 994 2266 
Q 1216 2644 1439 2795 
Q 1663 2947 1909 2947 
Q 2341 2947 2628 2609 
Q 2981 2197 2981 1534 
Q 2981 794 2556 309 
Q 2206 -88 1675 -88 
Q 1444 -88 1275 -22 
Q 1150 25 994 166 
L 994 -706 
Q 994 -1000 1030 -1079 
Q 1066 -1159 1155 -1206 
Q 1244 -1253 1478 -1253 
L 1478 -1369 
L -22 -1369 
L -22 -1253 
L 56 -1253 
Q 228 -1256 350 -1188 
Q 409 -1153 442 -1076 
Q 475 -1000 475 -688 
L 475 2019 
Q 475 2297 450 2372 
Q 425 2447 370 2484 
Q 316 2522 222 2522 
Q 147 2522 31 2478 
L -6 2578 
z
M 994 2081 
L 994 1013 
Q 994 666 1022 556 
Q 1066 375 1236 237 
Q 1406 100 1666 100 
Q 1978 100 2172 344 
Q 2425 663 2425 1241 
Q 2425 1897 2138 2250 
Q 1938 2494 1663 2494 
Q 1513 2494 1366 2419 
Q 1253 2363 994 2081 
z
" transform="scale(0.015625)"/>
       </defs>
       <use xlink:href="#TimesNewRomanPSMT-45"/>
       <use xlink:href="#TimesNewRomanPSMT-70" transform="translate(61.083984 0)"/>
       <use xlink:href="#TimesNewRomanPSMT-69" transform="translate(111.083984 0)"/>
       <use xlink:href="#TimesNewRomanPSMT-73" transform="translate(138.867188 0)"/>
       <use xlink:href="#TimesNewRomanPSMT-74" transform="translate(177.783203 0)"/>
       <use xlink:href="#TimesNewRomanPSMT-65" transform="translate(205.566406 0)"/>
       <use xlink:href="#TimesNewRomanPSMT-6d" transform="translate(249.951172 0)"/>
       <use xlink:href="#TimesNewRomanPSMT-69" transform="translate(327.734375 0)"/>
       <use xlink:href="#TimesNewRomanPSMT-63" transform="translate(355.517578 0)"/>
      </g>
      <!-- ($a_9$) -->
      <g transform="translate(36.908203 191.794146) scale(0.075 -0.075)">
       <defs>
        <path id="DejaVuSans-39" d="M 703 97 
L 703 672 
Q 941 559 1184 500 
Q 1428 441 1663 441 
Q 2288 441 2617 861 
Q 2947 1281 2994 2138 
Q 2813 1869 2534 1725 
Q 2256 1581 1919 1581 
Q 1219 1581 811 2004 
Q 403 2428 403 3163 
Q 403 3881 828 4315 
Q 1253 4750 1959 4750 
Q 2769 4750 3195 4129 
Q 3622 3509 3622 2328 
Q 3622 1225 3098 567 
Q 2575 -91 1691 -91 
Q 1453 -91 1209 -44 
Q 966 3 703 97 
z
M 1959 2075 
Q 2384 2075 2632 2365 
Q 2881 2656 2881 3163 
Q 2881 3666 2632 3958 
Q 2384 4250 1959 4250 
Q 1534 4250 1286 3958 
Q 1038 3666 1038 3163 
Q 1038 2656 1286 2365 
Q 1534 2075 1959 2075 
z
" transform="scale(0.015625)"/>
       </defs>
       <use xlink:href="#TimesNewRomanPSMT-28" transform="translate(0 0.5625)"/>
       <use xlink:href="#DejaVuSans-Oblique-61" transform="translate(33.300781 0.5625)"/>
       <use xlink:href="#DejaVuSans-39" transform="translate(94.580078 -15.84375) scale(0.7)"/>
       <use xlink:href="#TimesNewRomanPSMT-29" transform="translate(141.850586 0.5625)"/>
      </g>
     </g>
    </g>
   </g>
   <g id="patch_12">
    <path d="M 57.108203 200.108 
L 57.108203 22.7 
" style="fill: none; stroke: #000000; stroke-width: 0.8; stroke-linejoin: miter; stroke-linecap: square"/>
   </g>
   <g id="patch_13">
    <path d="M 57.108203 200.108 
L 196.608203 200.108 
" style="fill: none; stroke: #000000; stroke-width: 0.8; stroke-linejoin: miter; stroke-linecap: square"/>
   </g>
   <g id="text_10">
    <!-- $d_{gain} = 1$ -->
    <g style="fill: #2ca02c" transform="translate(106.658203 199.374909) scale(0.1 -0.1)">
     <defs>
      <path id="DejaVuSans-Oblique-64" d="M 2675 525 
Q 2444 222 2128 65 
Q 1813 -91 1428 -91 
Q 903 -91 598 267 
Q 294 625 294 1247 
Q 294 1766 478 2236 
Q 663 2706 1013 3078 
Q 1244 3325 1534 3454 
Q 1825 3584 2144 3584 
Q 2481 3584 2739 3421 
Q 2997 3259 3138 2956 
L 3513 4863 
L 4091 4863 
L 3144 0 
L 2566 0 
L 2675 525 
z
M 891 1350 
Q 891 897 1095 644 
Q 1300 391 1663 391 
Q 1931 391 2161 520 
Q 2391 650 2566 903 
Q 2750 1166 2856 1509 
Q 2963 1853 2963 2188 
Q 2963 2622 2758 2865 
Q 2553 3109 2194 3109 
Q 1922 3109 1687 2981 
Q 1453 2853 1288 2613 
Q 1106 2353 998 2009 
Q 891 1666 891 1350 
z
" transform="scale(0.015625)"/>
      <path id="DejaVuSans-Oblique-67" d="M 3816 3500 
L 3219 434 
Q 3047 -456 2561 -893 
Q 2075 -1331 1253 -1331 
Q 950 -1331 690 -1286 
Q 431 -1241 206 -1147 
L 313 -588 
Q 525 -725 762 -790 
Q 1000 -856 1269 -856 
Q 1816 -856 2167 -557 
Q 2519 -259 2631 300 
L 2681 563 
Q 2441 288 2122 144 
Q 1803 0 1434 0 
Q 903 0 598 351 
Q 294 703 294 1319 
Q 294 1803 478 2267 
Q 663 2731 997 3091 
Q 1219 3328 1514 3456 
Q 1809 3584 2131 3584 
Q 2484 3584 2746 3420 
Q 3009 3256 3138 2956 
L 3238 3500 
L 3816 3500 
z
M 2950 2216 
Q 2950 2641 2750 2872 
Q 2550 3103 2181 3103 
Q 1953 3103 1747 3012 
Q 1541 2922 1394 2759 
Q 1156 2491 1023 2127 
Q 891 1763 891 1375 
Q 891 944 1092 712 
Q 1294 481 1672 481 
Q 2219 481 2584 976 
Q 2950 1472 2950 2216 
z
" transform="scale(0.015625)"/>
      <path id="DejaVuSans-Oblique-69" d="M 1172 4863 
L 1747 4863 
L 1606 4134 
L 1031 4134 
L 1172 4863 
z
M 909 3500 
L 1484 3500 
L 800 0 
L 225 0 
L 909 3500 
z
" transform="scale(0.015625)"/>
      <path id="DejaVuSans-Oblique-6e" d="M 3566 2113 
L 3156 0 
L 2578 0 
L 2988 2091 
Q 3016 2238 3031 2350 
Q 3047 2463 3047 2528 
Q 3047 2791 2881 2937 
Q 2716 3084 2419 3084 
Q 1956 3084 1622 2776 
Q 1288 2469 1184 1941 
L 800 0 
L 225 0 
L 903 3500 
L 1478 3500 
L 1363 2950 
Q 1603 3253 1940 3418 
Q 2278 3584 2650 3584 
Q 3113 3584 3367 3334 
Q 3622 3084 3622 2631 
Q 3622 2519 3608 2391 
Q 3594 2263 3566 2113 
z
" transform="scale(0.015625)"/>
      <path id="DejaVuSans-3d" d="M 678 2906 
L 4684 2906 
L 4684 2381 
L 678 2381 
L 678 2906 
z
M 678 1631 
L 4684 1631 
L 4684 1100 
L 678 1100 
L 678 1631 
z
" transform="scale(0.015625)"/>
     </defs>
     <use xlink:href="#DejaVuSans-Oblique-64" transform="translate(0 0.015625)"/>
     <use xlink:href="#DejaVuSans-Oblique-67" transform="translate(63.476562 -16.390625) scale(0.7)"/>
     <use xlink:href="#DejaVuSans-Oblique-61" transform="translate(107.910156 -16.390625) scale(0.7)"/>
     <use xlink:href="#DejaVuSans-Oblique-69" transform="translate(150.805664 -16.390625) scale(0.7)"/>
     <use xlink:href="#DejaVuSans-Oblique-6e" transform="translate(170.253906 -16.390625) scale(0.7)"/>
     <use xlink:href="#DejaVuSans-3d" transform="translate(236.835938 0.015625)"/>
     <use xlink:href="#DejaVuSans-31" transform="translate(340.107422 0.015625)"/>
    </g>
   </g>
   <g id="text_11">
    <!-- (a) Monetary Gain of $\delta$ -->
    <g transform="translate(77.108203 14.7) scale(0.1 -0.1)">
     <defs>
      <path id="TimesNewRomanPS-BoldMT-28" d="M 2056 4334 
L 2056 4191 
Q 1731 3978 1578 3775 
Q 1366 3494 1247 3053 
Q 1097 2506 1097 1525 
Q 1097 600 1233 87 
Q 1369 -425 1603 -741 
Q 1766 -959 2056 -1125 
L 2056 -1281 
Q 1303 -1028 779 -248 
Q 256 531 256 1544 
Q 256 2544 778 3314 
Q 1300 4084 2056 4334 
z
" transform="scale(0.015625)"/>
      <path id="TimesNewRomanPS-BoldMT-61" d="M 1828 431 
Q 1294 -41 869 -41 
Q 619 -41 453 123 
Q 288 288 288 534 
Q 288 869 575 1136 
Q 863 1403 1828 1847 
L 1828 2141 
Q 1828 2472 1792 2558 
Q 1756 2644 1656 2708 
Q 1556 2772 1431 2772 
Q 1228 2772 1097 2681 
Q 1016 2625 1016 2550 
Q 1016 2484 1103 2388 
Q 1222 2253 1222 2128 
Q 1222 1975 1108 1867 
Q 994 1759 809 1759 
Q 613 1759 480 1878 
Q 347 1997 347 2156 
Q 347 2381 525 2586 
Q 703 2791 1022 2900 
Q 1341 3009 1684 3009 
Q 2100 3009 2342 2832 
Q 2584 2656 2656 2450 
Q 2700 2319 2700 1847 
L 2700 713 
Q 2700 513 2715 461 
Q 2731 409 2762 384 
Q 2794 359 2834 359 
Q 2916 359 3000 475 
L 3094 400 
Q 2938 169 2770 64 
Q 2603 -41 2391 -41 
Q 2141 -41 2000 76 
Q 1859 194 1828 431 
z
M 1828 659 
L 1828 1638 
Q 1450 1416 1266 1163 
Q 1144 994 1144 822 
Q 1144 678 1247 569 
Q 1325 484 1466 484 
Q 1622 484 1828 659 
z
" transform="scale(0.015625)"/>
      <path id="TimesNewRomanPS-BoldMT-29" d="M 78 -1281 
L 78 -1138 
Q 403 -922 556 -719 
Q 766 -438 888 0 
Q 1038 550 1038 1531 
Q 1038 2456 902 2967 
Q 766 3478 531 3794 
Q 369 4013 78 4178 
L 78 4334 
Q 831 4081 1354 3301 
Q 1878 2522 1878 1509 
Q 1878 513 1354 -257 
Q 831 -1028 78 -1281 
z
" transform="scale(0.015625)"/>
      <path id="TimesNewRomanPS-BoldMT-20" transform="scale(0.015625)"/>
      <path id="TimesNewRomanPS-BoldMT-4d" d="M 3050 1444 
L 4200 4238 
L 5925 4238 
L 5925 4122 
L 5788 4122 
Q 5600 4122 5488 4056 
Q 5409 4013 5363 3909 
Q 5328 3834 5328 3519 
L 5328 725 
Q 5328 400 5362 319 
Q 5397 238 5503 177 
Q 5609 116 5788 116 
L 5925 116 
L 5925 0 
L 3713 0 
L 3713 116 
L 3850 116 
Q 4038 116 4150 181 
Q 4228 225 4275 331 
Q 4309 406 4309 725 
L 4309 3866 
L 2684 0 
L 2609 0 
L 959 3838 
L 959 853 
Q 959 541 975 469 
Q 1016 313 1152 214 
Q 1288 116 1578 116 
L 1578 0 
L 128 0 
L 128 116 
L 172 116 
Q 313 113 434 161 
Q 556 209 618 290 
Q 681 372 716 519 
Q 722 553 722 838 
L 722 3519 
Q 722 3841 687 3920 
Q 653 4000 547 4061 
Q 441 4122 263 4122 
L 128 4122 
L 128 4238 
L 1859 4238 
L 3050 1444 
z
" transform="scale(0.015625)"/>
      <path id="TimesNewRomanPS-BoldMT-6f" d="M 1594 3009 
Q 1975 3009 2303 2812 
Q 2631 2616 2801 2253 
Q 2972 1891 2972 1459 
Q 2972 838 2656 419 
Q 2275 -88 1603 -88 
Q 944 -88 587 375 
Q 231 838 231 1447 
Q 231 2075 595 2542 
Q 959 3009 1594 3009 
z
M 1606 2788 
Q 1447 2788 1333 2667 
Q 1219 2547 1183 2192 
Q 1147 1838 1147 1206 
Q 1147 872 1191 581 
Q 1225 359 1337 243 
Q 1450 128 1594 128 
Q 1734 128 1828 206 
Q 1950 313 1991 503 
Q 2053 800 2053 1703 
Q 2053 2234 1993 2432 
Q 1934 2631 1819 2722 
Q 1738 2788 1606 2788 
z
" transform="scale(0.015625)"/>
      <path id="TimesNewRomanPS-BoldMT-6e" d="M 1409 2922 
L 1409 2544 
Q 1634 2788 1840 2898 
Q 2047 3009 2284 3009 
Q 2569 3009 2756 2851 
Q 2944 2694 3006 2459 
Q 3056 2281 3056 1775 
L 3056 638 
Q 3056 300 3117 217 
Q 3178 134 3372 113 
L 3372 0 
L 1894 0 
L 1894 113 
Q 2059 134 2131 250 
Q 2181 328 2181 638 
L 2181 1938 
Q 2181 2297 2153 2390 
Q 2125 2484 2058 2536 
Q 1991 2588 1909 2588 
Q 1641 2588 1409 2203 
L 1409 638 
Q 1409 309 1470 221 
Q 1531 134 1697 113 
L 1697 0 
L 219 0 
L 219 113 
Q 403 131 481 231 
Q 534 300 534 638 
L 534 2288 
Q 534 2619 473 2700 
Q 413 2781 219 2806 
L 219 2922 
L 1409 2922 
z
" transform="scale(0.015625)"/>
      <path id="TimesNewRomanPS-BoldMT-65" d="M 2691 1566 
L 1088 1566 
Q 1116 984 1397 647 
Q 1613 388 1916 388 
Q 2103 388 2256 492 
Q 2409 597 2584 869 
L 2691 800 
Q 2453 316 2165 114 
Q 1878 -88 1500 -88 
Q 850 -88 516 413 
Q 247 816 247 1413 
Q 247 2144 642 2576 
Q 1038 3009 1569 3009 
Q 2013 3009 2339 2645 
Q 2666 2281 2691 1566 
z
M 1922 1775 
Q 1922 2278 1867 2465 
Q 1813 2653 1697 2750 
Q 1631 2806 1522 2806 
Q 1359 2806 1256 2647 
Q 1072 2369 1072 1884 
L 1072 1775 
L 1922 1775 
z
" transform="scale(0.015625)"/>
      <path id="TimesNewRomanPS-BoldMT-74" d="M 1375 3991 
L 1375 2922 
L 2069 2922 
L 2069 2613 
L 1375 2613 
L 1375 809 
Q 1375 556 1398 482 
Q 1422 409 1481 364 
Q 1541 319 1591 319 
Q 1794 319 1975 628 
L 2069 559 
Q 1816 -41 1247 -41 
Q 969 -41 776 114 
Q 584 269 531 459 
Q 500 566 500 1034 
L 500 2613 
L 119 2613 
L 119 2722 
Q 513 3000 789 3306 
Q 1066 3613 1272 3991 
L 1375 3991 
z
" transform="scale(0.015625)"/>
      <path id="TimesNewRomanPS-BoldMT-72" d="M 1428 2922 
L 1428 2259 
Q 1719 2713 1937 2861 
Q 2156 3009 2359 3009 
Q 2534 3009 2639 2901 
Q 2744 2794 2744 2597 
Q 2744 2388 2642 2272 
Q 2541 2156 2397 2156 
Q 2231 2156 2109 2262 
Q 1988 2369 1966 2381 
Q 1934 2400 1894 2400 
Q 1803 2400 1722 2331 
Q 1594 2225 1528 2028 
Q 1428 1725 1428 1359 
L 1428 688 
L 1431 513 
Q 1431 334 1453 284 
Q 1491 200 1564 161 
Q 1638 122 1813 113 
L 1813 0 
L 234 0 
L 234 113 
Q 425 128 492 217 
Q 559 306 559 688 
L 559 2303 
Q 559 2553 534 2622 
Q 503 2709 443 2750 
Q 384 2791 234 2806 
L 234 2922 
L 1428 2922 
z
" transform="scale(0.015625)"/>
      <path id="TimesNewRomanPS-BoldMT-79" d="M 1556 -119 
L 613 2047 
Q 400 2538 298 2650 
Q 197 2763 53 2806 
L 53 2922 
L 1606 2922 
L 1606 2806 
Q 1453 2800 1390 2747 
Q 1328 2694 1328 2619 
Q 1328 2500 1484 2150 
L 1984 1006 
L 2325 1891 
Q 2509 2363 2509 2547 
Q 2509 2663 2432 2731 
Q 2356 2800 2163 2806 
L 2163 2922 
L 3141 2922 
L 3141 2806 
Q 2997 2791 2906 2695 
Q 2816 2600 2603 2047 
L 1769 -119 
Q 1453 -931 1300 -1119 
Q 1084 -1381 759 -1381 
Q 500 -1381 339 -1232 
Q 178 -1084 178 -875 
Q 178 -694 289 -575 
Q 400 -456 563 -456 
Q 719 -456 814 -556 
Q 909 -656 913 -866 
Q 916 -984 941 -1019 
Q 966 -1053 1013 -1053 
Q 1088 -1053 1172 -963 
Q 1297 -831 1466 -363 
L 1556 -119 
z
" transform="scale(0.015625)"/>
      <path id="TimesNewRomanPS-BoldMT-47" d="M 4416 4334 
L 4416 2841 
L 4300 2841 
Q 4091 3453 3672 3772 
Q 3253 4091 2756 4091 
Q 2281 4091 1965 3823 
Q 1650 3556 1519 3078 
Q 1388 2600 1388 2097 
Q 1388 1488 1531 1028 
Q 1675 569 1995 353 
Q 2316 138 2756 138 
Q 2909 138 3070 170 
Q 3231 203 3400 266 
L 3400 1147 
Q 3400 1397 3365 1470 
Q 3331 1544 3223 1603 
Q 3116 1663 2963 1663 
L 2853 1663 
L 2853 1778 
L 4913 1778 
L 4913 1663 
Q 4678 1647 4586 1598 
Q 4494 1550 4444 1438 
Q 4416 1378 4416 1147 
L 4416 266 
Q 4009 84 3570 -8 
Q 3131 -100 2659 -100 
Q 2056 -100 1657 64 
Q 1259 228 954 495 
Q 650 763 478 1097 
Q 259 1528 259 2063 
Q 259 3019 931 3678 
Q 1603 4338 2622 4338 
Q 2938 4338 3191 4288 
Q 3328 4263 3636 4145 
Q 3944 4028 4000 4028 
Q 4088 4028 4163 4092 
Q 4238 4156 4300 4334 
L 4416 4334 
z
" transform="scale(0.015625)"/>
      <path id="TimesNewRomanPS-BoldMT-69" d="M 919 4338 
Q 1122 4338 1262 4195 
Q 1403 4053 1403 3853 
Q 1403 3653 1261 3512 
Q 1119 3372 919 3372 
Q 719 3372 578 3512 
Q 438 3653 438 3853 
Q 438 4053 578 4195 
Q 719 4338 919 4338 
z
M 1356 2922 
L 1356 606 
Q 1356 297 1428 211 
Q 1500 125 1709 113 
L 1709 0 
L 131 0 
L 131 113 
Q 325 119 419 225 
Q 481 297 481 606 
L 481 2313 
Q 481 2622 409 2708 
Q 338 2794 131 2806 
L 131 2922 
L 1356 2922 
z
" transform="scale(0.015625)"/>
      <path id="TimesNewRomanPS-BoldMT-66" d="M 1497 2616 
L 1497 588 
Q 1497 294 1559 219 
Q 1659 103 1928 113 
L 1928 0 
L 206 0 
L 206 113 
Q 403 116 486 158 
Q 569 200 600 275 
Q 631 350 631 588 
L 631 2616 
L 206 2616 
L 206 2922 
L 631 2922 
L 631 3138 
L 628 3284 
Q 628 3734 958 4034 
Q 1288 4334 1850 4334 
Q 2234 4334 2420 4190 
Q 2606 4047 2606 3872 
Q 2606 3731 2490 3628 
Q 2375 3525 2184 3525 
Q 2022 3525 1926 3609 
Q 1831 3694 1831 3797 
Q 1831 3825 1850 3913 
Q 1863 3966 1863 4013 
Q 1863 4078 1825 4109 
Q 1775 4156 1703 4156 
Q 1613 4156 1552 4081 
Q 1491 4006 1491 3841 
L 1497 3294 
L 1497 2922 
L 1928 2922 
L 1928 2616 
L 1497 2616 
z
" transform="scale(0.015625)"/>
      <path id="DejaVuSans-Oblique-3b4" d="M 3472 4053 
Q 3197 4272 2450 4272 
Q 1659 4272 1588 3906 
Q 1531 3619 2328 3469 
Q 2953 3353 3253 3003 
Q 3616 2581 3447 1716 
Q 3284 888 2763 400 
Q 2238 -91 1488 -91 
Q 741 -91 406 400 
Q 72 888 241 1747 
Q 363 2384 891 2900 
Q 1097 3100 1353 3213 
Q 913 3459 1000 3900 
Q 1166 4750 2544 4750 
Q 3234 4750 3566 4531 
L 3472 4053 
z
M 1753 3056 
Q 1525 2966 1306 2738 
Q 969 2384 847 1747 
Q 722 1113 919 756 
Q 1119 397 1584 397 
Q 2044 397 2381 759 
Q 2722 1122 2838 1716 
Q 2956 2338 2731 2638 
Q 2491 2959 2103 2994 
Q 1906 3013 1753 3056 
z
" transform="scale(0.015625)"/>
     </defs>
     <use xlink:href="#TimesNewRomanPS-BoldMT-28" transform="translate(0 0.78125)"/>
     <use xlink:href="#TimesNewRomanPS-BoldMT-61" transform="translate(33.300781 0.78125)"/>
     <use xlink:href="#TimesNewRomanPS-BoldMT-29" transform="translate(83.300781 0.78125)"/>
     <use xlink:href="#TimesNewRomanPS-BoldMT-20" transform="translate(116.601562 0.78125)"/>
     <use xlink:href="#TimesNewRomanPS-BoldMT-4d" transform="translate(141.601562 0.78125)"/>
     <use xlink:href="#TimesNewRomanPS-BoldMT-6f" transform="translate(235.986328 0.78125)"/>
     <use xlink:href="#TimesNewRomanPS-BoldMT-6e" transform="translate(285.986328 0.78125)"/>
     <use xlink:href="#TimesNewRomanPS-BoldMT-65" transform="translate(341.601562 0.78125)"/>
     <use xlink:href="#TimesNewRomanPS-BoldMT-74" transform="translate(385.986328 0.78125)"/>
     <use xlink:href="#TimesNewRomanPS-BoldMT-61" transform="translate(419.287109 0.78125)"/>
     <use xlink:href="#TimesNewRomanPS-BoldMT-72" transform="translate(469.287109 0.78125)"/>
     <use xlink:href="#TimesNewRomanPS-BoldMT-79" transform="translate(513.671875 0.78125)"/>
     <use xlink:href="#TimesNewRomanPS-BoldMT-20" transform="translate(563.671875 0.78125)"/>
     <use xlink:href="#TimesNewRomanPS-BoldMT-47" transform="translate(588.671875 0.78125)"/>
     <use xlink:href="#TimesNewRomanPS-BoldMT-61" transform="translate(666.455078 0.78125)"/>
     <use xlink:href="#TimesNewRomanPS-BoldMT-69" transform="translate(716.455078 0.78125)"/>
     <use xlink:href="#TimesNewRomanPS-BoldMT-6e" transform="translate(744.238281 0.78125)"/>
     <use xlink:href="#TimesNewRomanPS-BoldMT-20" transform="translate(799.853516 0.78125)"/>
     <use xlink:href="#TimesNewRomanPS-BoldMT-6f" transform="translate(824.853516 0.78125)"/>
     <use xlink:href="#TimesNewRomanPS-BoldMT-66" transform="translate(874.853516 0.78125)"/>
     <use xlink:href="#TimesNewRomanPS-BoldMT-20" transform="translate(908.154297 0.78125)"/>
     <use xlink:href="#DejaVuSans-Oblique-3b4" transform="translate(933.154297 0.78125)"/>
    </g>
   </g>
  </g>
  <g id="axes_2">
   <g id="patch_14">
    <path d="M 252.408203 200.108 
L 391.908203 200.108 
L 391.908203 22.7 
L 252.408203 22.7 
z
" style="fill: #ffffff"/>
   </g>
   <g id="patch_15">
    <path d="M 252.408203 30.764 
L 364.008203 30.764 
L 364.008203 45.425818 
L 252.408203 45.425818 
z
" clip-path="url(#pb7d8f565b9)" style="fill: #d62728; stroke: #a01010; stroke-width: 0.8; stroke-linejoin: miter"/>
   </g>
   <g id="patch_16">
    <path d="M 252.408203 49.091273 
L 364.008203 49.091273 
L 364.008203 63.753091 
L 252.408203 63.753091 
z
" clip-path="url(#pb7d8f565b9)" style="fill: #d62728; stroke: #a01010; stroke-width: 0.8; stroke-linejoin: miter"/>
   </g>
   <g id="patch_17">
    <path d="M 252.408203 67.418545 
L 364.008203 67.418545 
L 364.008203 82.080364 
L 252.408203 82.080364 
z
" clip-path="url(#pb7d8f565b9)" style="fill: #d62728; stroke: #a01010; stroke-width: 0.8; stroke-linejoin: miter"/>
   </g>
   <g id="patch_18">
    <path d="M 252.408203 85.745818 
L 273.333203 85.745818 
L 273.333203 100.407636 
L 252.408203 100.407636 
z
" clip-path="url(#pb7d8f565b9)" style="fill: #e8e8e8; stroke: #cccccc; stroke-width: 0.8; stroke-linejoin: miter"/>
   </g>
   <g id="patch_19">
    <path d="M 252.408203 104.073091 
L 364.008203 104.073091 
L 364.008203 118.734909 
L 252.408203 118.734909 
z
" clip-path="url(#pb7d8f565b9)" style="fill: #d62728; stroke: #a01010; stroke-width: 0.8; stroke-linejoin: miter"/>
   </g>
   <g id="patch_20">
    <path d="M 252.408203 122.400364 
L 364.008203 122.400364 
L 364.008203 137.062182 
L 252.408203 137.062182 
z
" clip-path="url(#pb7d8f565b9)" style="fill: #d62728; stroke: #a01010; stroke-width: 0.8; stroke-linejoin: miter"/>
   </g>
   <g id="patch_21">
    <path d="M 252.408203 140.727636 
L 364.008203 140.727636 
L 364.008203 155.389455 
L 252.408203 155.389455 
z
" clip-path="url(#pb7d8f565b9)" style="fill: #d62728; stroke: #a01010; stroke-width: 0.8; stroke-linejoin: miter"/>
   </g>
   <g id="patch_22">
    <path d="M 252.408203 159.054909 
L 273.333203 159.054909 
L 273.333203 173.716727 
L 252.408203 173.716727 
z
" clip-path="url(#pb7d8f565b9)" style="fill: #e8e8e8; stroke: #cccccc; stroke-width: 0.8; stroke-linejoin: miter"/>
   </g>
   <g id="patch_23">
    <path d="M 252.408203 177.382182 
L 364.008203 177.382182 
L 364.008203 192.044 
L 252.408203 192.044 
z
" clip-path="url(#pb7d8f565b9)" style="fill: #d62728; stroke: #a01010; stroke-width: 0.8; stroke-linejoin: miter"/>
   </g>
   <g id="matplotlib.axis_3"/>
   <g id="matplotlib.axis_4">
    <g id="ytick_10">
     <g id="line2d_10">
      <g>
       <use xlink:href="#m3f05c65eea" x="252.408203" y="38.094909" style="stroke: #000000; stroke-width: 0.8"/>
      </g>
     </g>
     <g id="text_12">
      <!-- Consequences -->
      <g transform="translate(202.5 37.271667) scale(0.075 -0.075)">
       <use xlink:href="#TimesNewRomanPSMT-43"/>
       <use xlink:href="#TimesNewRomanPSMT-6f" transform="translate(66.699219 0)"/>
       <use xlink:href="#TimesNewRomanPSMT-6e" transform="translate(116.699219 0)"/>
       <use xlink:href="#TimesNewRomanPSMT-73" transform="translate(166.699219 0)"/>
       <use xlink:href="#TimesNewRomanPSMT-65" transform="translate(205.615234 0)"/>
       <use xlink:href="#TimesNewRomanPSMT-71" transform="translate(250 0)"/>
       <use xlink:href="#TimesNewRomanPSMT-75" transform="translate(300 0)"/>
       <use xlink:href="#TimesNewRomanPSMT-65" transform="translate(350 0)"/>
       <use xlink:href="#TimesNewRomanPSMT-6e" transform="translate(394.384766 0)"/>
       <use xlink:href="#TimesNewRomanPSMT-63" transform="translate(444.384766 0)"/>
       <use xlink:href="#TimesNewRomanPSMT-65" transform="translate(488.769531 0)"/>
       <use xlink:href="#TimesNewRomanPSMT-73" transform="translate(533.154297 0)"/>
      </g>
      <!-- ($a_1$) -->
      <g transform="translate(232.208203 45.175964) scale(0.075 -0.075)">
       <use xlink:href="#TimesNewRomanPSMT-28" transform="translate(0 0.5625)"/>
       <use xlink:href="#DejaVuSans-Oblique-61" transform="translate(33.300781 0.5625)"/>
       <use xlink:href="#DejaVuSans-31" transform="translate(94.580078 -15.84375) scale(0.7)"/>
       <use xlink:href="#TimesNewRomanPSMT-29" transform="translate(141.850586 0.5625)"/>
      </g>
     </g>
    </g>
    <g id="ytick_11">
     <g id="line2d_11">
      <g>
       <use xlink:href="#m3f05c65eea" x="252.408203" y="56.422182" style="stroke: #000000; stroke-width: 0.8"/>
      </g>
     </g>
     <g id="text_13">
      <!-- Rights -->
      <g transform="translate(225.819141 55.591908) scale(0.075 -0.075)">
       <use xlink:href="#TimesNewRomanPSMT-52"/>
       <use xlink:href="#TimesNewRomanPSMT-69" transform="translate(66.699219 0)"/>
       <use xlink:href="#TimesNewRomanPSMT-67" transform="translate(94.482422 0)"/>
       <use xlink:href="#TimesNewRomanPSMT-68" transform="translate(144.482422 0)"/>
       <use xlink:href="#TimesNewRomanPSMT-74" transform="translate(194.482422 0)"/>
       <use xlink:href="#TimesNewRomanPSMT-73" transform="translate(222.265625 0)"/>
      </g>
      <!-- ($a_2$) -->
      <g transform="translate(232.208203 63.510268) scale(0.075 -0.075)">
       <use xlink:href="#TimesNewRomanPSMT-28" transform="translate(0 0.5625)"/>
       <use xlink:href="#DejaVuSans-Oblique-61" transform="translate(33.300781 0.5625)"/>
       <use xlink:href="#DejaVuSans-32" transform="translate(94.580078 -15.84375) scale(0.7)"/>
       <use xlink:href="#TimesNewRomanPSMT-29" transform="translate(141.850586 0.5625)"/>
      </g>
     </g>
    </g>
    <g id="ytick_12">
     <g id="line2d_12">
      <g>
       <use xlink:href="#m3f05c65eea" x="252.408203" y="74.749455" style="stroke: #000000; stroke-width: 0.8"/>
      </g>
     </g>
     <g id="text_14">
      <!-- Fairness -->
      <g transform="translate(220.409766 73.926212) scale(0.075 -0.075)">
       <use xlink:href="#TimesNewRomanPSMT-46"/>
       <use xlink:href="#TimesNewRomanPSMT-61" transform="translate(55.615234 0)"/>
       <use xlink:href="#TimesNewRomanPSMT-69" transform="translate(100 0)"/>
       <use xlink:href="#TimesNewRomanPSMT-72" transform="translate(127.783203 0)"/>
       <use xlink:href="#TimesNewRomanPSMT-6e" transform="translate(161.083984 0)"/>
       <use xlink:href="#TimesNewRomanPSMT-65" transform="translate(211.083984 0)"/>
       <use xlink:href="#TimesNewRomanPSMT-73" transform="translate(255.46875 0)"/>
       <use xlink:href="#TimesNewRomanPSMT-73" transform="translate(294.384766 0)"/>
      </g>
      <!-- ($a_3$) -->
      <g transform="translate(232.208203 81.830509) scale(0.075 -0.075)">
       <use xlink:href="#TimesNewRomanPSMT-28" transform="translate(0 0.5625)"/>
       <use xlink:href="#DejaVuSans-Oblique-61" transform="translate(33.300781 0.5625)"/>
       <use xlink:href="#DejaVuSans-33" transform="translate(94.580078 -15.84375) scale(0.7)"/>
       <use xlink:href="#TimesNewRomanPSMT-29" transform="translate(141.850586 0.5625)"/>
      </g>
     </g>
    </g>
    <g id="ytick_13">
     <g id="line2d_13">
      <g>
       <use xlink:href="#m3f05c65eea" x="252.408203" y="93.076727" style="stroke: #000000; stroke-width: 0.8"/>
      </g>
     </g>
     <g id="text_15">
      <!-- Autonomy -->
      <g transform="translate(213.324609 92.239423) scale(0.075 -0.075)">
       <use xlink:href="#TimesNewRomanPSMT-41"/>
       <use xlink:href="#TimesNewRomanPSMT-75" transform="translate(72.216797 0)"/>
       <use xlink:href="#TimesNewRomanPSMT-74" transform="translate(122.216797 0)"/>
       <use xlink:href="#TimesNewRomanPSMT-6f" transform="translate(150 0)"/>
       <use xlink:href="#TimesNewRomanPSMT-6e" transform="translate(200 0)"/>
       <use xlink:href="#TimesNewRomanPSMT-6f" transform="translate(250 0)"/>
       <use xlink:href="#TimesNewRomanPSMT-6d" transform="translate(300 0)"/>
       <use xlink:href="#TimesNewRomanPSMT-79" transform="translate(377.783203 0)"/>
      </g>
      <!-- ($a_4$) -->
      <g transform="translate(232.208203 100.157782) scale(0.075 -0.075)">
       <use xlink:href="#TimesNewRomanPSMT-28" transform="translate(0 0.5625)"/>
       <use xlink:href="#DejaVuSans-Oblique-61" transform="translate(33.300781 0.5625)"/>
       <use xlink:href="#DejaVuSans-34" transform="translate(94.580078 -15.84375) scale(0.7)"/>
       <use xlink:href="#TimesNewRomanPSMT-29" transform="translate(141.850586 0.5625)"/>
      </g>
     </g>
    </g>
    <g id="ytick_14">
     <g id="line2d_14">
      <g>
       <use xlink:href="#m3f05c65eea" x="252.408203" y="111.404" style="stroke: #000000; stroke-width: 0.8"/>
      </g>
     </g>
     <g id="text_16">
      <!-- Trust -->
      <g transform="translate(229.839844 110.580758) scale(0.075 -0.075)">
       <use xlink:href="#TimesNewRomanPSMT-54"/>
       <use xlink:href="#TimesNewRomanPSMT-72" transform="translate(57.583984 0)"/>
       <use xlink:href="#TimesNewRomanPSMT-75" transform="translate(90.884766 0)"/>
       <use xlink:href="#TimesNewRomanPSMT-73" transform="translate(140.884766 0)"/>
       <use xlink:href="#TimesNewRomanPSMT-74" transform="translate(179.800781 0)"/>
      </g>
      <!-- ($a_5$) -->
      <g transform="translate(232.208203 118.485055) scale(0.075 -0.075)">
       <use xlink:href="#TimesNewRomanPSMT-28" transform="translate(0 0.5625)"/>
       <use xlink:href="#DejaVuSans-Oblique-61" transform="translate(33.300781 0.5625)"/>
       <use xlink:href="#DejaVuSans-35" transform="translate(94.580078 -15.84375) scale(0.7)"/>
       <use xlink:href="#TimesNewRomanPSMT-29" transform="translate(141.850586 0.5625)"/>
      </g>
     </g>
    </g>
    <g id="ytick_15">
     <g id="line2d_15">
      <g>
       <use xlink:href="#m3f05c65eea" x="252.408203" y="129.731273" style="stroke: #000000; stroke-width: 0.8"/>
      </g>
     </g>
     <g id="text_17">
      <!-- Social -->
      <g transform="translate(226.661719 128.908031) scale(0.075 -0.075)">
       <use xlink:href="#TimesNewRomanPSMT-53"/>
       <use xlink:href="#TimesNewRomanPSMT-6f" transform="translate(55.615234 0)"/>
       <use xlink:href="#TimesNewRomanPSMT-63" transform="translate(105.615234 0)"/>
       <use xlink:href="#TimesNewRomanPSMT-69" transform="translate(150 0)"/>
       <use xlink:href="#TimesNewRomanPSMT-61" transform="translate(177.783203 0)"/>
       <use xlink:href="#TimesNewRomanPSMT-6c" transform="translate(222.167969 0)"/>
      </g>
      <!-- ($a_6$) -->
      <g transform="translate(232.208203 136.812327) scale(0.075 -0.075)">
       <use xlink:href="#TimesNewRomanPSMT-28" transform="translate(0 0.5625)"/>
       <use xlink:href="#DejaVuSans-Oblique-61" transform="translate(33.300781 0.5625)"/>
       <use xlink:href="#DejaVuSans-36" transform="translate(94.580078 -15.84375) scale(0.7)"/>
       <use xlink:href="#TimesNewRomanPSMT-29" transform="translate(141.850586 0.5625)"/>
      </g>
     </g>
    </g>
    <g id="ytick_16">
     <g id="line2d_16">
      <g>
       <use xlink:href="#m3f05c65eea" x="252.408203" y="148.058545" style="stroke: #000000; stroke-width: 0.8"/>
      </g>
     </g>
     <g id="text_18">
      <!-- Identity -->
      <g transform="translate(222.080859 147.228272) scale(0.075 -0.075)">
       <use xlink:href="#TimesNewRomanPSMT-49"/>
       <use xlink:href="#TimesNewRomanPSMT-64" transform="translate(33.300781 0)"/>
       <use xlink:href="#TimesNewRomanPSMT-65" transform="translate(83.300781 0)"/>
       <use xlink:href="#TimesNewRomanPSMT-6e" transform="translate(127.685547 0)"/>
       <use xlink:href="#TimesNewRomanPSMT-74" transform="translate(177.685547 0)"/>
       <use xlink:href="#TimesNewRomanPSMT-69" transform="translate(205.46875 0)"/>
       <use xlink:href="#TimesNewRomanPSMT-74" transform="translate(233.251953 0)"/>
       <use xlink:href="#TimesNewRomanPSMT-79" transform="translate(261.035156 0)"/>
      </g>
      <!-- ($a_7$) -->
      <g transform="translate(232.208203 155.146631) scale(0.075 -0.075)">
       <use xlink:href="#TimesNewRomanPSMT-28" transform="translate(0 0.5625)"/>
       <use xlink:href="#DejaVuSans-Oblique-61" transform="translate(33.300781 0.5625)"/>
       <use xlink:href="#DejaVuSans-37" transform="translate(94.580078 -15.84375) scale(0.7)"/>
       <use xlink:href="#TimesNewRomanPSMT-29" transform="translate(141.850586 0.5625)"/>
      </g>
     </g>
    </g>
    <g id="ytick_17">
     <g id="line2d_17">
      <g>
       <use xlink:href="#m3f05c65eea" x="252.408203" y="166.385818" style="stroke: #000000; stroke-width: 0.8"/>
      </g>
     </g>
     <g id="text_19">
      <!-- Legitimacy -->
      <g transform="translate(211.255078 165.555545) scale(0.075 -0.075)">
       <use xlink:href="#TimesNewRomanPSMT-4c"/>
       <use xlink:href="#TimesNewRomanPSMT-65" transform="translate(61.083984 0)"/>
       <use xlink:href="#TimesNewRomanPSMT-67" transform="translate(105.46875 0)"/>
       <use xlink:href="#TimesNewRomanPSMT-69" transform="translate(155.46875 0)"/>
       <use xlink:href="#TimesNewRomanPSMT-74" transform="translate(183.251953 0)"/>
       <use xlink:href="#TimesNewRomanPSMT-69" transform="translate(211.035156 0)"/>
       <use xlink:href="#TimesNewRomanPSMT-6d" transform="translate(238.818359 0)"/>
       <use xlink:href="#TimesNewRomanPSMT-61" transform="translate(316.601562 0)"/>
       <use xlink:href="#TimesNewRomanPSMT-63" transform="translate(360.986328 0)"/>
       <use xlink:href="#TimesNewRomanPSMT-79" transform="translate(405.371094 0)"/>
      </g>
      <!-- ($a_8$) -->
      <g transform="translate(232.208203 173.473904) scale(0.075 -0.075)">
       <use xlink:href="#TimesNewRomanPSMT-28" transform="translate(0 0.5625)"/>
       <use xlink:href="#DejaVuSans-Oblique-61" transform="translate(33.300781 0.5625)"/>
       <use xlink:href="#DejaVuSans-38" transform="translate(94.580078 -15.84375) scale(0.7)"/>
       <use xlink:href="#TimesNewRomanPSMT-29" transform="translate(141.850586 0.5625)"/>
      </g>
     </g>
    </g>
    <g id="ytick_18">
     <g id="line2d_18">
      <g>
       <use xlink:href="#m3f05c65eea" x="252.408203" y="184.713091" style="stroke: #000000; stroke-width: 0.8"/>
      </g>
     </g>
     <g id="text_20">
      <!-- Epistemic -->
      <g transform="translate(215.415234 183.889849) scale(0.075 -0.075)">
       <use xlink:href="#TimesNewRomanPSMT-45"/>
       <use xlink:href="#TimesNewRomanPSMT-70" transform="translate(61.083984 0)"/>
       <use xlink:href="#TimesNewRomanPSMT-69" transform="translate(111.083984 0)"/>
       <use xlink:href="#TimesNewRomanPSMT-73" transform="translate(138.867188 0)"/>
       <use xlink:href="#TimesNewRomanPSMT-74" transform="translate(177.783203 0)"/>
       <use xlink:href="#TimesNewRomanPSMT-65" transform="translate(205.566406 0)"/>
       <use xlink:href="#TimesNewRomanPSMT-6d" transform="translate(249.951172 0)"/>
       <use xlink:href="#TimesNewRomanPSMT-69" transform="translate(327.734375 0)"/>
       <use xlink:href="#TimesNewRomanPSMT-63" transform="translate(355.517578 0)"/>
      </g>
      <!-- ($a_9$) -->
      <g transform="translate(232.208203 191.794146) scale(0.075 -0.075)">
       <use xlink:href="#TimesNewRomanPSMT-28" transform="translate(0 0.5625)"/>
       <use xlink:href="#DejaVuSans-Oblique-61" transform="translate(33.300781 0.5625)"/>
       <use xlink:href="#DejaVuSans-39" transform="translate(94.580078 -15.84375) scale(0.7)"/>
       <use xlink:href="#TimesNewRomanPSMT-29" transform="translate(141.850586 0.5625)"/>
      </g>
     </g>
    </g>
   </g>
   <g id="patch_24">
    <path d="M 252.408203 200.108 
L 252.408203 22.7 
" style="fill: none; stroke: #000000; stroke-width: 0.8; stroke-linejoin: miter; stroke-linecap: square"/>
   </g>
   <g id="patch_25">
    <path d="M 252.408203 200.108 
L 391.908203 200.108 
" style="fill: none; stroke: #000000; stroke-width: 0.8; stroke-linejoin: miter; stroke-linecap: square"/>
   </g>
   <g id="text_21">
    <!-- $d_{loss} = 7$ -->
    <g style="fill: #d62728" transform="translate(302.758203 199.374909) scale(0.1 -0.1)">
     <defs>
      <path id="DejaVuSans-Oblique-6c" d="M 1172 4863 
L 1747 4863 
L 800 0 
L 225 0 
L 1172 4863 
z
" transform="scale(0.015625)"/>
      <path id="DejaVuSans-Oblique-6f" d="M 1625 -91 
Q 1009 -91 651 289 
Q 294 669 294 1325 
Q 294 1706 417 2101 
Q 541 2497 738 2766 
Q 1047 3184 1428 3384 
Q 1809 3584 2291 3584 
Q 2888 3584 3255 3212 
Q 3622 2841 3622 2241 
Q 3622 1825 3500 1412 
Q 3378 1000 3181 728 
Q 2875 309 2494 109 
Q 2113 -91 1625 -91 
z
M 891 1344 
Q 891 869 1089 633 
Q 1288 397 1691 397 
Q 2269 397 2648 901 
Q 3028 1406 3028 2181 
Q 3028 2634 2825 2865 
Q 2622 3097 2228 3097 
Q 1903 3097 1650 2945 
Q 1397 2794 1197 2484 
Q 1050 2253 970 1956 
Q 891 1659 891 1344 
z
" transform="scale(0.015625)"/>
      <path id="DejaVuSans-Oblique-73" d="M 3200 3397 
L 3091 2853 
Q 2863 2978 2609 3040 
Q 2356 3103 2088 3103 
Q 1634 3103 1373 2948 
Q 1113 2794 1113 2528 
Q 1113 2219 1719 2053 
Q 1766 2041 1788 2034 
L 1972 1978 
Q 2547 1819 2739 1644 
Q 2931 1469 2931 1166 
Q 2931 609 2489 259 
Q 2047 -91 1331 -91 
Q 1053 -91 747 -37 
Q 441 16 72 128 
L 184 722 
Q 500 559 806 475 
Q 1113 391 1394 391 
Q 1816 391 2080 572 
Q 2344 753 2344 1031 
Q 2344 1331 1650 1516 
L 1591 1531 
L 1394 1581 
Q 956 1697 753 1886 
Q 550 2075 550 2369 
Q 550 2928 970 3256 
Q 1391 3584 2113 3584 
Q 2397 3584 2667 3537 
Q 2938 3491 3200 3397 
z
" transform="scale(0.015625)"/>
     </defs>
     <use xlink:href="#DejaVuSans-Oblique-64" transform="translate(0 0.015625)"/>
     <use xlink:href="#DejaVuSans-Oblique-6c" transform="translate(63.476562 -16.390625) scale(0.7)"/>
     <use xlink:href="#DejaVuSans-Oblique-6f" transform="translate(82.924805 -16.390625) scale(0.7)"/>
     <use xlink:href="#DejaVuSans-Oblique-73" transform="translate(125.751953 -16.390625) scale(0.7)"/>
     <use xlink:href="#DejaVuSans-Oblique-73" transform="translate(162.22168 -16.390625) scale(0.7)"/>
     <use xlink:href="#DejaVuSans-3d" transform="translate(220.908203 0.015625)"/>
     <use xlink:href="#DejaVuSans-37" transform="translate(324.179688 0.015625)"/>
    </g>
   </g>
   <g id="text_22">
    <!-- (b) Loss of Heirloom ($-\delta$) -->
    <g transform="translate(266.258203 14.7) scale(0.1 -0.1)">
     <defs>
      <path id="TimesNewRomanPS-BoldMT-62" d="M 1347 4238 
L 1347 2628 
Q 1716 3009 2153 3009 
Q 2453 3009 2718 2832 
Q 2984 2656 3134 2331 
Q 3284 2006 3284 1581 
Q 3284 1103 3093 712 
Q 2903 322 2584 117 
Q 2266 -88 1856 -88 
Q 1619 -88 1434 -12 
Q 1250 63 1072 231 
L 588 -84 
L 481 -84 
L 481 3631 
Q 481 3884 459 3944 
Q 428 4031 361 4073 
Q 294 4116 134 4122 
L 134 4238 
L 1347 4238 
z
M 1347 2350 
L 1347 1050 
Q 1347 653 1366 544 
Q 1397 359 1515 245 
Q 1634 131 1819 131 
Q 1978 131 2092 222 
Q 2206 313 2282 581 
Q 2359 850 2359 1550 
Q 2359 2222 2191 2472 
Q 2069 2653 1863 2653 
Q 1594 2653 1347 2350 
z
" transform="scale(0.015625)"/>
      <path id="TimesNewRomanPS-BoldMT-4c" d="M 4041 1488 
L 3881 0 
L 119 0 
L 119 116 
L 259 116 
Q 444 116 556 181 
Q 638 225 681 331 
Q 716 406 716 725 
L 716 3513 
Q 716 3838 681 3919 
Q 647 4000 542 4061 
Q 438 4122 259 4122 
L 119 4122 
L 119 4238 
L 2378 4238 
L 2378 4122 
L 2194 4122 
Q 2009 4122 1897 4056 
Q 1816 4013 1769 3906 
Q 1734 3831 1734 3513 
L 1734 813 
Q 1734 488 1771 398 
Q 1809 309 1919 266 
Q 1997 238 2297 238 
L 2650 238 
Q 2988 238 3213 356 
Q 3438 475 3602 731 
Q 3766 988 3913 1488 
L 4041 1488 
z
" transform="scale(0.015625)"/>
      <path id="TimesNewRomanPS-BoldMT-73" d="M 2063 3003 
L 2109 2006 
L 2003 2006 
Q 1813 2450 1608 2612 
Q 1403 2775 1200 2775 
Q 1072 2775 981 2689 
Q 891 2603 891 2491 
Q 891 2406 953 2328 
Q 1053 2200 1512 1889 
Q 1972 1578 2117 1361 
Q 2263 1144 2263 875 
Q 2263 631 2141 397 
Q 2019 163 1797 37 
Q 1575 -88 1306 -88 
Q 1097 -88 747 44 
Q 653 78 619 78 
Q 516 78 447 -78 
L 344 -78 
L 294 972 
L 400 972 
Q 541 559 786 353 
Q 1031 147 1250 147 
Q 1400 147 1495 239 
Q 1591 331 1591 463 
Q 1591 613 1497 722 
Q 1403 831 1078 1053 
Q 600 1384 459 1559 
Q 253 1816 253 2125 
Q 253 2463 486 2736 
Q 719 3009 1159 3009 
Q 1397 3009 1619 2894 
Q 1703 2847 1756 2847 
Q 1813 2847 1847 2870 
Q 1881 2894 1956 3003 
L 2063 3003 
z
" transform="scale(0.015625)"/>
      <path id="TimesNewRomanPS-BoldMT-48" d="M 1750 2038 
L 1750 725 
Q 1750 400 1786 319 
Q 1822 238 1926 177 
Q 2031 116 2209 116 
L 2350 116 
L 2350 0 
L 134 0 
L 134 116 
L 275 116 
Q 459 116 572 181 
Q 653 225 697 331 
Q 731 406 731 725 
L 731 3513 
Q 731 3838 697 3919 
Q 663 4000 558 4061 
Q 453 4122 275 4122 
L 134 4122 
L 134 4238 
L 2350 4238 
L 2350 4122 
L 2209 4122 
Q 2025 4122 1913 4056 
Q 1831 4013 1784 3906 
Q 1750 3831 1750 3513 
L 1750 2313 
L 3247 2313 
L 3247 3513 
Q 3247 3838 3212 3919 
Q 3178 4000 3072 4061 
Q 2966 4122 2788 4122 
L 2650 4122 
L 2650 4238 
L 4863 4238 
L 4863 4122 
L 4725 4122 
Q 4538 4122 4428 4056 
Q 4347 4013 4300 3906 
Q 4266 3831 4266 3513 
L 4266 725 
Q 4266 400 4300 319 
Q 4334 238 4440 177 
Q 4547 116 4725 116 
L 4863 116 
L 4863 0 
L 2650 0 
L 2650 116 
L 2788 116 
Q 2975 116 3084 181 
Q 3166 225 3213 331 
Q 3247 406 3247 725 
L 3247 2038 
L 1750 2038 
z
" transform="scale(0.015625)"/>
      <path id="TimesNewRomanPS-BoldMT-6c" d="M 1359 4238 
L 1359 606 
Q 1359 297 1431 211 
Q 1503 125 1713 113 
L 1713 0 
L 134 0 
L 134 113 
Q 328 119 422 225 
Q 484 297 484 606 
L 484 3631 
Q 484 3938 412 4023 
Q 341 4109 134 4122 
L 134 4238 
L 1359 4238 
z
" transform="scale(0.015625)"/>
      <path id="TimesNewRomanPS-BoldMT-6d" d="M 1428 2922 
L 1428 2538 
Q 1669 2800 1873 2904 
Q 2078 3009 2322 3009 
Q 2603 3009 2793 2878 
Q 2984 2747 3088 2478 
Q 3338 2759 3567 2884 
Q 3797 3009 4047 3009 
Q 4350 3009 4529 2870 
Q 4709 2731 4779 2517 
Q 4850 2303 4850 1834 
L 4850 638 
Q 4850 300 4911 219 
Q 4972 138 5166 113 
L 5166 0 
L 3656 0 
L 3656 113 
Q 3834 128 3919 250 
Q 3975 334 3975 638 
L 3975 1894 
Q 3975 2284 3944 2390 
Q 3913 2497 3845 2548 
Q 3778 2600 3688 2600 
Q 3553 2600 3415 2501 
Q 3278 2403 3138 2206 
L 3138 638 
Q 3138 322 3191 241 
Q 3263 125 3466 113 
L 3466 0 
L 1953 0 
L 1953 113 
Q 2075 119 2145 173 
Q 2216 228 2239 304 
Q 2263 381 2263 638 
L 2263 1894 
Q 2263 2291 2231 2391 
Q 2200 2491 2126 2547 
Q 2053 2603 1969 2603 
Q 1844 2603 1741 2538 
Q 1594 2441 1428 2206 
L 1428 638 
Q 1428 328 1489 229 
Q 1550 131 1744 113 
L 1744 0 
L 238 0 
L 238 113 
Q 422 131 500 231 
Q 553 300 553 638 
L 553 2288 
Q 553 2619 492 2700 
Q 431 2781 238 2806 
L 238 2922 
L 1428 2922 
z
" transform="scale(0.015625)"/>
      <path id="DejaVuSans-2212" d="M 678 2272 
L 4684 2272 
L 4684 1741 
L 678 1741 
L 678 2272 
z
" transform="scale(0.015625)"/>
     </defs>
     <use xlink:href="#TimesNewRomanPS-BoldMT-28" transform="translate(0 0.78125)"/>
     <use xlink:href="#TimesNewRomanPS-BoldMT-62" transform="translate(33.300781 0.78125)"/>
     <use xlink:href="#TimesNewRomanPS-BoldMT-29" transform="translate(88.916016 0.78125)"/>
     <use xlink:href="#TimesNewRomanPS-BoldMT-20" transform="translate(122.216797 0.78125)"/>
     <use xlink:href="#TimesNewRomanPS-BoldMT-4c" transform="translate(147.216797 0.78125)"/>
     <use xlink:href="#TimesNewRomanPS-BoldMT-6f" transform="translate(213.916016 0.78125)"/>
     <use xlink:href="#TimesNewRomanPS-BoldMT-73" transform="translate(263.916016 0.78125)"/>
     <use xlink:href="#TimesNewRomanPS-BoldMT-73" transform="translate(302.832031 0.78125)"/>
     <use xlink:href="#TimesNewRomanPS-BoldMT-20" transform="translate(341.748047 0.78125)"/>
     <use xlink:href="#TimesNewRomanPS-BoldMT-6f" transform="translate(366.748047 0.78125)"/>
     <use xlink:href="#TimesNewRomanPS-BoldMT-66" transform="translate(416.748047 0.78125)"/>
     <use xlink:href="#TimesNewRomanPS-BoldMT-20" transform="translate(450.048828 0.78125)"/>
     <use xlink:href="#TimesNewRomanPS-BoldMT-48" transform="translate(475.048828 0.78125)"/>
     <use xlink:href="#TimesNewRomanPS-BoldMT-65" transform="translate(552.832031 0.78125)"/>
     <use xlink:href="#TimesNewRomanPS-BoldMT-69" transform="translate(597.216797 0.78125)"/>
     <use xlink:href="#TimesNewRomanPS-BoldMT-72" transform="translate(625 0.78125)"/>
     <use xlink:href="#TimesNewRomanPS-BoldMT-6c" transform="translate(669.384766 0.78125)"/>
     <use xlink:href="#TimesNewRomanPS-BoldMT-6f" transform="translate(697.167969 0.78125)"/>
     <use xlink:href="#TimesNewRomanPS-BoldMT-6f" transform="translate(747.167969 0.78125)"/>
     <use xlink:href="#TimesNewRomanPS-BoldMT-6d" transform="translate(797.167969 0.78125)"/>
     <use xlink:href="#TimesNewRomanPS-BoldMT-20" transform="translate(880.46875 0.78125)"/>
     <use xlink:href="#TimesNewRomanPS-BoldMT-28" transform="translate(905.46875 0.78125)"/>
     <use xlink:href="#DejaVuSans-2212" transform="translate(938.769531 0.78125)"/>
     <use xlink:href="#DejaVuSans-Oblique-3b4" transform="translate(1022.558594 0.78125)"/>
     <use xlink:href="#TimesNewRomanPS-BoldMT-29" transform="translate(1083.740234 0.78125)"/>
    </g>
   </g>
  </g>
  <g id="text_23">
   <!-- $\lambda = \sqrt{d_{loss} \,/\, d_{gain}} = \sqrt{7\,/\,1} = 2.65$ -->
   <g style="fill: #b7410e" transform="translate(135.343203 230.06) scale(0.11 -0.11)">
    <defs>
     <path id="DejaVuSans-Oblique-3bb" d="M 2350 4316 
L 3125 0 
L 2516 0 
L 2038 2588 
L 328 0 
L -281 0 
L 1903 3356 
L 1794 3975 
Q 1725 4369 1391 4369 
L 1091 4369 
L 1184 4863 
L 1550 4856 
Q 2253 4847 2350 4316 
z
" transform="scale(0.015625)"/>
     <path id="STIXSizeOneSym-Regular-221a" d="M 6970 9933 
L 3373 -1888 
L 3104 -1888 
L 1626 2918 
Q 1555 3149 1465 3251 
Q 1376 3354 1229 3354 
Q 1011 3354 794 3181 
L 717 3309 
L 1766 4115 
L 1926 4115 
L 3379 -602 
L 3405 -602 
L 6605 9933 
L 6970 9933 
z
" transform="scale(0.015625)"/>
     <path id="DejaVuSans-2f" d="M 1625 4666 
L 2156 4666 
L 531 -594 
L 0 -594 
L 1625 4666 
z
" transform="scale(0.015625)"/>
     <path id="DejaVuSans-2e" d="M 684 794 
L 1344 794 
L 1344 0 
L 684 0 
L 684 794 
z
" transform="scale(0.015625)"/>
    </defs>
    <use xlink:href="#DejaVuSans-Oblique-3bb" transform="translate(0 0.432812)"/>
    <use xlink:href="#DejaVuSans-3d" transform="translate(78.662109 0.432812)"/>
    <use xlink:href="#STIXSizeOneSym-Regular-221a" transform="translate(181.933594 -8.40625) scale(0.748219)"/>
    <use xlink:href="#DejaVuSans-Oblique-64" transform="translate(273.576462 0.765625)"/>
    <use xlink:href="#DejaVuSans-Oblique-6c" transform="translate(337.053024 -15.640625) scale(0.7)"/>
    <use xlink:href="#DejaVuSans-Oblique-6f" transform="translate(356.501266 -15.640625) scale(0.7)"/>
    <use xlink:href="#DejaVuSans-Oblique-73" transform="translate(399.328415 -15.640625) scale(0.7)"/>
    <use xlink:href="#DejaVuSans-Oblique-73" transform="translate(435.798141 -15.640625) scale(0.7)"/>
    <use xlink:href="#DejaVuSans-2f" transform="translate(491.237919 0.765625)"/>
    <use xlink:href="#DejaVuSans-Oblique-64" transform="translate(541.165002 0.765625)"/>
    <use xlink:href="#DejaVuSans-Oblique-67" transform="translate(604.641564 -15.640625) scale(0.7)"/>
    <use xlink:href="#DejaVuSans-Oblique-61" transform="translate(649.075158 -15.640625) scale(0.7)"/>
    <use xlink:href="#DejaVuSans-Oblique-69" transform="translate(691.970666 -15.640625) scale(0.7)"/>
    <use xlink:href="#DejaVuSans-Oblique-6e" transform="translate(711.418908 -15.640625) scale(0.7)"/>
    <use xlink:href="#DejaVuSans-3d" transform="translate(790.500939 0.432812)"/>
    <use xlink:href="#STIXSizeOneSym-Regular-221a" transform="translate(893.772424 9.151562) scale(0.614161)"/>
    <use xlink:href="#DejaVuSans-37" transform="translate(971.145791 0.667187)"/>
    <use xlink:href="#DejaVuSans-2f" transform="translate(1051.004514 0.667187)"/>
    <use xlink:href="#DejaVuSans-31" transform="translate(1100.931597 0.667187)"/>
    <use xlink:href="#DejaVuSans-3d" transform="translate(1196.537065 0.432812)"/>
    <use xlink:href="#DejaVuSans-32" transform="translate(1299.80855 0.432812)"/>
    <use xlink:href="#DejaVuSans-2e" transform="translate(1363.431597 0.432812)"/>
    <use xlink:href="#DejaVuSans-36" transform="translate(1395.218706 0.432812)"/>
    <use xlink:href="#DejaVuSans-35" transform="translate(1458.841753 0.432812)"/>
    <path d="M 261.076462 101.5 
L 261.076462 107.75 
L 771.018517 107.75 
L 771.018517 101.5 
L 261.076462 101.5 
z
"/>
    <path d="M 958.645791 97.323437 
L 958.645791 103.573437 
L 1177.054644 103.573437 
L 1177.054644 97.323437 
L 958.645791 97.323437 
z
"/>
   </g>
  </g>
 </g>
 <defs>
  <clipPath id="pd9740c6521">
   <rect x="57.108203" y="22.7" width="139.5" height="177.408"/>
  </clipPath>
  <clipPath id="pb7d8f565b9">
   <rect x="252.408203" y="22.7" width="139.5" height="177.408"/>
  </clipPath>
 </defs>
</svg>
