<?xml version="1.0" encoding="utf-8" standalone="no"?>
<!DOCTYPE svg PUBLIC "-//W3C//DTD SVG 1.1//EN"
  "http://www.w3.org/Graphics/SVG/1.1/DTD/svg11.dtd">
<svg xmlns:xlink="http://www.w3.org/1999/xlink" width="290.1211pt" height="309.032656pt" viewBox="0 0 290.1211 309.032656" xmlns="http://www.w3.org/2000/svg" version="1.1">
 <metadata>
  <rdf:RDF xmlns:dc="http://purl.org/dc/elements/1.1/" xmlns:cc="http://creativecommons.org/ns#" xmlns:rdf="http://www.w3.org/1999/02/22-rdf-syntax-ns#">
   <cc:Work>
    <dc:type rdf:resource="http://purl.org/dc/dcmitype/StillImage"/>
    <dc:date>2026-03-16T22:38:48.564436</dc:date>
    <dc:format>image/svg+xml</dc:format>
    <dc:creator>
     <cc:Agent>
      <dc:title>Matplotlib v3.10.8, https://matplotlib.org/</dc:title>
     </cc:Agent>
    </dc:creator>
   </cc:Work>
  </rdf:RDF>
 </metadata>
 <defs>
  <style type="text/css">*{stroke-linejoin: round; stroke-linecap: butt}</style>
 </defs>
 <g id="figure_1">
  <g id="patch_1">
   <path d="M 0 309.032656 
L 290.1211 309.032656 
L 290.1211 0 
L 0 0 
z
" style="fill: #ffffff"/>
  </g>
  <g id="axes_1">
   <g id="patch_2">
    <path d="M 31.9 273.458125 
L 281.38 273.458125 
L 281.38 23.978125 
L 31.9 23.978125 
z
" style="fill: #ffffff"/>
   </g>
   <g id="matplotlib.axis_1">
    <g id="xtick_1">
     <g id="line2d_1">
      <path d="M 56.848 273.458125 
L 56.848 23.978125 
" clip-path="url(#pe6130f1c64)" style="fill: none; stroke: #b0b0b0; stroke-opacity: 0.15; stroke-width: 0.8; stroke-linecap: square"/>
     </g>
     <g id="line2d_2">
      <defs>
       <path id="meecf98e2fe" d="M 0 0 
L 0 3.5 
" style="stroke: #000000; stroke-width: 0.8"/>
      </defs>
      <g>
       <use xlink:href="#meecf98e2fe" x="56.848" y="273.458125" style="stroke: #000000; stroke-width: 0.8"/>
      </g>
     </g>
     <g id="text_1">
      <!-- 0 -->
      <g transform="translate(54.598 286.7075) scale(0.09 -0.09)">
       <defs>
        <path id="TimesNewRomanPSMT-30" d="M 231 2094 
Q 231 2819 450 3342 
Q 669 3866 1031 4122 
Q 1313 4325 1613 4325 
Q 2100 4325 2488 3828 
Q 2972 3213 2972 2159 
Q 2972 1422 2759 906 
Q 2547 391 2217 158 
Q 1888 -75 1581 -75 
Q 975 -75 572 641 
Q 231 1244 231 2094 
z
M 844 2016 
Q 844 1141 1059 588 
Q 1238 122 1591 122 
Q 1759 122 1940 273 
Q 2122 425 2216 781 
Q 2359 1319 2359 2297 
Q 2359 3022 2209 3506 
Q 2097 3866 1919 4016 
Q 1791 4119 1609 4119 
Q 1397 4119 1231 3928 
Q 1006 3669 925 3112 
Q 844 2556 844 2016 
z
" transform="scale(0.015625)"/>
       </defs>
       <use xlink:href="#TimesNewRomanPSMT-30"/>
      </g>
     </g>
    </g>
    <g id="xtick_2">
     <g id="line2d_3">
      <path d="M 106.744 273.458125 
L 106.744 23.978125 
" clip-path="url(#pe6130f1c64)" style="fill: none; stroke: #b0b0b0; stroke-opacity: 0.15; stroke-width: 0.8; stroke-linecap: square"/>
     </g>
     <g id="line2d_4">
      <g>
       <use xlink:href="#meecf98e2fe" x="106.744" y="273.458125" style="stroke: #000000; stroke-width: 0.8"/>
      </g>
     </g>
     <g id="text_2">
      <!-- 1 -->
      <g transform="translate(104.494 286.7075) scale(0.09 -0.09)">
       <defs>
        <path id="TimesNewRomanPSMT-31" d="M 750 3822 
L 1781 4325 
L 1884 4325 
L 1884 747 
Q 1884 391 1914 303 
Q 1944 216 2037 169 
Q 2131 122 2419 116 
L 2419 0 
L 825 0 
L 825 116 
Q 1125 122 1212 167 
Q 1300 213 1334 289 
Q 1369 366 1369 747 
L 1369 3034 
Q 1369 3497 1338 3628 
Q 1316 3728 1258 3775 
Q 1200 3822 1119 3822 
Q 1003 3822 797 3725 
L 750 3822 
z
" transform="scale(0.015625)"/>
       </defs>
       <use xlink:href="#TimesNewRomanPSMT-31"/>
      </g>
     </g>
    </g>
    <g id="xtick_3">
     <g id="line2d_5">
      <path d="M 156.64 273.458125 
L 156.64 23.978125 
" clip-path="url(#pe6130f1c64)" style="fill: none; stroke: #b0b0b0; stroke-opacity: 0.15; stroke-width: 0.8; stroke-linecap: square"/>
     </g>
     <g id="line2d_6">
      <g>
       <use xlink:href="#meecf98e2fe" x="156.64" y="273.458125" style="stroke: #000000; stroke-width: 0.8"/>
      </g>
     </g>
     <g id="text_3">
      <!-- 2 -->
      <g transform="translate(154.39 286.7075) scale(0.09 -0.09)">
       <defs>
        <path id="TimesNewRomanPSMT-32" d="M 2934 816 
L 2638 0 
L 138 0 
L 138 116 
Q 1241 1122 1691 1759 
Q 2141 2397 2141 2925 
Q 2141 3328 1894 3587 
Q 1647 3847 1303 3847 
Q 991 3847 742 3664 
Q 494 3481 375 3128 
L 259 3128 
Q 338 3706 661 4015 
Q 984 4325 1469 4325 
Q 1984 4325 2329 3994 
Q 2675 3663 2675 3213 
Q 2675 2891 2525 2569 
Q 2294 2063 1775 1497 
Q 997 647 803 472 
L 1909 472 
Q 2247 472 2383 497 
Q 2519 522 2628 598 
Q 2738 675 2819 816 
L 2934 816 
z
" transform="scale(0.015625)"/>
       </defs>
       <use xlink:href="#TimesNewRomanPSMT-32"/>
      </g>
     </g>
    </g>
    <g id="xtick_4">
     <g id="line2d_7">
      <path d="M 206.536 273.458125 
L 206.536 23.978125 
" clip-path="url(#pe6130f1c64)" style="fill: none; stroke: #b0b0b0; stroke-opacity: 0.15; stroke-width: 0.8; stroke-linecap: square"/>
     </g>
     <g id="line2d_8">
      <g>
       <use xlink:href="#meecf98e2fe" x="206.536" y="273.458125" style="stroke: #000000; stroke-width: 0.8"/>
      </g>
     </g>
     <g id="text_4">
      <!-- 3 -->
      <g transform="translate(204.286 286.7075) scale(0.09 -0.09)">
       <defs>
        <path id="TimesNewRomanPSMT-33" d="M 325 3431 
Q 506 3859 782 4092 
Q 1059 4325 1472 4325 
Q 1981 4325 2253 3994 
Q 2459 3747 2459 3466 
Q 2459 3003 1878 2509 
Q 2269 2356 2469 2072 
Q 2669 1788 2669 1403 
Q 2669 853 2319 450 
Q 1863 -75 997 -75 
Q 569 -75 414 31 
Q 259 138 259 259 
Q 259 350 332 419 
Q 406 488 509 488 
Q 588 488 669 463 
Q 722 447 909 348 
Q 1097 250 1169 231 
Q 1284 197 1416 197 
Q 1734 197 1970 444 
Q 2206 691 2206 1028 
Q 2206 1275 2097 1509 
Q 2016 1684 1919 1775 
Q 1784 1900 1550 2001 
Q 1316 2103 1072 2103 
L 972 2103 
L 972 2197 
Q 1219 2228 1467 2375 
Q 1716 2522 1828 2728 
Q 1941 2934 1941 3181 
Q 1941 3503 1739 3701 
Q 1538 3900 1238 3900 
Q 753 3900 428 3381 
L 325 3431 
z
" transform="scale(0.015625)"/>
       </defs>
       <use xlink:href="#TimesNewRomanPSMT-33"/>
      </g>
     </g>
    </g>
    <g id="xtick_5">
     <g id="line2d_9">
      <path d="M 256.432 273.458125 
L 256.432 23.978125 
" clip-path="url(#pe6130f1c64)" style="fill: none; stroke: #b0b0b0; stroke-opacity: 0.15; stroke-width: 0.8; stroke-linecap: square"/>
     </g>
     <g id="line2d_10">
      <g>
       <use xlink:href="#meecf98e2fe" x="256.432" y="273.458125" style="stroke: #000000; stroke-width: 0.8"/>
      </g>
     </g>
     <g id="text_5">
      <!-- 4 -->
      <g transform="translate(254.182 286.7075) scale(0.09 -0.09)">
       <defs>
        <path id="TimesNewRomanPSMT-34" d="M 2978 1563 
L 2978 1119 
L 2409 1119 
L 2409 0 
L 1894 0 
L 1894 1119 
L 100 1119 
L 100 1519 
L 2066 4325 
L 2409 4325 
L 2409 1563 
L 2978 1563 
z
M 1894 1563 
L 1894 3666 
L 406 1563 
L 1894 1563 
z
" transform="scale(0.015625)"/>
       </defs>
       <use xlink:href="#TimesNewRomanPSMT-34"/>
      </g>
     </g>
    </g>
    <g id="text_6">
     <!-- Monetary dimension ($a_1$) -->
     <g transform="translate(105.09 299.632656) scale(0.1 -0.1)">
      <defs>
       <path id="TimesNewRomanPSMT-4d" d="M 2619 0 
L 981 3566 
L 981 734 
Q 981 344 1066 247 
Q 1181 116 1431 116 
L 1581 116 
L 1581 0 
L 106 0 
L 106 116 
L 256 116 
Q 525 116 638 278 
Q 706 378 706 734 
L 706 3503 
Q 706 3784 644 3909 
Q 600 4000 483 4061 
Q 366 4122 106 4122 
L 106 4238 
L 1306 4238 
L 2844 922 
L 4356 4238 
L 5556 4238 
L 5556 4122 
L 5409 4122 
Q 5138 4122 5025 3959 
Q 4956 3859 4956 3503 
L 4956 734 
Q 4956 344 5044 247 
Q 5159 116 5409 116 
L 5556 116 
L 5556 0 
L 3756 0 
L 3756 116 
L 3906 116 
Q 4178 116 4288 278 
Q 4356 378 4356 734 
L 4356 3566 
L 2722 0 
L 2619 0 
z
" transform="scale(0.015625)"/>
       <path id="TimesNewRomanPSMT-6f" d="M 1600 2947 
Q 2250 2947 2644 2453 
Q 2978 2031 2978 1484 
Q 2978 1100 2793 706 
Q 2609 313 2286 112 
Q 1963 -88 1566 -88 
Q 919 -88 538 428 
Q 216 863 216 1403 
Q 216 1797 411 2186 
Q 606 2575 925 2761 
Q 1244 2947 1600 2947 
z
M 1503 2744 
Q 1338 2744 1170 2645 
Q 1003 2547 900 2300 
Q 797 2053 797 1666 
Q 797 1041 1045 587 
Q 1294 134 1700 134 
Q 2003 134 2200 384 
Q 2397 634 2397 1244 
Q 2397 2006 2069 2444 
Q 1847 2744 1503 2744 
z
" transform="scale(0.015625)"/>
       <path id="TimesNewRomanPSMT-6e" d="M 1034 2341 
Q 1538 2947 1994 2947 
Q 2228 2947 2397 2830 
Q 2566 2713 2666 2444 
Q 2734 2256 2734 1869 
L 2734 647 
Q 2734 375 2778 278 
Q 2813 200 2889 156 
Q 2966 113 3172 113 
L 3172 0 
L 1756 0 
L 1756 113 
L 1816 113 
Q 2016 113 2095 173 
Q 2175 234 2206 353 
Q 2219 400 2219 647 
L 2219 1819 
Q 2219 2209 2117 2386 
Q 2016 2563 1775 2563 
Q 1403 2563 1034 2156 
L 1034 647 
Q 1034 356 1069 288 
Q 1113 197 1189 155 
Q 1266 113 1500 113 
L 1500 0 
L 84 0 
L 84 113 
L 147 113 
Q 366 113 442 223 
Q 519 334 519 647 
L 519 1709 
Q 519 2225 495 2337 
Q 472 2450 423 2490 
Q 375 2531 294 2531 
Q 206 2531 84 2484 
L 38 2597 
L 900 2947 
L 1034 2947 
L 1034 2341 
z
" transform="scale(0.015625)"/>
       <path id="TimesNewRomanPSMT-65" d="M 681 1784 
Q 678 1147 991 784 
Q 1303 422 1725 422 
Q 2006 422 2214 576 
Q 2422 731 2563 1106 
L 2659 1044 
Q 2594 616 2278 264 
Q 1963 -88 1488 -88 
Q 972 -88 605 314 
Q 238 716 238 1394 
Q 238 2128 614 2539 
Q 991 2950 1559 2950 
Q 2041 2950 2350 2633 
Q 2659 2316 2659 1784 
L 681 1784 
z
M 681 1966 
L 2006 1966 
Q 1991 2241 1941 2353 
Q 1863 2528 1708 2628 
Q 1553 2728 1384 2728 
Q 1125 2728 920 2526 
Q 716 2325 681 1966 
z
" transform="scale(0.015625)"/>
       <path id="TimesNewRomanPSMT-74" d="M 1031 3803 
L 1031 2863 
L 1700 2863 
L 1700 2644 
L 1031 2644 
L 1031 788 
Q 1031 509 1111 412 
Q 1191 316 1316 316 
Q 1419 316 1516 380 
Q 1613 444 1666 569 
L 1788 569 
Q 1678 263 1478 108 
Q 1278 -47 1066 -47 
Q 922 -47 784 33 
Q 647 113 581 261 
Q 516 409 516 719 
L 516 2644 
L 63 2644 
L 63 2747 
Q 234 2816 414 2980 
Q 594 3144 734 3369 
Q 806 3488 934 3803 
L 1031 3803 
z
" transform="scale(0.015625)"/>
       <path id="TimesNewRomanPSMT-61" d="M 1822 413 
Q 1381 72 1269 19 
Q 1100 -59 909 -59 
Q 613 -59 420 144 
Q 228 347 228 678 
Q 228 888 322 1041 
Q 450 1253 767 1440 
Q 1084 1628 1822 1897 
L 1822 2009 
Q 1822 2438 1686 2597 
Q 1550 2756 1291 2756 
Q 1094 2756 978 2650 
Q 859 2544 859 2406 
L 866 2225 
Q 866 2081 792 2003 
Q 719 1925 600 1925 
Q 484 1925 411 2006 
Q 338 2088 338 2228 
Q 338 2497 613 2722 
Q 888 2947 1384 2947 
Q 1766 2947 2009 2819 
Q 2194 2722 2281 2516 
Q 2338 2381 2338 1966 
L 2338 994 
Q 2338 584 2353 492 
Q 2369 400 2405 369 
Q 2441 338 2488 338 
Q 2538 338 2575 359 
Q 2641 400 2828 588 
L 2828 413 
Q 2478 -56 2159 -56 
Q 2006 -56 1915 50 
Q 1825 156 1822 413 
z
M 1822 616 
L 1822 1706 
Q 1350 1519 1213 1441 
Q 966 1303 859 1153 
Q 753 1003 753 825 
Q 753 600 887 451 
Q 1022 303 1197 303 
Q 1434 303 1822 616 
z
" transform="scale(0.015625)"/>
       <path id="TimesNewRomanPSMT-72" d="M 1038 2947 
L 1038 2303 
Q 1397 2947 1775 2947 
Q 1947 2947 2059 2842 
Q 2172 2738 2172 2600 
Q 2172 2478 2090 2393 
Q 2009 2309 1897 2309 
Q 1788 2309 1652 2417 
Q 1516 2525 1450 2525 
Q 1394 2525 1328 2463 
Q 1188 2334 1038 2041 
L 1038 669 
Q 1038 431 1097 309 
Q 1138 225 1241 169 
Q 1344 113 1538 113 
L 1538 0 
L 72 0 
L 72 113 
Q 291 113 397 181 
Q 475 231 506 341 
Q 522 394 522 644 
L 522 1753 
Q 522 2253 501 2348 
Q 481 2444 426 2487 
Q 372 2531 291 2531 
Q 194 2531 72 2484 
L 41 2597 
L 906 2947 
L 1038 2947 
z
" transform="scale(0.015625)"/>
       <path id="TimesNewRomanPSMT-79" d="M 38 2863 
L 1372 2863 
L 1372 2747 
L 1306 2747 
Q 1166 2747 1095 2686 
Q 1025 2625 1025 2534 
Q 1025 2413 1128 2197 
L 1825 753 
L 2466 2334 
Q 2519 2463 2519 2588 
Q 2519 2644 2497 2672 
Q 2472 2706 2419 2726 
Q 2366 2747 2231 2747 
L 2231 2863 
L 3163 2863 
L 3163 2747 
Q 3047 2734 2984 2696 
Q 2922 2659 2847 2556 
Q 2819 2513 2741 2316 
L 1575 -541 
Q 1406 -956 1132 -1168 
Q 859 -1381 606 -1381 
Q 422 -1381 303 -1275 
Q 184 -1169 184 -1031 
Q 184 -900 270 -820 
Q 356 -741 506 -741 
Q 609 -741 788 -809 
Q 913 -856 944 -856 
Q 1038 -856 1148 -759 
Q 1259 -663 1372 -384 
L 1575 113 
L 547 2272 
Q 500 2369 397 2513 
Q 319 2622 269 2659 
Q 197 2709 38 2747 
L 38 2863 
z
" transform="scale(0.015625)"/>
       <path id="TimesNewRomanPSMT-20" transform="scale(0.015625)"/>
       <path id="TimesNewRomanPSMT-64" d="M 2222 322 
Q 2013 103 1813 7 
Q 1613 -88 1381 -88 
Q 913 -88 563 304 
Q 213 697 213 1313 
Q 213 1928 600 2439 
Q 988 2950 1597 2950 
Q 1975 2950 2222 2709 
L 2222 3238 
Q 2222 3728 2198 3840 
Q 2175 3953 2125 3993 
Q 2075 4034 2000 4034 
Q 1919 4034 1784 3984 
L 1744 4094 
L 2597 4444 
L 2738 4444 
L 2738 1134 
Q 2738 631 2761 520 
Q 2784 409 2836 365 
Q 2888 322 2956 322 
Q 3041 322 3181 375 
L 3216 266 
L 2366 -88 
L 2222 -88 
L 2222 322 
z
M 2222 541 
L 2222 2016 
Q 2203 2228 2109 2403 
Q 2016 2578 1861 2667 
Q 1706 2756 1559 2756 
Q 1284 2756 1069 2509 
Q 784 2184 784 1559 
Q 784 928 1059 592 
Q 1334 256 1672 256 
Q 1956 256 2222 541 
z
" transform="scale(0.015625)"/>
       <path id="TimesNewRomanPSMT-69" d="M 928 4444 
Q 1059 4444 1151 4351 
Q 1244 4259 1244 4128 
Q 1244 3997 1151 3903 
Q 1059 3809 928 3809 
Q 797 3809 703 3903 
Q 609 3997 609 4128 
Q 609 4259 701 4351 
Q 794 4444 928 4444 
z
M 1188 2947 
L 1188 647 
Q 1188 378 1227 289 
Q 1266 200 1342 156 
Q 1419 113 1622 113 
L 1622 0 
L 231 0 
L 231 113 
Q 441 113 512 153 
Q 584 194 626 287 
Q 669 381 669 647 
L 669 1750 
Q 669 2216 641 2353 
Q 619 2453 572 2492 
Q 525 2531 444 2531 
Q 356 2531 231 2484 
L 188 2597 
L 1050 2947 
L 1188 2947 
z
" transform="scale(0.015625)"/>
       <path id="TimesNewRomanPSMT-6d" d="M 1050 2338 
Q 1363 2650 1419 2697 
Q 1559 2816 1721 2881 
Q 1884 2947 2044 2947 
Q 2313 2947 2506 2790 
Q 2700 2634 2766 2338 
Q 3088 2713 3309 2830 
Q 3531 2947 3766 2947 
Q 3994 2947 4170 2830 
Q 4347 2713 4450 2447 
Q 4519 2266 4519 1878 
L 4519 647 
Q 4519 378 4559 278 
Q 4591 209 4675 161 
Q 4759 113 4950 113 
L 4950 0 
L 3538 0 
L 3538 113 
L 3597 113 
Q 3781 113 3884 184 
Q 3956 234 3988 344 
Q 4000 397 4000 647 
L 4000 1878 
Q 4000 2228 3916 2372 
Q 3794 2572 3525 2572 
Q 3359 2572 3192 2489 
Q 3025 2406 2788 2181 
L 2781 2147 
L 2788 2013 
L 2788 647 
Q 2788 353 2820 281 
Q 2853 209 2943 161 
Q 3034 113 3253 113 
L 3253 0 
L 1806 0 
L 1806 113 
Q 2044 113 2133 169 
Q 2222 225 2256 338 
Q 2272 391 2272 647 
L 2272 1878 
Q 2272 2228 2169 2381 
Q 2031 2581 1784 2581 
Q 1616 2581 1450 2491 
Q 1191 2353 1050 2181 
L 1050 647 
Q 1050 366 1089 281 
Q 1128 197 1204 155 
Q 1281 113 1516 113 
L 1516 0 
L 100 0 
L 100 113 
Q 297 113 375 155 
Q 453 197 493 289 
Q 534 381 534 647 
L 534 1741 
Q 534 2213 506 2350 
Q 484 2453 437 2492 
Q 391 2531 309 2531 
Q 222 2531 100 2484 
L 53 2597 
L 916 2947 
L 1050 2947 
L 1050 2338 
z
" transform="scale(0.015625)"/>
       <path id="TimesNewRomanPSMT-73" d="M 2050 2947 
L 2050 1972 
L 1947 1972 
Q 1828 2431 1642 2597 
Q 1456 2763 1169 2763 
Q 950 2763 815 2647 
Q 681 2531 681 2391 
Q 681 2216 781 2091 
Q 878 1963 1175 1819 
L 1631 1597 
Q 2266 1288 2266 781 
Q 2266 391 1970 151 
Q 1675 -88 1309 -88 
Q 1047 -88 709 6 
Q 606 38 541 38 
Q 469 38 428 -44 
L 325 -44 
L 325 978 
L 428 978 
Q 516 541 762 319 
Q 1009 97 1316 97 
Q 1531 97 1667 223 
Q 1803 350 1803 528 
Q 1803 744 1651 891 
Q 1500 1038 1047 1263 
Q 594 1488 453 1669 
Q 313 1847 313 2119 
Q 313 2472 555 2709 
Q 797 2947 1181 2947 
Q 1350 2947 1591 2875 
Q 1750 2828 1803 2828 
Q 1853 2828 1881 2850 
Q 1909 2872 1947 2947 
L 2050 2947 
z
" transform="scale(0.015625)"/>
       <path id="TimesNewRomanPSMT-28" d="M 1988 -1253 
L 1988 -1369 
Q 1516 -1131 1200 -813 
Q 750 -359 506 256 
Q 263 872 263 1534 
Q 263 2503 741 3301 
Q 1219 4100 1988 4444 
L 1988 4313 
Q 1603 4100 1356 3731 
Q 1109 3363 987 2797 
Q 866 2231 866 1616 
Q 866 947 969 400 
Q 1050 -31 1165 -292 
Q 1281 -553 1476 -793 
Q 1672 -1034 1988 -1253 
z
" transform="scale(0.015625)"/>
       <path id="DejaVuSans-Oblique-61" d="M 3438 1997 
L 3047 0 
L 2472 0 
L 2578 531 
Q 2325 219 2001 64 
Q 1678 -91 1281 -91 
Q 834 -91 548 182 
Q 263 456 263 884 
Q 263 1497 752 1853 
Q 1241 2209 2100 2209 
L 2900 2209 
L 2931 2363 
Q 2938 2388 2941 2417 
Q 2944 2447 2944 2509 
Q 2944 2788 2717 2942 
Q 2491 3097 2081 3097 
Q 1800 3097 1504 3025 
Q 1209 2953 897 2809 
L 997 3341 
Q 1322 3463 1633 3523 
Q 1944 3584 2234 3584 
Q 2853 3584 3176 3315 
Q 3500 3047 3500 2534 
Q 3500 2431 3484 2292 
Q 3469 2153 3438 1997 
z
M 2816 1759 
L 2241 1759 
Q 1534 1759 1195 1570 
Q 856 1381 856 984 
Q 856 709 1029 553 
Q 1203 397 1509 397 
Q 1978 397 2328 733 
Q 2678 1069 2791 1631 
L 2816 1759 
z
" transform="scale(0.015625)"/>
       <path id="DejaVuSans-31" d="M 794 531 
L 1825 531 
L 1825 4091 
L 703 3866 
L 703 4441 
L 1819 4666 
L 2450 4666 
L 2450 531 
L 3481 531 
L 3481 0 
L 794 0 
L 794 531 
z
" transform="scale(0.015625)"/>
       <path id="TimesNewRomanPSMT-29" d="M 144 4313 
L 144 4444 
Q 619 4209 934 3891 
Q 1381 3434 1625 2820 
Q 1869 2206 1869 1541 
Q 1869 572 1392 -226 
Q 916 -1025 144 -1369 
L 144 -1253 
Q 528 -1038 776 -670 
Q 1025 -303 1145 264 
Q 1266 831 1266 1447 
Q 1266 2113 1163 2663 
Q 1084 3094 967 3353 
Q 850 3613 656 3853 
Q 463 4094 144 4313 
z
" transform="scale(0.015625)"/>
      </defs>
      <use xlink:href="#TimesNewRomanPSMT-4d" transform="translate(0 0.5625)"/>
      <use xlink:href="#TimesNewRomanPSMT-6f" transform="translate(88.916016 0.5625)"/>
      <use xlink:href="#TimesNewRomanPSMT-6e" transform="translate(138.916016 0.5625)"/>
      <use xlink:href="#TimesNewRomanPSMT-65" transform="translate(188.916016 0.5625)"/>
      <use xlink:href="#TimesNewRomanPSMT-74" transform="translate(233.300781 0.5625)"/>
      <use xlink:href="#TimesNewRomanPSMT-61" transform="translate(261.083984 0.5625)"/>
      <use xlink:href="#TimesNewRomanPSMT-72" transform="translate(305.46875 0.5625)"/>
      <use xlink:href="#TimesNewRomanPSMT-79" transform="translate(338.769531 0.5625)"/>
      <use xlink:href="#TimesNewRomanPSMT-20" transform="translate(388.769531 0.5625)"/>
      <use xlink:href="#TimesNewRomanPSMT-64" transform="translate(413.769531 0.5625)"/>
      <use xlink:href="#TimesNewRomanPSMT-69" transform="translate(463.769531 0.5625)"/>
      <use xlink:href="#TimesNewRomanPSMT-6d" transform="translate(491.552734 0.5625)"/>
      <use xlink:href="#TimesNewRomanPSMT-65" transform="translate(569.335938 0.5625)"/>
      <use xlink:href="#TimesNewRomanPSMT-6e" transform="translate(613.720703 0.5625)"/>
      <use xlink:href="#TimesNewRomanPSMT-73" transform="translate(663.720703 0.5625)"/>
      <use xlink:href="#TimesNewRomanPSMT-69" transform="translate(702.636719 0.5625)"/>
      <use xlink:href="#TimesNewRomanPSMT-6f" transform="translate(730.419922 0.5625)"/>
      <use xlink:href="#TimesNewRomanPSMT-6e" transform="translate(780.419922 0.5625)"/>
      <use xlink:href="#TimesNewRomanPSMT-20" transform="translate(830.419922 0.5625)"/>
      <use xlink:href="#TimesNewRomanPSMT-28" transform="translate(855.419922 0.5625)"/>
      <use xlink:href="#DejaVuSans-Oblique-61" transform="translate(888.720703 0.5625)"/>
      <use xlink:href="#DejaVuSans-31" transform="translate(950 -15.84375) scale(0.7)"/>
      <use xlink:href="#TimesNewRomanPSMT-29" transform="translate(997.270508 0.5625)"/>
     </g>
    </g>
   </g>
   <g id="matplotlib.axis_2">
    <g id="ytick_1">
     <g id="line2d_11">
      <path d="M 31.9 248.510125 
L 281.38 248.510125 
" clip-path="url(#pe6130f1c64)" style="fill: none; stroke: #b0b0b0; stroke-opacity: 0.15; stroke-width: 0.8; stroke-linecap: square"/>
     </g>
     <g id="line2d_12">
      <defs>
       <path id="ma803da4503" d="M 0 0 
L -3.5 0 
" style="stroke: #000000; stroke-width: 0.8"/>
      </defs>
      <g>
       <use xlink:href="#ma803da4503" x="31.9" y="248.510125" style="stroke: #000000; stroke-width: 0.8"/>
      </g>
     </g>
     <g id="text_7">
      <!-- 0 -->
      <g transform="translate(20.4 251.634813) scale(0.09 -0.09)">
       <use xlink:href="#TimesNewRomanPSMT-30"/>
      </g>
     </g>
    </g>
    <g id="ytick_2">
     <g id="line2d_13">
      <path d="M 31.9 198.614125 
L 281.38 198.614125 
" clip-path="url(#pe6130f1c64)" style="fill: none; stroke: #b0b0b0; stroke-opacity: 0.15; stroke-width: 0.8; stroke-linecap: square"/>
     </g>
     <g id="line2d_14">
      <g>
       <use xlink:href="#ma803da4503" x="31.9" y="198.614125" style="stroke: #000000; stroke-width: 0.8"/>
      </g>
     </g>
     <g id="text_8">
      <!-- 1 -->
      <g transform="translate(20.4 201.738812) scale(0.09 -0.09)">
       <use xlink:href="#TimesNewRomanPSMT-31"/>
      </g>
     </g>
    </g>
    <g id="ytick_3">
     <g id="line2d_15">
      <path d="M 31.9 148.718125 
L 281.38 148.718125 
" clip-path="url(#pe6130f1c64)" style="fill: none; stroke: #b0b0b0; stroke-opacity: 0.15; stroke-width: 0.8; stroke-linecap: square"/>
     </g>
     <g id="line2d_16">
      <g>
       <use xlink:href="#ma803da4503" x="31.9" y="148.718125" style="stroke: #000000; stroke-width: 0.8"/>
      </g>
     </g>
     <g id="text_9">
      <!-- 2 -->
      <g transform="translate(20.4 151.842812) scale(0.09 -0.09)">
       <use xlink:href="#TimesNewRomanPSMT-32"/>
      </g>
     </g>
    </g>
    <g id="ytick_4">
     <g id="line2d_17">
      <path d="M 31.9 98.822125 
L 281.38 98.822125 
" clip-path="url(#pe6130f1c64)" style="fill: none; stroke: #b0b0b0; stroke-opacity: 0.15; stroke-width: 0.8; stroke-linecap: square"/>
     </g>
     <g id="line2d_18">
      <g>
       <use xlink:href="#ma803da4503" x="31.9" y="98.822125" style="stroke: #000000; stroke-width: 0.8"/>
      </g>
     </g>
     <g id="text_10">
      <!-- 3 -->
      <g transform="translate(20.4 101.946812) scale(0.09 -0.09)">
       <use xlink:href="#TimesNewRomanPSMT-33"/>
      </g>
     </g>
    </g>
    <g id="ytick_5">
     <g id="line2d_19">
      <path d="M 31.9 48.926125 
L 281.38 48.926125 
" clip-path="url(#pe6130f1c64)" style="fill: none; stroke: #b0b0b0; stroke-opacity: 0.15; stroke-width: 0.8; stroke-linecap: square"/>
     </g>
     <g id="line2d_20">
      <g>
       <use xlink:href="#ma803da4503" x="31.9" y="48.926125" style="stroke: #000000; stroke-width: 0.8"/>
      </g>
     </g>
     <g id="text_11">
      <!-- 4 -->
      <g transform="translate(20.4 52.050812) scale(0.09 -0.09)">
       <use xlink:href="#TimesNewRomanPSMT-34"/>
      </g>
     </g>
    </g>
    <g id="text_12">
     <!-- Fairness dimension ($a_3$) -->
     <g transform="translate(14.2 197.518125) rotate(-90) scale(0.1 -0.1)">
      <defs>
       <path id="TimesNewRomanPSMT-46" d="M 1309 4006 
L 1309 2341 
L 2081 2341 
Q 2347 2341 2470 2458 
Q 2594 2575 2634 2922 
L 2750 2922 
L 2750 1488 
L 2634 1488 
Q 2631 1734 2570 1850 
Q 2509 1966 2401 2023 
Q 2294 2081 2081 2081 
L 1309 2081 
L 1309 750 
Q 1309 428 1350 325 
Q 1381 247 1481 191 
Q 1619 116 1769 116 
L 1922 116 
L 1922 0 
L 103 0 
L 103 116 
L 253 116 
Q 516 116 634 269 
Q 709 369 709 750 
L 709 3488 
Q 709 3809 669 3913 
Q 638 3991 541 4047 
Q 406 4122 253 4122 
L 103 4122 
L 103 4238 
L 3256 4238 
L 3297 3306 
L 3188 3306 
Q 3106 3603 2998 3742 
Q 2891 3881 2733 3943 
Q 2575 4006 2244 4006 
L 1309 4006 
z
" transform="scale(0.015625)"/>
       <path id="DejaVuSans-33" d="M 2597 2516 
Q 3050 2419 3304 2112 
Q 3559 1806 3559 1356 
Q 3559 666 3084 287 
Q 2609 -91 1734 -91 
Q 1441 -91 1130 -33 
Q 819 25 488 141 
L 488 750 
Q 750 597 1062 519 
Q 1375 441 1716 441 
Q 2309 441 2620 675 
Q 2931 909 2931 1356 
Q 2931 1769 2642 2001 
Q 2353 2234 1838 2234 
L 1294 2234 
L 1294 2753 
L 1863 2753 
Q 2328 2753 2575 2939 
Q 2822 3125 2822 3475 
Q 2822 3834 2567 4026 
Q 2313 4219 1838 4219 
Q 1578 4219 1281 4162 
Q 984 4106 628 3988 
L 628 4550 
Q 988 4650 1302 4700 
Q 1616 4750 1894 4750 
Q 2613 4750 3031 4423 
Q 3450 4097 3450 3541 
Q 3450 3153 3228 2886 
Q 3006 2619 2597 2516 
z
" transform="scale(0.015625)"/>
      </defs>
      <use xlink:href="#TimesNewRomanPSMT-46" transform="translate(0 0.5625)"/>
      <use xlink:href="#TimesNewRomanPSMT-61" transform="translate(55.615234 0.5625)"/>
      <use xlink:href="#TimesNewRomanPSMT-69" transform="translate(100 0.5625)"/>
      <use xlink:href="#TimesNewRomanPSMT-72" transform="translate(127.783203 0.5625)"/>
      <use xlink:href="#TimesNewRomanPSMT-6e" transform="translate(161.083984 0.5625)"/>
      <use xlink:href="#TimesNewRomanPSMT-65" transform="translate(211.083984 0.5625)"/>
      <use xlink:href="#TimesNewRomanPSMT-73" transform="translate(255.46875 0.5625)"/>
      <use xlink:href="#TimesNewRomanPSMT-73" transform="translate(294.384766 0.5625)"/>
      <use xlink:href="#TimesNewRomanPSMT-20" transform="translate(333.300781 0.5625)"/>
      <use xlink:href="#TimesNewRomanPSMT-64" transform="translate(358.300781 0.5625)"/>
      <use xlink:href="#TimesNewRomanPSMT-69" transform="translate(408.300781 0.5625)"/>
      <use xlink:href="#TimesNewRomanPSMT-6d" transform="translate(436.083984 0.5625)"/>
      <use xlink:href="#TimesNewRomanPSMT-65" transform="translate(513.867188 0.5625)"/>
      <use xlink:href="#TimesNewRomanPSMT-6e" transform="translate(558.251953 0.5625)"/>
      <use xlink:href="#TimesNewRomanPSMT-73" transform="translate(608.251953 0.5625)"/>
      <use xlink:href="#TimesNewRomanPSMT-69" transform="translate(647.167969 0.5625)"/>
      <use xlink:href="#TimesNewRomanPSMT-6f" transform="translate(674.951172 0.5625)"/>
      <use xlink:href="#TimesNewRomanPSMT-6e" transform="translate(724.951172 0.5625)"/>
      <use xlink:href="#TimesNewRomanPSMT-20" transform="translate(774.951172 0.5625)"/>
      <use xlink:href="#TimesNewRomanPSMT-28" transform="translate(799.951172 0.5625)"/>
      <use xlink:href="#DejaVuSans-Oblique-61" transform="translate(833.251953 0.5625)"/>
      <use xlink:href="#DejaVuSans-33" transform="translate(894.53125 -15.84375) scale(0.7)"/>
      <use xlink:href="#TimesNewRomanPSMT-29" transform="translate(941.801758 0.5625)"/>
     </g>
    </g>
   </g>
   <g id="patch_3">
    <path d="M 31.9 273.458125 
L 31.9 23.978125 
" style="fill: none; stroke: #000000; stroke-width: 0.8; stroke-linejoin: miter; stroke-linecap: square"/>
   </g>
   <g id="patch_4">
    <path d="M 31.9 273.458125 
L 281.38 273.458125 
" style="fill: none; stroke: #000000; stroke-width: 0.8; stroke-linejoin: miter; stroke-linecap: square"/>
   </g>
   <g id="text_13">
    <!-- Current -->
    <g style="fill: #333333" transform="translate(142.71375 160.608275) scale(0.08 -0.08)">
     <defs>
      <path id="TimesNewRomanPS-BoldMT-43" d="M 4272 4334 
L 4272 2866 
L 4150 2866 
Q 4013 3441 3638 3747 
Q 3263 4053 2788 4053 
Q 2391 4053 2059 3825 
Q 1728 3597 1575 3228 
Q 1378 2756 1378 2178 
Q 1378 1609 1522 1142 
Q 1666 675 1972 436 
Q 2278 197 2766 197 
Q 3166 197 3498 372 
Q 3831 547 4200 975 
L 4200 609 
Q 3844 238 3458 70 
Q 3072 -97 2556 -97 
Q 1878 -97 1351 175 
Q 825 447 539 956 
Q 253 1466 253 2041 
Q 253 2647 570 3190 
Q 888 3734 1427 4034 
Q 1966 4334 2572 4334 
Q 3019 4334 3516 4141 
Q 3803 4028 3881 4028 
Q 3981 4028 4054 4101 
Q 4128 4175 4150 4334 
L 4272 4334 
z
" transform="scale(0.015625)"/>
      <path id="TimesNewRomanPS-BoldMT-75" d="M 3038 2922 
L 3038 634 
Q 3038 300 3100 217 
Q 3163 134 3353 113 
L 3353 0 
L 2163 0 
L 2163 391 
Q 1953 141 1743 26 
Q 1534 -88 1275 -88 
Q 1028 -88 836 64 
Q 644 216 578 419 
Q 513 622 513 1128 
L 513 2288 
Q 513 2619 452 2700 
Q 391 2781 197 2806 
L 197 2922 
L 1388 2922 
L 1388 925 
Q 1388 613 1417 522 
Q 1447 431 1511 384 
Q 1575 338 1659 338 
Q 1772 338 1863 397 
Q 1988 478 2163 725 
L 2163 2288 
Q 2163 2619 2102 2700 
Q 2041 2781 1847 2806 
L 1847 2922 
L 3038 2922 
z
" transform="scale(0.015625)"/>
      <path id="TimesNewRomanPS-BoldMT-72" d="M 1428 2922 
L 1428 2259 
Q 1719 2713 1937 2861 
Q 2156 3009 2359 3009 
Q 2534 3009 2639 2901 
Q 2744 2794 2744 2597 
Q 2744 2388 2642 2272 
Q 2541 2156 2397 2156 
Q 2231 2156 2109 2262 
Q 1988 2369 1966 2381 
Q 1934 2400 1894 2400 
Q 1803 2400 1722 2331 
Q 1594 2225 1528 2028 
Q 1428 1725 1428 1359 
L 1428 688 
L 1431 513 
Q 1431 334 1453 284 
Q 1491 200 1564 161 
Q 1638 122 1813 113 
L 1813 0 
L 234 0 
L 234 113 
Q 425 128 492 217 
Q 559 306 559 688 
L 559 2303 
Q 559 2553 534 2622 
Q 503 2709 443 2750 
Q 384 2791 234 2806 
L 234 2922 
L 1428 2922 
z
" transform="scale(0.015625)"/>
      <path id="TimesNewRomanPS-BoldMT-65" d="M 2691 1566 
L 1088 1566 
Q 1116 984 1397 647 
Q 1613 388 1916 388 
Q 2103 388 2256 492 
Q 2409 597 2584 869 
L 2691 800 
Q 2453 316 2165 114 
Q 1878 -88 1500 -88 
Q 850 -88 516 413 
Q 247 816 247 1413 
Q 247 2144 642 2576 
Q 1038 3009 1569 3009 
Q 2013 3009 2339 2645 
Q 2666 2281 2691 1566 
z
M 1922 1775 
Q 1922 2278 1867 2465 
Q 1813 2653 1697 2750 
Q 1631 2806 1522 2806 
Q 1359 2806 1256 2647 
Q 1072 2369 1072 1884 
L 1072 1775 
L 1922 1775 
z
" transform="scale(0.015625)"/>
      <path id="TimesNewRomanPS-BoldMT-6e" d="M 1409 2922 
L 1409 2544 
Q 1634 2788 1840 2898 
Q 2047 3009 2284 3009 
Q 2569 3009 2756 2851 
Q 2944 2694 3006 2459 
Q 3056 2281 3056 1775 
L 3056 638 
Q 3056 300 3117 217 
Q 3178 134 3372 113 
L 3372 0 
L 1894 0 
L 1894 113 
Q 2059 134 2131 250 
Q 2181 328 2181 638 
L 2181 1938 
Q 2181 2297 2153 2390 
Q 2125 2484 2058 2536 
Q 1991 2588 1909 2588 
Q 1641 2588 1409 2203 
L 1409 638 
Q 1409 309 1470 221 
Q 1531 134 1697 113 
L 1697 0 
L 219 0 
L 219 113 
Q 403 131 481 231 
Q 534 300 534 638 
L 534 2288 
Q 534 2619 473 2700 
Q 413 2781 219 2806 
L 219 2922 
L 1409 2922 
z
" transform="scale(0.015625)"/>
      <path id="TimesNewRomanPS-BoldMT-74" d="M 1375 3991 
L 1375 2922 
L 2069 2922 
L 2069 2613 
L 1375 2613 
L 1375 809 
Q 1375 556 1398 482 
Q 1422 409 1481 364 
Q 1541 319 1591 319 
Q 1794 319 1975 628 
L 2069 559 
Q 1816 -41 1247 -41 
Q 969 -41 776 114 
Q 584 269 531 459 
Q 500 566 500 1034 
L 500 2613 
L 119 2613 
L 119 2722 
Q 513 3000 789 3306 
Q 1066 3613 1272 3991 
L 1375 3991 
z
" transform="scale(0.015625)"/>
     </defs>
     <use xlink:href="#TimesNewRomanPS-BoldMT-43"/>
     <use xlink:href="#TimesNewRomanPS-BoldMT-75" transform="translate(72.216797 0)"/>
     <use xlink:href="#TimesNewRomanPS-BoldMT-72" transform="translate(127.832031 0)"/>
     <use xlink:href="#TimesNewRomanPS-BoldMT-72" transform="translate(172.216797 0)"/>
     <use xlink:href="#TimesNewRomanPS-BoldMT-65" transform="translate(214.851562 0)"/>
     <use xlink:href="#TimesNewRomanPS-BoldMT-6e" transform="translate(259.236328 0)"/>
     <use xlink:href="#TimesNewRomanPS-BoldMT-74" transform="translate(314.851562 0)"/>
    </g>
    <!-- state -->
    <g style="fill: #333333" transform="translate(148.64375 168.676525) scale(0.08 -0.08)">
     <defs>
      <path id="TimesNewRomanPS-BoldMT-73" d="M 2063 3003 
L 2109 2006 
L 2003 2006 
Q 1813 2450 1608 2612 
Q 1403 2775 1200 2775 
Q 1072 2775 981 2689 
Q 891 2603 891 2491 
Q 891 2406 953 2328 
Q 1053 2200 1512 1889 
Q 1972 1578 2117 1361 
Q 2263 1144 2263 875 
Q 2263 631 2141 397 
Q 2019 163 1797 37 
Q 1575 -88 1306 -88 
Q 1097 -88 747 44 
Q 653 78 619 78 
Q 516 78 447 -78 
L 344 -78 
L 294 972 
L 400 972 
Q 541 559 786 353 
Q 1031 147 1250 147 
Q 1400 147 1495 239 
Q 1591 331 1591 463 
Q 1591 613 1497 722 
Q 1403 831 1078 1053 
Q 600 1384 459 1559 
Q 253 1816 253 2125 
Q 253 2463 486 2736 
Q 719 3009 1159 3009 
Q 1397 3009 1619 2894 
Q 1703 2847 1756 2847 
Q 1813 2847 1847 2870 
Q 1881 2894 1956 3003 
L 2063 3003 
z
" transform="scale(0.015625)"/>
      <path id="TimesNewRomanPS-BoldMT-61" d="M 1828 431 
Q 1294 -41 869 -41 
Q 619 -41 453 123 
Q 288 288 288 534 
Q 288 869 575 1136 
Q 863 1403 1828 1847 
L 1828 2141 
Q 1828 2472 1792 2558 
Q 1756 2644 1656 2708 
Q 1556 2772 1431 2772 
Q 1228 2772 1097 2681 
Q 1016 2625 1016 2550 
Q 1016 2484 1103 2388 
Q 1222 2253 1222 2128 
Q 1222 1975 1108 1867 
Q 994 1759 809 1759 
Q 613 1759 480 1878 
Q 347 1997 347 2156 
Q 347 2381 525 2586 
Q 703 2791 1022 2900 
Q 1341 3009 1684 3009 
Q 2100 3009 2342 2832 
Q 2584 2656 2656 2450 
Q 2700 2319 2700 1847 
L 2700 713 
Q 2700 513 2715 461 
Q 2731 409 2762 384 
Q 2794 359 2834 359 
Q 2916 359 3000 475 
L 3094 400 
Q 2938 169 2770 64 
Q 2603 -41 2391 -41 
Q 2141 -41 2000 76 
Q 1859 194 1828 431 
z
M 1828 659 
L 1828 1638 
Q 1450 1416 1266 1163 
Q 1144 994 1144 822 
Q 1144 678 1247 569 
Q 1325 484 1466 484 
Q 1622 484 1828 659 
z
" transform="scale(0.015625)"/>
     </defs>
     <use xlink:href="#TimesNewRomanPS-BoldMT-73"/>
     <use xlink:href="#TimesNewRomanPS-BoldMT-74" transform="translate(38.916016 0)"/>
     <use xlink:href="#TimesNewRomanPS-BoldMT-61" transform="translate(72.216797 0)"/>
     <use xlink:href="#TimesNewRomanPS-BoldMT-74" transform="translate(122.216797 0)"/>
     <use xlink:href="#TimesNewRomanPS-BoldMT-65" transform="translate(155.517578 0)"/>
    </g>
   </g>
   <g id="patch_5">
    <path d="M 166.126605 148.718125 
Q 197.806033 148.718125 226.690377 148.718125 
" style="fill: none; stroke: #2ca02c; stroke-width: 2.5; stroke-linecap: round"/>
    <path d="M 222.690377 146.718125 
L 226.690377 148.718125 
L 222.690377 150.718125 
" style="fill: none; stroke: #2ca02c; stroke-width: 2.5; stroke-linecap: round"/>
   </g>
   <g id="text_14">
    <!-- Gain: $+\delta$ -->
    <g style="fill: #2ca02c" transform="translate(236.4736 143.973325) scale(0.08 -0.08)">
     <defs>
      <path id="TimesNewRomanPS-BoldMT-47" d="M 4416 4334 
L 4416 2841 
L 4300 2841 
Q 4091 3453 3672 3772 
Q 3253 4091 2756 4091 
Q 2281 4091 1965 3823 
Q 1650 3556 1519 3078 
Q 1388 2600 1388 2097 
Q 1388 1488 1531 1028 
Q 1675 569 1995 353 
Q 2316 138 2756 138 
Q 2909 138 3070 170 
Q 3231 203 3400 266 
L 3400 1147 
Q 3400 1397 3365 1470 
Q 3331 1544 3223 1603 
Q 3116 1663 2963 1663 
L 2853 1663 
L 2853 1778 
L 4913 1778 
L 4913 1663 
Q 4678 1647 4586 1598 
Q 4494 1550 4444 1438 
Q 4416 1378 4416 1147 
L 4416 266 
Q 4009 84 3570 -8 
Q 3131 -100 2659 -100 
Q 2056 -100 1657 64 
Q 1259 228 954 495 
Q 650 763 478 1097 
Q 259 1528 259 2063 
Q 259 3019 931 3678 
Q 1603 4338 2622 4338 
Q 2938 4338 3191 4288 
Q 3328 4263 3636 4145 
Q 3944 4028 4000 4028 
Q 4088 4028 4163 4092 
Q 4238 4156 4300 4334 
L 4416 4334 
z
" transform="scale(0.015625)"/>
      <path id="TimesNewRomanPS-BoldMT-69" d="M 919 4338 
Q 1122 4338 1262 4195 
Q 1403 4053 1403 3853 
Q 1403 3653 1261 3512 
Q 1119 3372 919 3372 
Q 719 3372 578 3512 
Q 438 3653 438 3853 
Q 438 4053 578 4195 
Q 719 4338 919 4338 
z
M 1356 2922 
L 1356 606 
Q 1356 297 1428 211 
Q 1500 125 1709 113 
L 1709 0 
L 131 0 
L 131 113 
Q 325 119 419 225 
Q 481 297 481 606 
L 481 2313 
Q 481 2622 409 2708 
Q 338 2794 131 2806 
L 131 2922 
L 1356 2922 
z
" transform="scale(0.015625)"/>
      <path id="TimesNewRomanPS-BoldMT-3a" d="M 1069 3006 
Q 1284 3006 1436 2854 
Q 1588 2703 1588 2488 
Q 1588 2272 1436 2120 
Q 1284 1969 1069 1969 
Q 853 1969 701 2120 
Q 550 2272 550 2488 
Q 550 2703 701 2854 
Q 853 3006 1069 3006 
z
M 1066 963 
Q 1284 963 1436 809 
Q 1588 656 1588 441 
Q 1588 225 1434 73 
Q 1281 -78 1066 -78 
Q 850 -78 698 73 
Q 547 225 547 441 
Q 547 656 698 809 
Q 850 963 1066 963 
z
" transform="scale(0.015625)"/>
      <path id="TimesNewRomanPS-BoldMT-20" transform="scale(0.015625)"/>
      <path id="DejaVuSans-2b" d="M 2944 4013 
L 2944 2272 
L 4684 2272 
L 4684 1741 
L 2944 1741 
L 2944 0 
L 2419 0 
L 2419 1741 
L 678 1741 
L 678 2272 
L 2419 2272 
L 2419 4013 
L 2944 4013 
z
" transform="scale(0.015625)"/>
      <path id="DejaVuSans-Oblique-3b4" d="M 3472 4053 
Q 3197 4272 2450 4272 
Q 1659 4272 1588 3906 
Q 1531 3619 2328 3469 
Q 2953 3353 3253 3003 
Q 3616 2581 3447 1716 
Q 3284 888 2763 400 
Q 2238 -91 1488 -91 
Q 741 -91 406 400 
Q 72 888 241 1747 
Q 363 2384 891 2900 
Q 1097 3100 1353 3213 
Q 913 3459 1000 3900 
Q 1166 4750 2544 4750 
Q 3234 4750 3566 4531 
L 3472 4053 
z
M 1753 3056 
Q 1525 2966 1306 2738 
Q 969 2384 847 1747 
Q 722 1113 919 756 
Q 1119 397 1584 397 
Q 2044 397 2381 759 
Q 2722 1122 2838 1716 
Q 2956 2338 2731 2638 
Q 2491 2959 2103 2994 
Q 1906 3013 1753 3056 
z
" transform="scale(0.015625)"/>
     </defs>
     <use xlink:href="#TimesNewRomanPS-BoldMT-47" transform="translate(0 0.78125)"/>
     <use xlink:href="#TimesNewRomanPS-BoldMT-61" transform="translate(77.783203 0.78125)"/>
     <use xlink:href="#TimesNewRomanPS-BoldMT-69" transform="translate(127.783203 0.78125)"/>
     <use xlink:href="#TimesNewRomanPS-BoldMT-6e" transform="translate(155.566406 0.78125)"/>
     <use xlink:href="#TimesNewRomanPS-BoldMT-3a" transform="translate(211.181641 0.78125)"/>
     <use xlink:href="#TimesNewRomanPS-BoldMT-20" transform="translate(244.482422 0.78125)"/>
     <use xlink:href="#DejaVuSans-2b" transform="translate(269.482422 0.78125)"/>
     <use xlink:href="#DejaVuSans-Oblique-3b4" transform="translate(353.271484 0.78125)"/>
    </g>
    <!-- (1 dimension) -->
    <g style="fill: #2ca02c" transform="translate(236.4736 152.059575) scale(0.08 -0.08)">
     <defs>
      <path id="TimesNewRomanPS-BoldMT-28" d="M 2056 4334 
L 2056 4191 
Q 1731 3978 1578 3775 
Q 1366 3494 1247 3053 
Q 1097 2506 1097 1525 
Q 1097 600 1233 87 
Q 1369 -425 1603 -741 
Q 1766 -959 2056 -1125 
L 2056 -1281 
Q 1303 -1028 779 -248 
Q 256 531 256 1544 
Q 256 2544 778 3314 
Q 1300 4084 2056 4334 
z
" transform="scale(0.015625)"/>
      <path id="TimesNewRomanPS-BoldMT-31" d="M 2084 4325 
L 2084 859 
Q 2084 469 2118 361 
Q 2153 253 2262 184 
Q 2372 116 2613 116 
L 2709 116 
L 2709 0 
L 478 0 
L 478 116 
L 591 116 
Q 863 116 978 178 
Q 1094 241 1134 350 
Q 1175 459 1175 859 
L 1175 3056 
Q 1175 3350 1147 3423 
Q 1119 3497 1042 3548 
Q 966 3600 866 3600 
Q 706 3600 478 3500 
L 422 3613 
L 1981 4325 
L 2084 4325 
z
" transform="scale(0.015625)"/>
      <path id="TimesNewRomanPS-BoldMT-64" d="M 3056 4238 
L 3056 875 
Q 3056 534 3075 472 
Q 3100 369 3170 319 
Q 3241 269 3416 256 
L 3416 153 
L 2181 -88 
L 2181 375 
Q 1959 106 1786 9 
Q 1613 -88 1394 -88 
Q 834 -88 509 413 
Q 247 819 247 1409 
Q 247 1881 409 2254 
Q 572 2628 855 2818 
Q 1138 3009 1463 3009 
Q 1672 3009 1834 2928 
Q 1997 2847 2181 2644 
L 2181 3525 
Q 2181 3859 2153 3928 
Q 2116 4019 2041 4062 
Q 1966 4106 1759 4106 
L 1759 4238 
L 3056 4238 
z
M 2181 2256 
Q 1950 2700 1616 2700 
Q 1500 2700 1425 2638 
Q 1309 2541 1236 2297 
Q 1163 2053 1163 1550 
Q 1163 997 1244 731 
Q 1325 466 1466 347 
Q 1538 288 1663 288 
Q 1938 288 2181 719 
L 2181 2256 
z
" transform="scale(0.015625)"/>
      <path id="TimesNewRomanPS-BoldMT-6d" d="M 1428 2922 
L 1428 2538 
Q 1669 2800 1873 2904 
Q 2078 3009 2322 3009 
Q 2603 3009 2793 2878 
Q 2984 2747 3088 2478 
Q 3338 2759 3567 2884 
Q 3797 3009 4047 3009 
Q 4350 3009 4529 2870 
Q 4709 2731 4779 2517 
Q 4850 2303 4850 1834 
L 4850 638 
Q 4850 300 4911 219 
Q 4972 138 5166 113 
L 5166 0 
L 3656 0 
L 3656 113 
Q 3834 128 3919 250 
Q 3975 334 3975 638 
L 3975 1894 
Q 3975 2284 3944 2390 
Q 3913 2497 3845 2548 
Q 3778 2600 3688 2600 
Q 3553 2600 3415 2501 
Q 3278 2403 3138 2206 
L 3138 638 
Q 3138 322 3191 241 
Q 3263 125 3466 113 
L 3466 0 
L 1953 0 
L 1953 113 
Q 2075 119 2145 173 
Q 2216 228 2239 304 
Q 2263 381 2263 638 
L 2263 1894 
Q 2263 2291 2231 2391 
Q 2200 2491 2126 2547 
Q 2053 2603 1969 2603 
Q 1844 2603 1741 2538 
Q 1594 2441 1428 2206 
L 1428 638 
Q 1428 328 1489 229 
Q 1550 131 1744 113 
L 1744 0 
L 238 0 
L 238 113 
Q 422 131 500 231 
Q 553 300 553 638 
L 553 2288 
Q 553 2619 492 2700 
Q 431 2781 238 2806 
L 238 2922 
L 1428 2922 
z
" transform="scale(0.015625)"/>
      <path id="TimesNewRomanPS-BoldMT-6f" d="M 1594 3009 
Q 1975 3009 2303 2812 
Q 2631 2616 2801 2253 
Q 2972 1891 2972 1459 
Q 2972 838 2656 419 
Q 2275 -88 1603 -88 
Q 944 -88 587 375 
Q 231 838 231 1447 
Q 231 2075 595 2542 
Q 959 3009 1594 3009 
z
M 1606 2788 
Q 1447 2788 1333 2667 
Q 1219 2547 1183 2192 
Q 1147 1838 1147 1206 
Q 1147 872 1191 581 
Q 1225 359 1337 243 
Q 1450 128 1594 128 
Q 1734 128 1828 206 
Q 1950 313 1991 503 
Q 2053 800 2053 1703 
Q 2053 2234 1993 2432 
Q 1934 2631 1819 2722 
Q 1738 2788 1606 2788 
z
" transform="scale(0.015625)"/>
      <path id="TimesNewRomanPS-BoldMT-29" d="M 78 -1281 
L 78 -1138 
Q 403 -922 556 -719 
Q 766 -438 888 0 
Q 1038 550 1038 1531 
Q 1038 2456 902 2967 
Q 766 3478 531 3794 
Q 369 4013 78 4178 
L 78 4334 
Q 831 4081 1354 3301 
Q 1878 2522 1878 1509 
Q 1878 513 1354 -257 
Q 831 -1028 78 -1281 
z
" transform="scale(0.015625)"/>
     </defs>
     <use xlink:href="#TimesNewRomanPS-BoldMT-28"/>
     <use xlink:href="#TimesNewRomanPS-BoldMT-31" transform="translate(33.300781 0)"/>
     <use xlink:href="#TimesNewRomanPS-BoldMT-20" transform="translate(83.300781 0)"/>
     <use xlink:href="#TimesNewRomanPS-BoldMT-64" transform="translate(108.300781 0)"/>
     <use xlink:href="#TimesNewRomanPS-BoldMT-69" transform="translate(163.916016 0)"/>
     <use xlink:href="#TimesNewRomanPS-BoldMT-6d" transform="translate(191.699219 0)"/>
     <use xlink:href="#TimesNewRomanPS-BoldMT-65" transform="translate(275 0)"/>
     <use xlink:href="#TimesNewRomanPS-BoldMT-6e" transform="translate(319.384766 0)"/>
     <use xlink:href="#TimesNewRomanPS-BoldMT-73" transform="translate(375 0)"/>
     <use xlink:href="#TimesNewRomanPS-BoldMT-69" transform="translate(413.916016 0)"/>
     <use xlink:href="#TimesNewRomanPS-BoldMT-6f" transform="translate(441.699219 0)"/>
     <use xlink:href="#TimesNewRomanPS-BoldMT-6e" transform="translate(491.699219 0)"/>
     <use xlink:href="#TimesNewRomanPS-BoldMT-29" transform="translate(547.314453 0)"/>
    </g>
   </g>
   <g id="patch_6">
    <path d="M 149.238405 156.11972 
Q 121.213518 184.144607 95.165056 210.193069 
" style="fill: none; stroke: #d62728; stroke-width: 2.5; stroke-linecap: round"/>
    <path d="M 99.407696 208.778856 
L 95.165056 210.193069 
L 96.579269 205.950429 
" style="fill: none; stroke: #d62728; stroke-width: 2.5; stroke-linecap: round"/>
   </g>
   <g id="text_15">
    <!-- Loss: $-\delta$ -->
    <g style="fill: #d62728" transform="translate(61.8376 221.312125) scale(0.08 -0.08)">
     <defs>
      <path id="TimesNewRomanPS-BoldMT-4c" d="M 4041 1488 
L 3881 0 
L 119 0 
L 119 116 
L 259 116 
Q 444 116 556 181 
Q 638 225 681 331 
Q 716 406 716 725 
L 716 3513 
Q 716 3838 681 3919 
Q 647 4000 542 4061 
Q 438 4122 259 4122 
L 119 4122 
L 119 4238 
L 2378 4238 
L 2378 4122 
L 2194 4122 
Q 2009 4122 1897 4056 
Q 1816 4013 1769 3906 
Q 1734 3831 1734 3513 
L 1734 813 
Q 1734 488 1771 398 
Q 1809 309 1919 266 
Q 1997 238 2297 238 
L 2650 238 
Q 2988 238 3213 356 
Q 3438 475 3602 731 
Q 3766 988 3913 1488 
L 4041 1488 
z
" transform="scale(0.015625)"/>
      <path id="DejaVuSans-2212" d="M 678 2272 
L 4684 2272 
L 4684 1741 
L 678 1741 
L 678 2272 
z
" transform="scale(0.015625)"/>
     </defs>
     <use xlink:href="#TimesNewRomanPS-BoldMT-4c" transform="translate(0 0.78125)"/>
     <use xlink:href="#TimesNewRomanPS-BoldMT-6f" transform="translate(66.699219 0.78125)"/>
     <use xlink:href="#TimesNewRomanPS-BoldMT-73" transform="translate(116.699219 0.78125)"/>
     <use xlink:href="#TimesNewRomanPS-BoldMT-73" transform="translate(155.615234 0.78125)"/>
     <use xlink:href="#TimesNewRomanPS-BoldMT-3a" transform="translate(194.53125 0.78125)"/>
     <use xlink:href="#TimesNewRomanPS-BoldMT-20" transform="translate(227.832031 0.78125)"/>
     <use xlink:href="#DejaVuSans-2212" transform="translate(252.832031 0.78125)"/>
     <use xlink:href="#DejaVuSans-Oblique-3b4" transform="translate(336.621094 0.78125)"/>
    </g>
    <!-- (2 dimensions) -->
    <g style="fill: #d62728" transform="translate(61.8376 229.398375) scale(0.08 -0.08)">
     <defs>
      <path id="TimesNewRomanPS-BoldMT-32" d="M 2650 0 
L 156 0 
L 156 69 
Q 1303 1434 1548 1906 
Q 1794 2378 1794 2828 
Q 1794 3156 1591 3373 
Q 1388 3591 1094 3591 
Q 613 3591 347 3109 
L 231 3150 
Q 400 3750 744 4037 
Q 1088 4325 1538 4325 
Q 1859 4325 2125 4175 
Q 2391 4025 2541 3764 
Q 2691 3503 2691 3275 
Q 2691 2859 2459 2431 
Q 2144 1853 1081 819 
L 1997 819 
Q 2334 819 2436 847 
Q 2538 875 2603 942 
Q 2669 1009 2775 1225 
L 2888 1225 
L 2650 0 
z
" transform="scale(0.015625)"/>
     </defs>
     <use xlink:href="#TimesNewRomanPS-BoldMT-28"/>
     <use xlink:href="#TimesNewRomanPS-BoldMT-32" transform="translate(33.300781 0)"/>
     <use xlink:href="#TimesNewRomanPS-BoldMT-20" transform="translate(83.300781 0)"/>
     <use xlink:href="#TimesNewRomanPS-BoldMT-64" transform="translate(108.300781 0)"/>
     <use xlink:href="#TimesNewRomanPS-BoldMT-69" transform="translate(163.916016 0)"/>
     <use xlink:href="#TimesNewRomanPS-BoldMT-6d" transform="translate(191.699219 0)"/>
     <use xlink:href="#TimesNewRomanPS-BoldMT-65" transform="translate(275 0)"/>
     <use xlink:href="#TimesNewRomanPS-BoldMT-6e" transform="translate(319.384766 0)"/>
     <use xlink:href="#TimesNewRomanPS-BoldMT-73" transform="translate(375 0)"/>
     <use xlink:href="#TimesNewRomanPS-BoldMT-69" transform="translate(413.916016 0)"/>
     <use xlink:href="#TimesNewRomanPS-BoldMT-6f" transform="translate(441.699219 0)"/>
     <use xlink:href="#TimesNewRomanPS-BoldMT-6e" transform="translate(491.699219 0)"/>
     <use xlink:href="#TimesNewRomanPS-BoldMT-73" transform="translate(547.314453 0)"/>
     <use xlink:href="#TimesNewRomanPS-BoldMT-29" transform="translate(586.230469 0)"/>
    </g>
   </g>
   <g id="text_16">
    <!-- |gain| = 1.5 -->
    <g style="fill: #2ca02c" transform="translate(196.5568 133.749325) scale(0.075 -0.075)">
     <defs>
      <path id="TimesNewRomanPS-ItalicMT-7c" d="M 1000 4444 
L 1000 -1381 
L 741 -1381 
L 741 4444 
L 1000 4444 
z
" transform="scale(0.015625)"/>
      <path id="TimesNewRomanPS-ItalicMT-67" d="M 3334 2634 
L 3244 2309 
L 2722 2309 
Q 2781 2141 2781 1994 
Q 2781 1581 2431 1259 
Q 2078 938 1463 903 
Q 1131 803 966 666 
Q 903 616 903 563 
Q 903 500 959 448 
Q 1016 397 1244 344 
L 1850 203 
Q 2353 84 2516 -78 
Q 2675 -244 2675 -459 
Q 2675 -716 2486 -928 
Q 2297 -1141 1933 -1261 
Q 1569 -1381 1128 -1381 
Q 741 -1381 422 -1289 
Q 103 -1197 -34 -1040 
Q -172 -884 -172 -719 
Q -172 -584 -83 -439 
Q 6 -294 141 -200 
Q 225 -141 619 81 
Q 475 194 475 328 
Q 475 453 601 593 
Q 728 734 1138 903 
Q 794 969 592 1191 
Q 391 1413 391 1684 
Q 391 2128 780 2478 
Q 1169 2828 1816 2828 
Q 2050 2828 2200 2781 
Q 2350 2734 2491 2634 
L 3334 2634 
z
M 2250 2144 
Q 2250 2394 2111 2537 
Q 1972 2681 1747 2681 
Q 1394 2681 1164 2326 
Q 934 1972 934 1588 
Q 934 1347 1081 1194 
Q 1228 1041 1438 1041 
Q 1603 1041 1758 1131 
Q 1913 1222 2019 1381 
Q 2125 1541 2187 1787 
Q 2250 2034 2250 2144 
z
M 753 0 
Q 500 -116 370 -297 
Q 241 -478 241 -653 
Q 241 -859 428 -994 
Q 697 -1188 1216 -1188 
Q 1663 -1188 1980 -1036 
Q 2297 -884 2297 -644 
Q 2297 -522 2180 -412 
Q 2063 -303 1725 -234 
Q 1541 -197 753 0 
z
" transform="scale(0.015625)"/>
      <path id="TimesNewRomanPS-ItalicMT-61" d="M 3003 2828 
L 2394 709 
L 2325 425 
Q 2316 384 2316 356 
Q 2316 306 2347 269 
Q 2372 241 2409 241 
Q 2450 241 2516 291 
Q 2638 381 2841 666 
L 2947 591 
Q 2731 266 2503 95 
Q 2275 -75 2081 -75 
Q 1947 -75 1880 -8 
Q 1813 59 1813 188 
Q 1813 341 1881 591 
L 1947 825 
Q 1538 291 1194 78 
Q 947 -75 709 -75 
Q 481 -75 315 114 
Q 150 303 150 634 
Q 150 1131 448 1682 
Q 747 2234 1206 2566 
Q 1566 2828 1884 2828 
Q 2075 2828 2201 2728 
Q 2328 2628 2394 2397 
L 2506 2753 
L 3003 2828 
z
M 1891 2666 
Q 1691 2666 1466 2478 
Q 1147 2213 898 1691 
Q 650 1169 650 747 
Q 650 534 756 411 
Q 863 288 1000 288 
Q 1341 288 1741 791 
Q 2275 1459 2275 2163 
Q 2275 2428 2172 2547 
Q 2069 2666 1891 2666 
z
" transform="scale(0.015625)"/>
      <path id="TimesNewRomanPS-ItalicMT-69" d="M 1431 4069 
Q 1563 4069 1653 3978 
Q 1744 3888 1744 3756 
Q 1744 3628 1651 3536 
Q 1559 3444 1431 3444 
Q 1303 3444 1211 3536 
Q 1119 3628 1119 3756 
Q 1119 3888 1209 3978 
Q 1300 4069 1431 4069 
z
M 1472 2828 
L 853 638 
Q 791 416 791 372 
Q 791 322 820 290 
Q 850 259 891 259 
Q 938 259 1003 309 
Q 1181 450 1363 709 
L 1472 638 
Q 1259 313 972 91 
Q 759 -75 566 -75 
Q 438 -75 356 1 
Q 275 78 275 194 
Q 275 309 353 578 
L 759 1978 
Q 859 2322 859 2409 
Q 859 2478 811 2522 
Q 763 2566 678 2566 
Q 609 2566 394 2531 
L 394 2653 
L 1472 2828 
z
" transform="scale(0.015625)"/>
      <path id="TimesNewRomanPS-ItalicMT-6e" d="M 1413 2828 
L 997 1406 
Q 1581 2278 1892 2553 
Q 2203 2828 2491 2828 
Q 2647 2828 2748 2725 
Q 2850 2622 2850 2456 
Q 2850 2269 2759 1956 
L 2378 641 
Q 2313 413 2313 363 
Q 2313 319 2338 289 
Q 2363 259 2391 259 
Q 2428 259 2481 300 
Q 2647 431 2844 700 
L 2941 641 
Q 2650 225 2391 47 
Q 2209 -75 2066 -75 
Q 1950 -75 1881 -4 
Q 1813 66 1813 184 
Q 1813 334 1919 700 
L 2281 1956 
Q 2350 2191 2350 2322 
Q 2350 2384 2309 2423 
Q 2269 2463 2209 2463 
Q 2122 2463 2000 2388 
Q 1769 2247 1519 1923 
Q 1269 1600 991 1097 
Q 844 831 747 516 
L 591 0 
L 122 0 
L 691 1956 
Q 791 2309 791 2381 
Q 791 2450 736 2501 
Q 681 2553 600 2553 
Q 563 2553 469 2541 
L 350 2522 
L 331 2634 
L 1413 2828 
z
" transform="scale(0.015625)"/>
      <path id="TimesNewRomanPS-ItalicMT-20" transform="scale(0.015625)"/>
      <path id="TimesNewRomanPS-ItalicMT-3d" d="M 625 2759 
L 3997 2759 
L 3997 2503 
L 625 2503 
L 625 2759 
z
M 625 1741 
L 3997 1741 
L 3997 1484 
L 625 1484 
L 625 1741 
z
" transform="scale(0.015625)"/>
      <path id="TimesNewRomanPS-ItalicMT-31" d="M 2672 4325 
L 1666 822 
Q 1578 513 1578 375 
Q 1578 259 1658 198 
Q 1738 138 2031 116 
L 2000 0 
L 391 0 
L 434 116 
Q 691 122 772 156 
Q 903 213 969 306 
Q 1072 450 1178 822 
L 1903 3338 
Q 1969 3566 1975 3600 
Q 1984 3663 1984 3722 
Q 1984 3831 1925 3893 
Q 1866 3956 1763 3956 
Q 1681 3956 1509 3919 
L 1469 4031 
L 2522 4325 
L 2672 4325 
z
" transform="scale(0.015625)"/>
      <path id="TimesNewRomanPS-ItalicMT-2e" d="M 531 559 
Q 666 559 758 467 
Q 850 375 850 244 
Q 850 113 756 20 
Q 663 -72 531 -72 
Q 400 -72 308 20 
Q 216 113 216 244 
Q 216 375 308 467 
Q 400 559 531 559 
z
" transform="scale(0.015625)"/>
      <path id="TimesNewRomanPS-ItalicMT-35" d="M 1650 4238 
L 3066 4238 
L 2922 3722 
L 1650 3722 
L 1416 3200 
Q 1922 3119 2203 2884 
Q 2638 2519 2638 1863 
Q 2638 1428 2477 1076 
Q 2316 725 2083 487 
Q 1850 250 1584 113 
Q 1222 -75 853 -75 
Q 538 -75 353 63 
Q 228 156 228 300 
Q 228 413 309 492 
Q 391 572 509 572 
Q 675 572 878 406 
Q 1003 303 1084 269 
Q 1150 241 1241 241 
Q 1594 241 1891 592 
Q 2188 944 2188 1506 
Q 2188 1897 2030 2172 
Q 1872 2447 1628 2559 
Q 1384 2672 978 2716 
L 1650 4238 
z
" transform="scale(0.015625)"/>
     </defs>
     <use xlink:href="#TimesNewRomanPS-ItalicMT-7c"/>
     <use xlink:href="#TimesNewRomanPS-ItalicMT-67" transform="translate(27.490234 0)"/>
     <use xlink:href="#TimesNewRomanPS-ItalicMT-61" transform="translate(77.490234 0)"/>
     <use xlink:href="#TimesNewRomanPS-ItalicMT-69" transform="translate(127.490234 0)"/>
     <use xlink:href="#TimesNewRomanPS-ItalicMT-6e" transform="translate(155.273438 0)"/>
     <use xlink:href="#TimesNewRomanPS-ItalicMT-7c" transform="translate(205.273438 0)"/>
     <use xlink:href="#TimesNewRomanPS-ItalicMT-20" transform="translate(232.763672 0)"/>
     <use xlink:href="#TimesNewRomanPS-ItalicMT-3d" transform="translate(257.763672 0)"/>
     <use xlink:href="#TimesNewRomanPS-ItalicMT-20" transform="translate(325.244141 0)"/>
     <use xlink:href="#TimesNewRomanPS-ItalicMT-31" transform="translate(350.244141 0)"/>
     <use xlink:href="#TimesNewRomanPS-ItalicMT-2e" transform="translate(400.244141 0)"/>
     <use xlink:href="#TimesNewRomanPS-ItalicMT-35" transform="translate(425.244141 0)"/>
    </g>
   </g>
   <g id="text_17">
    <!-- |loss| = 1.8 -->
    <g style="fill: #d62728" transform="translate(106.744 168.676525) scale(0.075 -0.075)">
     <defs>
      <path id="TimesNewRomanPS-ItalicMT-6c" d="M 1903 4444 
L 834 725 
Q 756 447 756 384 
Q 756 338 786 306 
Q 816 275 859 275 
Q 919 275 988 328 
Q 1150 456 1328 725 
L 1422 628 
Q 1125 209 875 44 
Q 691 -75 525 -75 
Q 406 -75 326 6 
Q 247 88 247 194 
Q 247 306 347 656 
L 1194 3588 
Q 1297 3947 1297 4000 
Q 1297 4075 1237 4123 
Q 1178 4172 1053 4172 
Q 981 4172 834 4150 
L 834 4266 
L 1903 4444 
z
" transform="scale(0.015625)"/>
      <path id="TimesNewRomanPS-ItalicMT-6f" d="M 2959 1850 
Q 2959 1381 2711 922 
Q 2463 463 2019 194 
Q 1575 -75 1156 -75 
Q 728 -75 458 198 
Q 188 472 188 906 
Q 188 1366 452 1828 
Q 716 2291 1158 2559 
Q 1600 2828 2013 2828 
Q 2425 2828 2692 2556 
Q 2959 2284 2959 1850 
z
M 2441 2066 
Q 2441 2356 2298 2511 
Q 2156 2666 1931 2666 
Q 1472 2666 1086 2008 
Q 700 1350 700 700 
Q 700 403 850 242 
Q 1000 81 1228 81 
Q 1669 81 2055 736 
Q 2441 1391 2441 2066 
z
" transform="scale(0.015625)"/>
      <path id="TimesNewRomanPS-ItalicMT-73" d="M 2322 2828 
L 2131 1869 
L 2016 1869 
Q 2000 2288 1837 2478 
Q 1675 2669 1434 2669 
Q 1241 2669 1127 2562 
Q 1013 2456 1013 2306 
Q 1013 2203 1058 2109 
Q 1103 2016 1256 1847 
Q 1663 1403 1781 1178 
Q 1900 953 1900 753 
Q 1900 428 1629 176 
Q 1359 -75 947 -75 
Q 722 -75 428 31 
Q 325 69 269 69 
Q 128 69 56 -75 
L -59 -75 
L 131 938 
L 247 938 
Q 266 463 444 266 
Q 622 69 931 69 
Q 1169 69 1308 201 
Q 1447 334 1447 528 
Q 1447 653 1397 759 
Q 1309 947 1029 1278 
Q 750 1609 670 1775 
Q 591 1941 591 2106 
Q 591 2409 811 2618 
Q 1031 2828 1378 2828 
Q 1478 2828 1559 2813 
Q 1603 2803 1764 2742 
Q 1925 2681 1978 2681 
Q 2113 2681 2203 2828 
L 2322 2828 
z
" transform="scale(0.015625)"/>
      <path id="TimesNewRomanPS-ItalicMT-38" d="M 2159 2372 
Q 2459 2047 2598 1762 
Q 2738 1478 2738 1194 
Q 2738 684 2350 304 
Q 1963 -75 1394 -75 
Q 884 -75 564 234 
Q 244 544 244 956 
Q 244 1309 505 1650 
Q 766 1991 1491 2306 
Q 1213 2647 1114 2869 
Q 1016 3091 1016 3309 
Q 1016 3725 1327 4025 
Q 1638 4325 2109 4325 
Q 2559 4325 2843 4065 
Q 3128 3806 3128 3459 
Q 3128 3116 2898 2834 
Q 2669 2553 2159 2372 
z
M 2038 2503 
Q 2375 2619 2561 2881 
Q 2747 3144 2747 3484 
Q 2747 3803 2567 3986 
Q 2388 4169 2097 4169 
Q 1819 4169 1647 3994 
Q 1475 3819 1475 3541 
Q 1475 3331 1566 3153 
Q 1697 2891 2038 2503 
z
M 1606 2178 
Q 1141 1984 902 1617 
Q 663 1250 663 828 
Q 663 488 873 280 
Q 1084 72 1428 72 
Q 1784 72 2028 322 
Q 2272 572 2272 919 
Q 2272 1181 2130 1470 
Q 1988 1759 1606 2178 
z
" transform="scale(0.015625)"/>
     </defs>
     <use xlink:href="#TimesNewRomanPS-ItalicMT-7c"/>
     <use xlink:href="#TimesNewRomanPS-ItalicMT-6c" transform="translate(27.490234 0)"/>
     <use xlink:href="#TimesNewRomanPS-ItalicMT-6f" transform="translate(55.273438 0)"/>
     <use xlink:href="#TimesNewRomanPS-ItalicMT-73" transform="translate(105.273438 0)"/>
     <use xlink:href="#TimesNewRomanPS-ItalicMT-73" transform="translate(144.189453 0)"/>
     <use xlink:href="#TimesNewRomanPS-ItalicMT-7c" transform="translate(183.105469 0)"/>
     <use xlink:href="#TimesNewRomanPS-ItalicMT-20" transform="translate(210.595703 0)"/>
     <use xlink:href="#TimesNewRomanPS-ItalicMT-3d" transform="translate(235.595703 0)"/>
     <use xlink:href="#TimesNewRomanPS-ItalicMT-20" transform="translate(303.076172 0)"/>
     <use xlink:href="#TimesNewRomanPS-ItalicMT-31" transform="translate(328.076172 0)"/>
     <use xlink:href="#TimesNewRomanPS-ItalicMT-2e" transform="translate(378.076172 0)"/>
     <use xlink:href="#TimesNewRomanPS-ItalicMT-38" transform="translate(403.076172 0)"/>
    </g>
   </g>
   <g id="text_18">
    <g id="patch_7">
     <path d="M 81.796 79.527094 
L 147.576 79.527094 
Q 150.876 79.527094 150.876 76.227094 
L 150.876 63.687094 
Q 150.876 60.387094 147.576 60.387094 
L 81.796 60.387094 
Q 78.496 60.387094 78.496 63.687094 
L 78.496 76.227094 
Q 78.496 79.527094 81.796 79.527094 
z
" style="fill: #fef3ed; stroke: #b7410e; stroke-linejoin: miter"/>
    </g>
    <!-- $\lambda$ = 1.23 = $\sqrt{2}$ -->
    <g style="fill: #b7410e" transform="translate(81.796 73.874125) scale(0.11 -0.11)">
     <defs>
      <path id="DejaVuSans-Oblique-3bb" d="M 2350 4316 
L 3125 0 
L 2516 0 
L 2038 2588 
L 328 0 
L -281 0 
L 1903 3356 
L 1794 3975 
Q 1725 4369 1391 4369 
L 1091 4369 
L 1184 4863 
L 1550 4856 
Q 2253 4847 2350 4316 
z
" transform="scale(0.015625)"/>
      <path id="TimesNewRomanPS-BoldMT-3d" d="M 125 2825 
L 3544 2825 
L 3544 2419 
L 125 2419 
L 125 2825 
z
M 125 1803 
L 3544 1803 
L 3544 1397 
L 125 1397 
L 125 1803 
z
" transform="scale(0.015625)"/>
      <path id="TimesNewRomanPS-BoldMT-2e" d="M 800 963 
Q 1019 963 1170 809 
Q 1322 656 1322 441 
Q 1322 225 1169 73 
Q 1016 -78 800 -78 
Q 584 -78 432 73 
Q 281 225 281 441 
Q 281 656 432 809 
Q 584 963 800 963 
z
" transform="scale(0.015625)"/>
      <path id="TimesNewRomanPS-BoldMT-33" d="M 947 2125 
L 947 2234 
Q 1303 2338 1440 2427 
Q 1578 2516 1678 2698 
Q 1778 2881 1778 3069 
Q 1778 3328 1589 3514 
Q 1400 3700 1119 3700 
Q 681 3700 375 3238 
L 259 3278 
Q 484 3800 836 4062 
Q 1188 4325 1619 4325 
Q 2059 4325 2345 4056 
Q 2631 3788 2631 3428 
Q 2631 3194 2498 2976 
Q 2366 2759 2081 2594 
Q 2447 2416 2639 2155 
Q 2831 1894 2831 1500 
Q 2831 838 2351 373 
Q 1872 -91 1066 -91 
Q 528 -91 281 88 
Q 103 213 103 409 
Q 103 553 206 654 
Q 309 756 444 756 
Q 547 756 638 713 
Q 688 688 992 439 
Q 1297 191 1563 191 
Q 1794 191 1959 373 
Q 2125 556 2125 838 
Q 2125 1266 1825 1627 
Q 1525 1988 947 2125 
z
" transform="scale(0.015625)"/>
      <path id="STIXSizeOneSym-Regular-221a" d="M 6970 9933 
L 3373 -1888 
L 3104 -1888 
L 1626 2918 
Q 1555 3149 1465 3251 
Q 1376 3354 1229 3354 
Q 1011 3354 794 3181 
L 717 3309 
L 1766 4115 
L 1926 4115 
L 3379 -602 
L 3405 -602 
L 6605 9933 
L 6970 9933 
z
" transform="scale(0.015625)"/>
      <path id="DejaVuSans-32" d="M 1228 531 
L 3431 531 
L 3431 0 
L 469 0 
L 469 531 
Q 828 903 1448 1529 
Q 2069 2156 2228 2338 
Q 2531 2678 2651 2914 
Q 2772 3150 2772 3378 
Q 2772 3750 2511 3984 
Q 2250 4219 1831 4219 
Q 1534 4219 1204 4116 
Q 875 4013 500 3803 
L 500 4441 
Q 881 4594 1212 4672 
Q 1544 4750 1819 4750 
Q 2544 4750 2975 4387 
Q 3406 4025 3406 3419 
Q 3406 3131 3298 2873 
Q 3191 2616 2906 2266 
Q 2828 2175 2409 1742 
Q 1991 1309 1228 531 
z
" transform="scale(0.015625)"/>
     </defs>
     <use xlink:href="#DejaVuSans-Oblique-3bb" transform="translate(0 0.71875)"/>
     <use xlink:href="#TimesNewRomanPS-BoldMT-20" transform="translate(59.179688 0.71875)"/>
     <use xlink:href="#TimesNewRomanPS-BoldMT-3d" transform="translate(84.179688 0.71875)"/>
     <use xlink:href="#TimesNewRomanPS-BoldMT-20" transform="translate(141.162109 0.71875)"/>
     <use xlink:href="#TimesNewRomanPS-BoldMT-31" transform="translate(166.162109 0.71875)"/>
     <use xlink:href="#TimesNewRomanPS-BoldMT-2e" transform="translate(216.162109 0.71875)"/>
     <use xlink:href="#TimesNewRomanPS-BoldMT-32" transform="translate(241.162109 0.71875)"/>
     <use xlink:href="#TimesNewRomanPS-BoldMT-33" transform="translate(291.162109 0.71875)"/>
     <use xlink:href="#TimesNewRomanPS-BoldMT-20" transform="translate(341.162109 0.71875)"/>
     <use xlink:href="#TimesNewRomanPS-BoldMT-3d" transform="translate(366.162109 0.71875)"/>
     <use xlink:href="#TimesNewRomanPS-BoldMT-20" transform="translate(423.144531 0.71875)"/>
     <use xlink:href="#STIXSizeOneSym-Regular-221a" transform="translate(448.144531 17.53125) scale(0.571018)"/>
     <use xlink:href="#DejaVuSans-32" transform="translate(521.02565 0.53125)"/>
     <path d="M 508.52565 99.5 
L 508.52565 105.75 
L 597.148697 105.75 
L 597.148697 99.5 
L 508.52565 99.5 
z
"/>
    </g>
   </g>
   <g id="text_19">
    <!-- Geometric Intuition: Why Losses Loom Larger -->
    <g transform="translate(55.764219 13.978125) scale(0.1 -0.1)">
     <defs>
      <path id="TimesNewRomanPS-BoldMT-63" d="M 2600 753 
L 2697 678 
Q 2491 291 2183 101 
Q 1875 -88 1528 -88 
Q 944 -88 594 353 
Q 244 794 244 1413 
Q 244 2009 563 2463 
Q 947 3009 1622 3009 
Q 2075 3009 2342 2781 
Q 2609 2553 2609 2272 
Q 2609 2094 2501 1987 
Q 2394 1881 2219 1881 
Q 2034 1881 1914 2003 
Q 1794 2125 1766 2438 
Q 1747 2634 1675 2713 
Q 1603 2791 1506 2791 
Q 1356 2791 1250 2631 
Q 1088 2391 1088 1894 
Q 1088 1481 1219 1104 
Q 1350 728 1578 544 
Q 1750 409 1984 409 
Q 2138 409 2275 481 
Q 2413 553 2600 753 
z
" transform="scale(0.015625)"/>
      <path id="TimesNewRomanPS-BoldMT-49" d="M 2344 116 
L 2344 0 
L 128 0 
L 128 116 
L 269 116 
Q 453 116 566 181 
Q 647 225 691 331 
Q 725 406 725 725 
L 725 3513 
Q 725 3838 690 3919 
Q 656 4000 551 4061 
Q 447 4122 269 4122 
L 128 4122 
L 128 4238 
L 2344 4238 
L 2344 4122 
L 2203 4122 
Q 2019 4122 1906 4056 
Q 1825 4013 1778 3906 
Q 1744 3831 1744 3513 
L 1744 725 
Q 1744 400 1780 319 
Q 1816 238 1920 177 
Q 2025 116 2203 116 
L 2344 116 
z
" transform="scale(0.015625)"/>
      <path id="TimesNewRomanPS-BoldMT-57" d="M 6344 4238 
L 6344 4122 
Q 6225 4113 6144 4056 
Q 6063 4000 6000 3884 
Q 5981 3847 5803 3400 
L 4475 -97 
L 4353 -97 
L 3303 2634 
L 2147 -97 
L 2031 -97 
L 638 3363 
Q 425 3884 340 3993 
Q 256 4103 56 4122 
L 56 4238 
L 1894 4238 
L 1894 4122 
Q 1672 4116 1598 4055 
Q 1525 3994 1525 3903 
Q 1525 3784 1678 3400 
L 2509 1344 
L 3175 2950 
L 3000 3400 
Q 2856 3769 2778 3892 
Q 2700 4016 2598 4069 
Q 2497 4122 2300 4122 
L 2300 4238 
L 4353 4238 
L 4353 4122 
Q 4138 4119 4044 4088 
Q 3978 4066 3940 4014 
Q 3903 3963 3903 3897 
Q 3903 3825 4044 3456 
L 4816 1450 
L 5506 3266 
Q 5616 3547 5641 3650 
Q 5666 3753 5666 3841 
Q 5666 3969 5578 4042 
Q 5491 4116 5244 4122 
L 5244 4238 
L 6344 4238 
z
" transform="scale(0.015625)"/>
      <path id="TimesNewRomanPS-BoldMT-68" d="M 1409 4238 
L 1409 2547 
Q 1650 2800 1850 2904 
Q 2050 3009 2266 3009 
Q 2541 3009 2736 2853 
Q 2931 2697 2995 2486 
Q 3059 2275 3059 1775 
L 3059 634 
Q 3059 300 3121 217 
Q 3184 134 3375 113 
L 3375 0 
L 1894 0 
L 1894 113 
Q 2050 134 2128 238 
Q 2184 319 2184 634 
L 2184 1938 
Q 2184 2300 2156 2392 
Q 2128 2484 2061 2536 
Q 1994 2588 1909 2588 
Q 1784 2588 1665 2502 
Q 1547 2416 1409 2200 
L 1409 634 
Q 1409 322 1456 244 
Q 1516 138 1700 113 
L 1700 0 
L 219 0 
L 219 113 
Q 403 131 481 231 
Q 534 300 534 634 
L 534 3603 
Q 534 3934 473 4015 
Q 413 4097 219 4122 
L 219 4238 
L 1409 4238 
z
" transform="scale(0.015625)"/>
      <path id="TimesNewRomanPS-BoldMT-79" d="M 1556 -119 
L 613 2047 
Q 400 2538 298 2650 
Q 197 2763 53 2806 
L 53 2922 
L 1606 2922 
L 1606 2806 
Q 1453 2800 1390 2747 
Q 1328 2694 1328 2619 
Q 1328 2500 1484 2150 
L 1984 1006 
L 2325 1891 
Q 2509 2363 2509 2547 
Q 2509 2663 2432 2731 
Q 2356 2800 2163 2806 
L 2163 2922 
L 3141 2922 
L 3141 2806 
Q 2997 2791 2906 2695 
Q 2816 2600 2603 2047 
L 1769 -119 
Q 1453 -931 1300 -1119 
Q 1084 -1381 759 -1381 
Q 500 -1381 339 -1232 
Q 178 -1084 178 -875 
Q 178 -694 289 -575 
Q 400 -456 563 -456 
Q 719 -456 814 -556 
Q 909 -656 913 -866 
Q 916 -984 941 -1019 
Q 966 -1053 1013 -1053 
Q 1088 -1053 1172 -963 
Q 1297 -831 1466 -363 
L 1556 -119 
z
" transform="scale(0.015625)"/>
      <path id="TimesNewRomanPS-BoldMT-67" d="M 2091 2888 
L 3075 2888 
L 3075 2544 
L 2516 2544 
Q 2669 2391 2728 2266 
Q 2803 2097 2803 1913 
Q 2803 1600 2629 1370 
Q 2456 1141 2157 1011 
Q 1859 881 1628 881 
Q 1609 881 1253 897 
Q 1113 897 1017 805 
Q 922 713 922 584 
Q 922 472 1008 400 
Q 1094 328 1288 328 
L 1828 334 
Q 2484 334 2731 191 
Q 3084 -9 3084 -425 
Q 3084 -691 2921 -908 
Q 2759 -1125 2494 -1228 
Q 2091 -1381 1566 -1381 
Q 1172 -1381 847 -1304 
Q 522 -1228 381 -1092 
Q 241 -956 241 -806 
Q 241 -663 348 -548 
Q 456 -434 750 -356 
Q 344 -156 344 200 
Q 344 416 509 619 
Q 675 822 1034 972 
Q 616 1125 428 1375 
Q 241 1625 241 1953 
Q 241 2381 591 2695 
Q 941 3009 1491 3009 
Q 1781 3009 2091 2888 
z
M 1550 2816 
Q 1369 2816 1244 2633 
Q 1119 2450 1119 1875 
Q 1119 1409 1242 1236 
Q 1366 1063 1534 1063 
Q 1722 1063 1847 1234 
Q 1972 1406 1972 1903 
Q 1972 2463 1831 2666 
Q 1731 2816 1550 2816 
z
M 1366 -431 
Q 1047 -431 944 -484 
Q 766 -581 766 -747 
Q 766 -906 950 -1036 
Q 1134 -1166 1644 -1166 
Q 2078 -1166 2326 -1050 
Q 2575 -934 2575 -725 
Q 2575 -647 2528 -594 
Q 2444 -500 2273 -465 
Q 2103 -431 1366 -431 
z
" transform="scale(0.015625)"/>
     </defs>
     <use xlink:href="#TimesNewRomanPS-BoldMT-47"/>
     <use xlink:href="#TimesNewRomanPS-BoldMT-65" transform="translate(77.783203 0)"/>
     <use xlink:href="#TimesNewRomanPS-BoldMT-6f" transform="translate(122.167969 0)"/>
     <use xlink:href="#TimesNewRomanPS-BoldMT-6d" transform="translate(172.167969 0)"/>
     <use xlink:href="#TimesNewRomanPS-BoldMT-65" transform="translate(255.46875 0)"/>
     <use xlink:href="#TimesNewRomanPS-BoldMT-74" transform="translate(299.853516 0)"/>
     <use xlink:href="#TimesNewRomanPS-BoldMT-72" transform="translate(333.154297 0)"/>
     <use xlink:href="#TimesNewRomanPS-BoldMT-69" transform="translate(377.539062 0)"/>
     <use xlink:href="#TimesNewRomanPS-BoldMT-63" transform="translate(405.322266 0)"/>
     <use xlink:href="#TimesNewRomanPS-BoldMT-20" transform="translate(449.707031 0)"/>
     <use xlink:href="#TimesNewRomanPS-BoldMT-49" transform="translate(474.707031 0)"/>
     <use xlink:href="#TimesNewRomanPS-BoldMT-6e" transform="translate(513.623047 0)"/>
     <use xlink:href="#TimesNewRomanPS-BoldMT-74" transform="translate(569.238281 0)"/>
     <use xlink:href="#TimesNewRomanPS-BoldMT-75" transform="translate(602.539062 0)"/>
     <use xlink:href="#TimesNewRomanPS-BoldMT-69" transform="translate(658.154297 0)"/>
     <use xlink:href="#TimesNewRomanPS-BoldMT-74" transform="translate(685.9375 0)"/>
     <use xlink:href="#TimesNewRomanPS-BoldMT-69" transform="translate(719.238281 0)"/>
     <use xlink:href="#TimesNewRomanPS-BoldMT-6f" transform="translate(747.021484 0)"/>
     <use xlink:href="#TimesNewRomanPS-BoldMT-6e" transform="translate(797.021484 0)"/>
     <use xlink:href="#TimesNewRomanPS-BoldMT-3a" transform="translate(852.636719 0)"/>
     <use xlink:href="#TimesNewRomanPS-BoldMT-20" transform="translate(885.9375 0)"/>
     <use xlink:href="#TimesNewRomanPS-BoldMT-57" transform="translate(909.1875 0)"/>
     <use xlink:href="#TimesNewRomanPS-BoldMT-68" transform="translate(1009.1875 0)"/>
     <use xlink:href="#TimesNewRomanPS-BoldMT-79" transform="translate(1064.802734 0)"/>
     <use xlink:href="#TimesNewRomanPS-BoldMT-20" transform="translate(1114.802734 0)"/>
     <use xlink:href="#TimesNewRomanPS-BoldMT-4c" transform="translate(1139.802734 0)"/>
     <use xlink:href="#TimesNewRomanPS-BoldMT-6f" transform="translate(1206.501953 0)"/>
     <use xlink:href="#TimesNewRomanPS-BoldMT-73" transform="translate(1256.501953 0)"/>
     <use xlink:href="#TimesNewRomanPS-BoldMT-73" transform="translate(1295.417969 0)"/>
     <use xlink:href="#TimesNewRomanPS-BoldMT-65" transform="translate(1334.333984 0)"/>
     <use xlink:href="#TimesNewRomanPS-BoldMT-73" transform="translate(1378.71875 0)"/>
     <use xlink:href="#TimesNewRomanPS-BoldMT-20" transform="translate(1417.634766 0)"/>
     <use xlink:href="#TimesNewRomanPS-BoldMT-4c" transform="translate(1442.634766 0)"/>
     <use xlink:href="#TimesNewRomanPS-BoldMT-6f" transform="translate(1509.333984 0)"/>
     <use xlink:href="#TimesNewRomanPS-BoldMT-6f" transform="translate(1559.333984 0)"/>
     <use xlink:href="#TimesNewRomanPS-BoldMT-6d" transform="translate(1609.333984 0)"/>
     <use xlink:href="#TimesNewRomanPS-BoldMT-20" transform="translate(1692.634766 0)"/>
     <use xlink:href="#TimesNewRomanPS-BoldMT-4c" transform="translate(1717.634766 0)"/>
     <use xlink:href="#TimesNewRomanPS-BoldMT-61" transform="translate(1784.333984 0)"/>
     <use xlink:href="#TimesNewRomanPS-BoldMT-72" transform="translate(1834.333984 0)"/>
     <use xlink:href="#TimesNewRomanPS-BoldMT-67" transform="translate(1878.71875 0)"/>
     <use xlink:href="#TimesNewRomanPS-BoldMT-65" transform="translate(1928.71875 0)"/>
     <use xlink:href="#TimesNewRomanPS-BoldMT-72" transform="translate(1973.103516 0)"/>
    </g>
   </g>
   <g id="PathCollection_1">
    <defs>
     <path id="m049d2fa2cd" d="M 0 5.477226 
C 1.452577 5.477226 2.845856 4.900111 3.872983 3.872983 
C 4.900111 2.845856 5.477226 1.452577 5.477226 0 
C 5.477226 -1.452577 4.900111 -2.845856 3.872983 -3.872983 
C 2.845856 -4.900111 1.452577 -5.477226 0 -5.477226 
C -1.452577 -5.477226 -2.845856 -4.900111 -3.872983 -3.872983 
C -4.900111 -2.845856 -5.477226 -1.452577 -5.477226 0 
C -5.477226 1.452577 -4.900111 2.845856 -3.872983 3.872983 
C -2.845856 4.900111 -1.452577 5.477226 0 5.477226 
z
" style="stroke: #333333"/>
    </defs>
    <g clip-path="url(#pe6130f1c64)">
     <use xlink:href="#m049d2fa2cd" x="156.64" y="148.718125" style="fill: #333333; stroke: #333333"/>
    </g>
   </g>
  </g>
 </g>
 <defs>
  <clipPath id="pe6130f1c64">
   <rect x="31.9" y="23.978125" width="249.48" height="249.48"/>
  </clipPath>
 </defs>
</svg>
